<svg width="14" height="14" viewBox="0 0 14 14" fill="none" xmlns="http://www.w3.org/2000/svg">
<g id="arrow-narrow-up">
<g id="Vector">
<path fill-rule="evenodd" clip-rule="evenodd" d="M6.99992 2.33331C7.32208 2.33331 7.58325 2.59448 7.58325 2.91665V11.0833C7.58325 11.4055 7.32208 11.6666 6.99992 11.6666C6.67775 11.6666 6.41659 11.4055 6.41659 11.0833V2.91665C6.41659 2.59448 6.67775 2.33331 6.99992 2.33331Z" fill="#27A376"/>
<path fill-rule="evenodd" clip-rule="evenodd" d="M6.58744 2.50417C6.81525 2.27636 7.18459 2.27636 7.4124 2.50417L9.74573 4.8375C9.97354 5.06531 9.97354 5.43465 9.74573 5.66246C9.51793 5.89026 9.14858 5.89026 8.92077 5.66246L6.58744 3.32913C6.35963 3.10132 6.35963 2.73197 6.58744 2.50417Z" fill="#27A376"/>
<path fill-rule="evenodd" clip-rule="evenodd" d="M7.4124 2.50417C7.6402 2.73197 7.6402 3.10132 7.4124 3.32913L5.07906 5.66246C4.85126 5.89026 4.48191 5.89026 4.25411 5.66246C4.0263 5.43465 4.0263 5.06531 4.25411 4.8375L6.58744 2.50417C6.81525 2.27636 7.18459 2.27636 7.4124 2.50417Z" fill="#27A376"/>
</g>
</g>
</svg>
