<svg width="15" height="14" viewBox="0 0 15 14" fill="none" xmlns="http://www.w3.org/2000/svg">
<g id="arrow-narrow-down">
<g id="Vector">
<path fill-rule="evenodd" clip-rule="evenodd" d="M7.74992 2.33331C8.07208 2.33331 8.33325 2.59448 8.33325 2.91665V11.0833C8.33325 11.4055 8.07208 11.6666 7.74992 11.6666C7.42775 11.6666 7.16659 11.4055 7.16659 11.0833V2.91665C7.16659 2.59448 7.42775 2.33331 7.74992 2.33331Z" fill="#E03137"/>
<path fill-rule="evenodd" clip-rule="evenodd" d="M10.4957 8.3375C10.7235 8.56531 10.7235 8.93465 10.4957 9.16246L8.1624 11.4958C7.93459 11.7236 7.56525 11.7236 7.33744 11.4958C7.10963 11.268 7.10963 10.8986 7.33744 10.6708L9.67077 8.3375C9.89858 8.1097 10.2679 8.1097 10.4957 8.3375Z" fill="#E03137"/>
<path fill-rule="evenodd" clip-rule="evenodd" d="M5.00411 8.3375C5.23191 8.1097 5.60126 8.1097 5.82906 8.3375L8.1624 10.6708C8.3902 10.8986 8.3902 11.268 8.1624 11.4958C7.93459 11.7236 7.56525 11.7236 7.33744 11.4958L5.00411 9.16246C4.7763 8.93465 4.7763 8.56531 5.00411 8.3375Z" fill="#E03137"/>
</g>
</g>
</svg>
