<svg width="141" height="96" viewBox="0 0 141 96" fill="none" xmlns="http://www.w3.org/2000/svg">
<g id="33">
<g id="12">
<g id="Group">
<path id="Vector" d="M71.6797 95.333C97.5868 95.333 118.589 74.2596 118.589 48.2642C118.589 22.2689 97.5868 1.1955 71.6797 1.1955C45.7726 1.1955 24.7708 22.2689 24.7708 48.2642C24.7708 74.2596 45.7726 95.333 71.6797 95.333Z" fill="#EAEEF9"/>
<path id="Vector_2" d="M44.5702 5.23505C45.8095 4.83087 46.4876 3.49513 46.0848 2.2516C45.682 1.00806 44.3507 0.327621 43.1114 0.731797C41.8721 1.13597 41.194 2.47171 41.5968 3.71525C41.9996 4.95878 43.3308 5.63922 44.5702 5.23505Z" fill="#EAEEF9"/>
<g id="Calendar 2 1">
<g id="Group_2">
<g id="Group_3">
<path id="Vector_3" d="M97.9186 86.9989H12.6897L28.2631 15.1172H113.586L97.9186 86.9989Z" fill="white"/>
<path id="Vector_4" d="M97.9186 86.9989H12.6897L28.2631 15.1172H113.586L97.9186 86.9989Z" fill="#D5DAE8"/>
<path id="Vector_5" d="M48.7444 86.9989H31.0946C27.8855 86.9989 25.2428 84.2524 25.4315 81.0324L28.263 15.1172H32.5103L48.7444 86.9989Z" fill="url(#paint0_linear_1_3912)"/>
<path id="Vector_6" d="M132.274 86.9989H47.0455L32.6047 31.7855L32.5103 31.4066L28.2631 15.1172H113.586L117.267 29.2284L117.834 31.4066L117.928 31.7855L132.274 86.9989Z" fill="white"/>
<path id="Vector_7" d="M117.834 31.4066H32.5103L28.2631 15.1172H113.586L117.267 29.2284L117.834 31.4066Z" fill="#EFF3FB"/>
<path id="Vector_8" opacity="0.3" d="M50.7265 26.7661C52.3945 26.7661 53.7468 25.4092 53.7468 23.7355C53.7468 22.0617 52.3945 20.7049 50.7265 20.7049C49.0584 20.7049 47.7062 22.0617 47.7062 23.7355C47.7062 25.4092 49.0584 26.7661 50.7265 26.7661Z" fill="#ADB6C8"/>
<path id="Vector_9" opacity="0.3" d="M100.561 26.7661C102.229 26.7661 103.582 25.4092 103.582 23.7355C103.582 22.0617 102.229 20.7049 100.561 20.7049C98.8934 20.7049 97.5411 22.0617 97.5411 23.7355C97.5411 25.4092 98.8934 26.7661 100.561 26.7661Z" fill="#ADB6C8"/>
<path id="Vector_10" d="M49.9715 24.9667C49.4052 24.9667 48.9332 24.4931 48.9332 23.9249C48.9332 23.3567 49.4052 22.8831 49.9715 22.8831C52.0479 22.8831 54.2188 19.9473 54.2188 15.4961C54.2188 15.4014 54.2188 15.212 54.2188 15.1173C54.1244 10.7608 51.9535 8.10904 49.9715 8.10904C48.0838 8.10904 46.0073 10.6661 45.7242 14.6437H43.5533C43.8365 9.71904 46.5736 6.02551 49.8771 6.02551C53.3693 6.02551 56.1064 10.0979 56.2952 15.3067C56.2952 15.4014 56.2952 15.4961 56.2952 15.5908C56.3896 20.7996 53.5581 24.9667 49.9715 24.9667Z" fill="#ADB6C8"/>
<path id="Vector_11" d="M99.5231 24.9667C98.9568 24.9667 98.4849 24.4931 98.4849 23.9249C98.4849 23.3567 98.9568 22.8831 99.5231 22.8831C101.6 22.8831 103.77 19.9473 103.77 15.4961C103.77 15.4014 103.77 15.212 103.77 15.1173C103.676 10.7608 101.505 8.10904 99.5231 8.10904C97.6354 8.10904 95.559 10.6661 95.2758 14.6437H93.105C93.3881 9.71904 96.1253 6.02551 99.4287 6.02551C102.921 6.02551 105.658 10.0979 105.847 15.3067C105.847 15.4014 105.847 15.4961 105.847 15.5908C105.941 20.7996 103.11 24.9667 99.5231 24.9667Z" fill="#ADB6C8"/>
</g>
</g>
</g>
<path id="Vector_12" d="M1.83545 86.9042H139.164" stroke="#D5DAE8" stroke-width="2" stroke-miterlimit="10" stroke-linecap="round" stroke-linejoin="round"/>
<path id="Vector_13" opacity="0.3" d="M101.033 52.7155C100.467 52.7155 100.089 52.2419 100.089 51.7684C100.089 51.2002 100.467 50.8214 101.033 50.8214H103.959C104.525 50.8214 104.903 51.2949 104.903 51.7684C104.903 52.3366 104.431 52.7155 103.959 52.7155H101.033Z" fill="#D5DAE8"/>
<path id="Vector_14" opacity="0.3" d="M60.8255 79.4224C60.448 79.4224 60.0704 79.1383 59.8817 78.7595L58.3715 73.1719H50.9152C50.3489 73.1719 49.9713 72.6983 49.9713 72.2248C49.9713 71.6566 50.4432 71.2778 50.9152 71.2778H57.8052L55.4456 62.9436H48.2724C47.7061 62.9436 47.3286 62.4701 47.3286 61.9966C47.3286 61.4284 47.7061 61.0495 48.2724 61.0495H54.8793L52.5197 52.7154H45.724C45.1577 52.7154 44.7802 52.2419 44.7802 51.7684C44.7802 51.2001 45.1577 50.8213 45.724 50.8213H52.0478L49.6882 42.4872H43.1757C42.6093 42.4872 42.2318 42.0137 42.2318 41.5402C42.2318 40.9719 42.6093 40.5931 43.1757 40.5931H49.1219L48.178 37.1837C48.0836 36.7102 48.3668 36.1419 48.8387 36.0472C48.9331 36.0472 49.0275 36.0472 49.1219 36.0472C49.4994 36.0472 49.8769 36.3313 50.0657 36.7102L51.1983 40.5931H58.749C59.3153 40.5931 59.6929 40.9719 59.6929 41.5402C59.6929 42.1084 59.3153 42.4872 58.749 42.4872H51.7646L54.1242 50.8213H66.0166L62.2413 37.1837C62.1469 36.7102 62.43 36.1419 62.9019 36.0472C62.9963 36.0472 63.0907 36.0472 63.1851 36.0472C63.5626 36.0472 63.9402 36.3313 64.1289 36.7102L65.2615 40.5931H69.3201C69.8864 40.5931 70.2639 40.9719 70.2639 41.5402C70.2639 42.1084 69.792 42.4872 69.3201 42.4872H65.8279L68.1875 50.8213H76.2101C76.7764 50.8213 77.154 51.2948 77.154 51.7684C77.154 52.3366 76.7764 52.7154 76.2101 52.7154H68.7538L71.1134 61.0495H83.1002L77.909 42.4872H75.3607C74.7944 42.4872 74.4168 42.0137 74.4168 41.5402C74.4168 40.9719 74.8887 40.5931 75.3607 40.5931H77.3427L76.3989 37.1837C76.3045 36.8996 76.3989 36.7102 76.4933 36.426C76.5877 36.2366 76.7764 36.0472 77.0596 35.9525C77.154 35.9525 77.2483 35.9525 77.3427 35.9525C77.7203 35.9525 78.0978 36.2366 78.2866 36.6155L79.4192 40.4984H81.4012C81.9676 40.4984 82.3451 40.8772 82.3451 41.4454C82.3451 42.0137 81.9676 42.3925 81.4012 42.3925H79.9855L82.3451 50.7266H94.3319L91.9723 42.3925H85.8373C85.271 42.3925 84.8935 41.919 84.8935 41.4454C84.8935 40.8772 85.3654 40.4984 85.8373 40.4984H91.1228L90.179 37.089C90.0846 36.6155 90.3677 36.0472 90.8397 35.9525C90.934 35.9525 91.0284 35.9525 91.1228 35.9525C91.5004 35.9525 91.8779 36.2366 92.0667 36.6155L93.1993 40.4984H105.186L104.242 37.089C104.148 36.6155 104.431 36.0472 104.903 35.9525C104.997 35.9525 105.092 35.9525 105.186 35.9525C105.564 35.9525 105.941 36.2366 106.13 36.6155L107.263 40.4984H114.624C115.191 40.4984 115.568 40.8772 115.568 41.4454C115.568 42.0137 115.191 42.3925 114.624 42.3925H107.546L109.905 50.7266H116.984C117.55 50.7266 117.928 51.2001 117.928 51.6737C117.928 52.2419 117.55 52.6207 116.984 52.6207H110.472L112.831 60.9548H119.627C120.193 60.9548 120.571 61.4284 120.571 61.9019C120.571 62.4701 120.193 62.8489 119.627 62.8489H113.397L115.757 71.1831H122.175C122.742 71.1831 123.119 71.6566 123.119 72.1301C123.119 72.6983 122.647 73.0772 122.175 73.0772H116.229L117.645 78.0966C117.739 78.5701 117.456 79.1383 116.984 79.233C116.89 79.233 116.795 79.233 116.701 79.233C116.323 79.233 115.946 78.9489 115.757 78.5701L114.247 73.0772H102.26L103.676 78.0019C103.77 78.286 103.676 78.4754 103.582 78.7595C103.487 78.9489 103.298 79.1383 103.015 79.233C102.921 79.233 102.826 79.233 102.732 79.233C102.355 79.233 101.977 78.9489 101.788 78.5701L100.278 73.1719H88.2913L89.7071 78.0966C89.8014 78.5701 89.5183 79.1383 89.0464 79.233C88.952 79.233 88.8576 79.233 88.7632 79.233C88.3857 79.233 88.0081 78.9489 87.8194 78.5701L86.3092 73.1719H74.3224L75.7382 78.0966C75.8326 78.5701 75.5494 79.1383 75.0775 79.233C74.9831 79.233 74.8887 79.233 74.7944 79.233C74.4168 79.233 74.0393 78.9489 73.8505 78.5701L72.3404 73.1719H60.3536L61.7693 78.1913C61.8637 78.4754 61.7693 78.6648 61.675 78.9489C61.5806 79.1383 61.3918 79.3277 61.1086 79.4224C61.0143 79.4224 60.9199 79.4224 60.8255 79.4224ZM87.725 71.2778H113.681L111.321 62.9436H99.3342L100.184 65.9742C100.278 66.2584 100.184 66.4478 100.089 66.7319C99.9949 66.9213 99.8062 67.1107 99.523 67.2054C99.4286 67.2054 99.3342 67.2054 99.2399 67.2054C98.8623 67.2054 98.4848 66.9213 98.296 66.5425L97.3522 63.0384H93.7656C93.1993 63.0384 92.8217 62.5648 92.8217 62.0913C92.8217 61.5231 93.1993 61.1442 93.7656 61.1442H96.7859L94.4263 52.8101H82.5339L84.8935 61.1442H87.8194C88.3857 61.1442 88.7632 61.6178 88.7632 62.0913C88.7632 62.6595 88.3857 63.0384 87.8194 63.0384H85.3654L87.725 71.2778ZM73.7561 71.2778H85.7429L83.3833 62.9436H71.3965L73.7561 71.2778ZM59.7873 71.2778H71.7741L69.4145 62.9436H65.9222C65.3559 62.9436 64.9784 62.4701 64.9784 61.9966C64.9784 61.4284 65.4503 61.0495 65.9222 61.0495H68.9425L66.5829 52.7154H54.5961L56.9557 61.0495H60.0704C60.6367 61.0495 61.0143 61.5231 61.0143 61.9966C61.0143 62.5648 60.5423 62.9436 60.0704 62.9436H57.522L59.7873 71.2778ZM98.8623 61.0495H110.849L105.658 42.4872H93.5768L98.8623 61.0495Z" fill="#D5DAE8"/>
</g>
</g>
</g>
<defs>
<linearGradient id="paint0_linear_1_3912" x1="25.4142" y1="51.0473" x2="48.7792" y2="51.0473" gradientUnits="userSpaceOnUse">
<stop stop-color="#D5DAE8"/>
<stop offset="1" stop-color="#9AA3BA"/>
</linearGradient>
</defs>
</svg>
