<?xml version="1.0" encoding="utf-8"?>
<!-- Generator: Adobe Illustrator 27.0.1, SVG Export Plug-In . SVG Version: 6.00 Build 0)  -->
<svg version="1.1" id="Layer_1" xmlns="http://www.w3.org/2000/svg" xmlns:xlink="http://www.w3.org/1999/xlink" x="0px" y="0px"
	 viewBox="0 0 1070 673" style="enable-background:new 0 0 1070 673;" xml:space="preserve">
<style type="text/css">
	.st0{fill:#EBEBEB;}
	.st1{fill:#A6A6A6;}
	.st2{fill:#5D2E82;}
	.st3{fill:#DBDBDB;}
	.st4{fill:#C7C7C7;}
	.st5{fill:#00BBB0;}
	.st6{fill:#263238;}
	.st7{opacity:0.1;fill:#263238;enable-background:new    ;}
	.st8{opacity:0.2;enable-background:new    ;}
	.st9{fill:#455A64;}
	.st10{fill:#FFFFFF;}
	.st11{fill:#B889DD;}
	.st12{opacity:0.6;fill:#FFFFFF;enable-background:new    ;}
	.st13{opacity:0.1;fill:#5D2E82;enable-background:new    ;}
	.st14{fill:#4A2568;}
	.st15{opacity:0.2;fill:#B889DD;enable-background:new    ;}
	.st16{opacity:0.4;enable-background:new    ;}
	.st17{opacity:0.3;fill:#643A85;enable-background:new    ;}
	.st18{opacity:0.1;enable-background:new    ;}
	.st19{opacity:0.1;}
	.st20{fill:#542975;}
	.st21{fill:#37474F;}
	.st22{opacity:0.3;enable-background:new    ;}
	.st23{clip-path:url(#SVGID_00000061436600407035145940000009832547465657328823_);fill:#B889DD;}
	.st24{clip-path:url(#SVGID_00000061436600407035145940000009832547465657328823_);}
	.st25{fill:#D1D1D1;}
	.st26{fill:#EA8C6C;}
	.st27{fill:#F29972;}
	.st28{fill:#432B23;}
	.st29{fill:#FFAA80;}
	.st30{fill:#FFFEE9;}
	.st31{fill:#3C2617;}
	.st32{fill:#999999;}
	.st33{fill:#C6C6C6;}
	.st34{fill:#070707;}
	.st35{fill:#B6C7D8;}
	.st36{fill:#A1B3C4;}
	.st37{fill:#C93F77;}
	.st38{fill:#E89579;}
	.st39{fill:#223243;}
	.st40{opacity:0.51;fill:#223243;}
	.st41{opacity:0.87;}
	.st42{fill:#49260D;}
	.st43{fill:#301822;}
	.st44{fill:#190A10;}
	.st45{fill:#301821;}
	.st46{opacity:0.2;fill:#B2B2B2;}
	.st47{fill:#CCDBED;}
	.st48{opacity:0.7;fill:#A1B3C4;}
	.st49{clip-path:url(#SVGID_00000026866413351112039180000011062562240460596629_);}
	.st50{fill:#EBF4FE;}
	.st51{fill:#F44D8D;}
	.st52{opacity:0.4;fill:#EBF4FE;}
	.st53{opacity:0.4;fill:#F44D8D;}
	.st54{fill:#382028;}
	.st55{fill:#BDCEE0;}
	.st56{fill:#7E98AF;}
	.st57{fill:#BFCEDD;}
	.st58{fill:#D6E3ED;}
	.st59{opacity:0.37;}
	.st60{fill:#899193;}
	.st61{fill:#D3E3F2;}
	.st62{fill:#3B4449;}
	.st63{fill:#B26956;}
	.st64{opacity:0.37;fill:#A1B3C4;}
</style>
<path class="st0" d="M294.9,166.7H91.2V27.4h203.7V166.7z M92.8,165.1h200.4V29H92.8V165.1z"/>
<path class="st1" d="M107.2,36.4c0,0.8-0.2,1.6-0.7,2.3c-0.4,0.7-1.1,1.2-1.8,1.5c-0.7,0.3-1.6,0.4-2.3,0.2
	c-0.8-0.2-1.5-0.5-2.1-1.1c-0.6-0.6-1-1.3-1.1-2.1c-0.2-0.8-0.1-1.6,0.2-2.3c0.3-0.7,0.8-1.4,1.5-1.8c0.7-0.4,1.4-0.7,2.3-0.7
	c1.1,0,2.1,0.4,2.9,1.2C106.7,34.3,107.2,35.3,107.2,36.4z"/>
<path class="st0" d="M123.7,36.4c0,0.8-0.2,1.6-0.7,2.3c-0.4,0.7-1.1,1.2-1.8,1.5c-0.7,0.3-1.6,0.4-2.3,0.2
	c-0.8-0.2-1.5-0.5-2.1-1.1c-0.6-0.6-1-1.3-1.1-2.1c-0.2-0.8-0.1-1.6,0.2-2.3c0.3-0.7,0.8-1.4,1.5-1.8c0.7-0.4,1.5-0.7,2.3-0.7
	c1.1,0,2.1,0.4,2.9,1.2C123.3,34.3,123.7,35.3,123.7,36.4z"/>
<path class="st2" d="M140.3,36.4c0,0.8-0.2,1.6-0.7,2.3c-0.4,0.7-1.1,1.2-1.8,1.5c-0.7,0.3-1.6,0.4-2.3,0.2
	c-0.8-0.2-1.5-0.5-2.1-1.1c-0.6-0.6-1-1.3-1.1-2.1c-0.2-0.8-0.1-1.6,0.2-2.3c0.3-0.7,0.8-1.4,1.5-1.8c0.7-0.4,1.4-0.7,2.3-0.7
	c1.1,0,2.1,0.4,2.9,1.2C139.8,34.3,140.3,35.3,140.3,36.4z"/>
<path class="st0" d="M294.1,43.5H92v1.6h202V43.5z"/>
<path class="st0" d="M1047.2,266.3l9.5-15.3l-4.7-2.9c-0.7-0.4-1.2-1-1.6-1.7c-0.3-0.7-0.5-1.5-0.4-2.3c0-0.9,0.1-1.8,0-2.7
	c0-0.8,0.2-1.6,0.6-2.3s1-1.2,1.7-1.6l4.8-2.6l-8.5-15.8l-4.8,2.6c-0.7,0.4-1.5,0.5-2.3,0.5c-0.8-0.1-1.5-0.3-2.2-0.8
	c-0.7-0.5-1.5-1-2.3-1.4c-0.7-0.4-1.3-0.9-1.7-1.6c-0.4-0.7-0.6-1.5-0.6-2.3l0.2-5.5l-18-0.6l-0.2,5.5c0,0.8-0.3,1.6-0.7,2.2
	c-0.4,0.7-1.1,1.2-1.8,1.5l-1.2,0.6l-1.1,0.7c-0.7,0.4-1.4,0.6-2.2,0.6c-0.8,0-1.5-0.2-2.2-0.6l-4.7-2.8l-9.5,15.3l4.7,2.9
	c0.7,0.4,1.2,1,1.6,1.7c0.3,0.7,0.5,1.5,0.4,2.3c0,0.9,0,1.8,0,2.7c0,0.8-0.2,1.6-0.6,2.3s-1,1.2-1.7,1.6l-4.8,2.6l8.5,15.8l4.8-2.6
	c0.7-0.4,1.5-0.5,2.3-0.5c0.8,0,1.5,0.3,2.2,0.8c0.7,0.5,1.5,1,2.3,1.4c0.7,0.4,1.3,0.9,1.7,1.6c0.4,0.7,0.6,1.5,0.6,2.3l-0.2,5.5
	l18,0.6l0.2-5.5c0-0.8,0.3-1.5,0.7-2.2c0.4-0.7,1.1-1.2,1.8-1.5l1.2-0.6l1.1-0.7c0.7-0.4,1.4-0.6,2.2-0.6s1.6,0.2,2.2,0.6
	L1047.2,266.3z M1031.9,255.1c-2.6,1.4-5.5,2-8.4,1.7c-2.9-0.3-5.6-1.4-7.9-3.3c-2.2-1.8-3.9-4.3-4.8-7.1c-0.8-2.8-0.8-5.8,0-8.5
	c0.8-2.8,2.5-5.3,4.7-7.1c2.2-1.8,5-3,7.9-3.3c2.9-0.3,5.8,0.3,8.4,1.7c2.6,1.4,4.7,3.5,6,6c1.8,3.4,2.2,7.4,1.1,11.2
	C1037.9,250,1035.4,253.2,1031.9,255.1L1031.9,255.1z"/>
<path class="st0" d="M953.5,370.5l-6.3-10.9l-3.3,1.9c-0.5,0.3-1.1,0.4-1.6,0.4c-0.6,0-1.1-0.2-1.6-0.5c-0.5-0.3-1.1-0.7-1.6-0.9
	c-0.5-0.3-0.9-0.6-1.2-1.1c-0.3-0.5-0.4-1-0.4-1.6V354h-12.6v3.8c0,0.5-0.1,1.1-0.4,1.6c-0.3,0.5-0.7,0.8-1.2,1.1
	c-0.6,0.3-1.1,0.6-1.6,0.9c-0.5,0.3-1,0.5-1.6,0.5c-0.6,0-1.1-0.1-1.6-0.4l-3.3-1.9l-6.4,10.9l3.4,1.9c0.5,0.3,0.9,0.7,1.1,1.2
	c0.3,0.5,0.4,1,0.3,1.6c0,0.3,0,0.6,0,0.9c0,0.3,0,0.6,0,0.9c0,0.6-0.1,1.1-0.3,1.6c-0.3,0.5-0.6,0.9-1.1,1.2l-3.4,1.9l6.3,10.9
	l3.3-1.9c0.5-0.3,1-0.4,1.6-0.4c0.6,0,1.1,0.2,1.6,0.5c0.5,0.3,1.1,0.7,1.6,0.9c0.5,0.3,0.9,0.6,1.2,1.1c0.3,0.5,0.4,1,0.4,1.6v3.9
	h12.6v-3.9c0-0.5,0.2-1.1,0.4-1.5c0.3-0.5,0.7-0.8,1.2-1.1c0.6-0.3,1.1-0.6,1.6-0.9c0.5-0.3,1-0.5,1.6-0.5c0.6,0,1.1,0.1,1.6,0.4
	l3.3,1.9l6.3-10.9l-3.3-1.9c-0.5-0.3-0.9-0.7-1.1-1.2c-0.3-0.5-0.4-1-0.3-1.6c0-0.3,0-0.6,0-0.9c0-0.3,0-0.6,0-0.9
	c0-0.6,0.1-1.1,0.3-1.6c0.3-0.5,0.6-0.9,1.1-1.2L953.5,370.5z M941.5,376.2c0,2-0.6,4-1.7,5.7c-1.1,1.7-2.7,3-4.6,3.8
	c-1.9,0.8-4,1-6,0.6c-2-0.4-3.8-1.4-5.3-2.8c-1.4-1.4-2.4-3.3-2.8-5.3c-0.4-2-0.2-4.1,0.6-6c0.8-1.9,2.1-3.5,3.8-4.6
	c1.7-1.1,3.7-1.7,5.7-1.7c2.7,0,5.3,1.1,7.3,3C940.4,370.8,941.5,373.4,941.5,376.2L941.5,376.2z"/>
<path class="st0" d="M950.2,87.1c-9.7,0-19.2,2.9-27.2,8.3c-8.1,5.4-14.3,13-18,22c-3.7,9-4.7,18.8-2.8,28.3
	c1.9,9.5,6.6,18.2,13.4,25.1c6.9,6.9,15.6,11.5,25.1,13.4c9.5,1.9,19.4,0.9,28.3-2.8c9-3.7,16.6-10,22-18c5.4-8.1,8.3-17.5,8.3-27.2
	c0-13-5.2-25.5-14.4-34.6C975.6,92.3,963.2,87.1,950.2,87.1z M950.2,159c-4.5,0-8.9-1.3-12.7-3.9c-3.8-2.5-6.7-6.1-8.4-10.3
	s-2.2-8.8-1.3-13.2c0.9-4.4,3.1-8.5,6.3-11.7c3.2-3.2,7.3-5.4,11.7-6.3c4.4-0.9,9-0.4,13.2,1.3s7.8,4.7,10.3,8.4
	c2.5,3.8,3.9,8.2,3.8,12.7c0,3-0.6,6-1.7,8.8c-1.2,2.8-2.8,5.3-5,7.4c-2.1,2.1-4.7,3.8-7.4,5C956.2,158.4,953.2,159,950.2,159z"/>
<path class="st0" d="M959.6,89.2h-18.8l1-13.3h16.8L959.6,89.2z"/>
<path class="st0" d="M923.7,95.5l-13.3,13.3l-8.7-10.2l11.8-11.9L923.7,95.5z"/>
<path class="st0" d="M902.9,125.4v18.8l-13.3-1v-16.8L902.9,125.4z"/>
<path class="st0" d="M909.2,161.2l13.3,13.3l-10.2,8.7l-11.9-11.9L909.2,161.2z"/>
<path class="st0" d="M939.1,182.1h18.8l-1,13.3h-16.8L939.1,182.1z"/>
<path class="st0" d="M974.9,175.8l13.3-13.3l8.7,10.2l-11.9,11.9L974.9,175.8z"/>
<path class="st0" d="M995.8,145.9V127l13.4,1v16.8L995.8,145.9z"/>
<path class="st0" d="M989.5,110l-13.3-13.3l10.2-8.7l11.9,11.9L989.5,110z"/>
<path class="st0" d="M1045.2,409.5l-21.1,0.4l-10.7,0.2c-3.6,0.1-7.2,0-10.8,0.1h-0.7v-0.7l-0.1-18v-0.8h0.8l21.3,0.1
	c7.1,0,14.2,0.2,21.3,0.3h0.5v0.5c0,3.1-0.1,6.1-0.2,9.1L1045.2,409.5z M1045.2,409.5l-0.2-9.1c-0.1-3-0.2-6-0.2-8.9l0.4,0.5
	c-7.1,0.1-14.2,0.3-21.3,0.3l-21.3,0.1l0.8-0.8v18l-0.7-0.7c3.5,0,7,0,10.5,0.1l10.5,0.3L1045.2,409.5z"/>
<path class="st0" d="M1021.5,432.2l-21.1,0.5l-10.7,0.2c-3.6,0-7.2,0-10.8,0.1h-0.7v-0.7v-18v-0.8h0.8l21.3,0.1
	c7.1,0,14.2,0.2,21.3,0.3h0.5v0.4c0,3.1-0.1,6.1-0.2,9.1L1021.5,432.2z M1021.5,432.2l-0.2-9.1c-0.1-3-0.2-5.9-0.2-8.9l0.4,0.5
	c-7.1,0.1-14.2,0.3-21.3,0.3l-21.3,0.1l0.8-0.8v18l-0.7-0.7c3.5,0,7,0,10.5,0.1l10.6,0.2L1021.5,432.2z"/>
<path class="st0" d="M1069,432.2l-21.1,0.5l-10.7,0.2c-3.6,0-7.2,0-10.8,0.1h-0.7v-0.7l-0.1-18v-0.8h0.8l21.3,0.1
	c7.1,0,14.2,0.2,21.3,0.3h0.5v0.4c0,3.1-0.2,6.1-0.2,9.1L1069,432.2z M1069,432.2l-0.2-9.1c0-3-0.2-5.9-0.2-8.9l0.4,0.5
	c-7.1,0.1-14.2,0.3-21.3,0.3l-21.3,0.1l0.8-0.8v18l-0.7-0.7c3.5,0,7,0,10.5,0.1l10.6,0.2L1069,432.2z"/>
<path class="st0" d="M438,195.4l-21.1,0.4l-10.7,0.2c-3.6,0-7.2,0-10.8,0h-0.7v-0.7l-0.1-18v-0.8h0.8l21.3,0.1
	c7.1,0,14.2,0.2,21.3,0.3h0.5v0.4c0,3.1-0.1,6.1-0.2,9.1L438,195.4z M438,195.4l-0.2-9.1c0-3-0.2-5.9-0.2-8.9l0.4,0.4
	c-7.1,0-14.2,0.3-21.3,0.3l-21.3,0.1l0.8-0.8l-0.1,18l-0.7-0.7c3.5,0,7,0,10.5,0.1l10.6,0.2L438,195.4z"/>
<path class="st0" d="M414.2,218.1l-21.1,0.4l-10.7,0.2c-3.6,0-7.2,0-10.8,0.1h-0.7V218l-0.1-18v-0.8h0.8l21.3,0.1
	c7.1,0,14.2,0.2,21.3,0.3h0.5v0.4c0,3.1-0.1,6.1-0.2,9.1L414.2,218.1z M414.2,218.1L414,209c-0.1-3-0.2-6-0.2-8.9l0.4,0.4
	c-7.1,0.1-14.2,0.3-21.3,0.3l-21.3,0.1l0.8-0.8l0,18l-0.7-0.7c3.5,0,7,0,10.5,0.1l10.6,0.2L414.2,218.1z"/>
<path class="st0" d="M461.8,218.1l-21.1,0.4l-10.7,0.2c-3.6,0-7.2,0-10.8,0.1h-0.7V218l-0.1-18v-0.8h0.8l21.3,0.1
	c7.1,0,14.2,0.2,21.3,0.3h0.4v0.4c0,3.1-0.1,6.1-0.2,9.1L461.8,218.1z M461.8,218.1l-0.2-9.1c0-3-0.2-6-0.2-8.9l0.4,0.4
	c-7.1,0.1-14.2,0.3-21.3,0.3l-21.3,0.1l0.8-0.8l-0.1,18l-0.7-0.7c3.5,0,7,0,10.5,0.1l10.6,0.2L461.8,218.1z"/>
<path class="st0" d="M90.8,314.4l-21.1,0.4L59,315.1c-3.6,0-7.2,0-10.8,0.1h-0.6v-0.7v-18v-0.8h0.8l21.3,0.1
	c7.1,0,14.2,0.2,21.3,0.3h0.5v0.4c0,3.1-0.1,6.1-0.2,9.1L90.8,314.4z M90.8,314.4l-0.2-9.1c0-3-0.2-6-0.2-8.9l0.4,0.4
	c-7.1,0.1-14.2,0.3-21.3,0.3l-21.3,0.1l0.8-0.8l-0.1,18l-0.7-0.7c3.5,0,7,0,10.5,0.1l10.6,0.2L90.8,314.4z"/>
<path class="st0" d="M796.7,195.4l-21.1,0.4l-10.7,0.2c-3.6,0.1-7.2,0-10.8,0.1h-0.7v-0.7l-0.1-18v-0.8h0.8l21.3,0.1
	c7.1,0,14.2,0.2,21.3,0.3h0.5v0.4c0,3.1-0.1,6.1-0.2,9.1L796.7,195.4z M796.7,195.4l-0.2-9.1c-0.1-3-0.2-6-0.2-8.9l0.4,0.4
	c-7.1,0.1-14.2,0.3-21.3,0.3l-21.3,0.1l0.8-0.8l-0.1,18l-0.7-0.7c3.5,0,7,0,10.5,0.1l10.6,0.2L796.7,195.4z"/>
<path class="st0" d="M1042.8,20.6l-21.1,0.5l-10.7,0.2c-3.6,0-7.2,0-10.8,0.1h-0.7v-0.7v-18V1.8h0.8l21.3,0.1
	c7.1,0,14.2,0.2,21.3,0.3h0.5v0.4c0,3.1-0.1,6.1-0.2,9.1L1042.8,20.6z M1042.8,20.6l-0.2-9.1c-0.1-3-0.2-6-0.2-8.9l0.4,0.4
	c-7.1,0-14.2,0.3-21.3,0.3l-21.3,0.1l0.8-0.8l-0.1,18l-0.7-0.7c3.5,0,7,0,10.5,0.1l10.6,0.2L1042.8,20.6z"/>
<path class="st0" d="M1066.5,43.3l-21.1,0.5l-10.7,0.2c-3.6,0.1-7.2,0-10.8,0.1h-0.7v-0.7l-0.1-18v-0.8h0.8l21.3,0.1
	c7.1,0,14.2,0.2,21.3,0.3h0.4v0.4c0,3.1-0.1,6.1-0.2,9.1L1066.5,43.3z M1066.5,43.3l-0.2-9.1c0-3-0.2-6-0.2-8.9l0.4,0.4
	c-7.1,0-14.2,0.3-21.3,0.3l-21.3,0.1l0.8-0.8v18l-0.7-0.7c3.5,0,7,0,10.5,0.1l10.6,0.2L1066.5,43.3z"/>
<path class="st0" d="M43.3,20.6l-21.1,0.5l-10.7,0.2c-3.6,0-7.2,0-10.8,0.1H0v-0.7v-18V1.8h0.8l21.3,0.1c7.1,0,14.2,0.2,21.3,0.3
	h0.4v0.4c0,3.1-0.1,6.1-0.2,9.1L43.3,20.6z M43.3,20.6l-0.2-9.1c0-3-0.2-6-0.2-8.9L43.3,3C36.2,3.1,29.1,3.3,22,3.3L0.7,3.4l0.8-0.8
	l-0.1,18L0.7,20c3.5,0,7,0,10.5,0l10.6,0.2L43.3,20.6z"/>
<path class="st3" d="M33.1,166.8v347.5h347L33.1,166.8z M96.7,324.2l126.5,126.5H96.9L96.7,324.2z"/>
<path class="st0" d="M33.1,166.8v347.5h347L45.3,179l-1.6-1.6L33.1,166.8z M96.7,324.2l126.5,126.5H96.9L96.7,324.2z"/>
<path class="st4" d="M45,181.4H33.1v1.7H45V181.4z"/>
<path class="st4" d="M40.1,189.2h-7v1.7h7V189.2z"/>
<path class="st4" d="M40.1,196.9h-7v1.7h7V196.9z"/>
<path class="st4" d="M40.1,204.6h-7v1.7h7V204.6z"/>
<path class="st4" d="M40.1,212.3h-7v1.7h7V212.3z"/>
<path class="st4" d="M40.1,220h-7v1.7h7V220z"/>
<path class="st4" d="M40.1,227.8h-7v1.7h7V227.8z"/>
<path class="st4" d="M45,235.5H33.1v1.7H45V235.5z"/>
<path class="st4" d="M40.1,243.2h-7v1.7h7V243.2z"/>
<path class="st4" d="M40.1,250.9h-7v1.7h7V250.9z"/>
<path class="st4" d="M40.1,258.7h-7v1.7h7V258.7z"/>
<path class="st4" d="M40.1,266.4h-7v1.7h7V266.4z"/>
<path class="st4" d="M40.1,274.1h-7v1.7h7V274.1z"/>
<path class="st4" d="M40.1,281.8h-7v1.7h7V281.8z"/>
<path class="st4" d="M45,289.5H33.1v1.7H45V289.5z"/>
<path class="st4" d="M40.1,297.2h-7v1.7h7V297.2z"/>
<path class="st4" d="M40.1,305h-7v1.7h7V305z"/>
<path class="st4" d="M40.1,312.7h-7v1.7h7V312.7z"/>
<path class="st4" d="M40.1,320.4h-7v1.7h7V320.4z"/>
<path class="st4" d="M40.1,328.1h-7v1.7h7V328.1z"/>
<path class="st4" d="M40.1,335.9h-7v1.7h7V335.9z"/>
<path class="st4" d="M45,343.6H33.1v1.7H45V343.6z"/>
<path class="st4" d="M40.1,351.3h-7v1.7h7V351.3z"/>
<path class="st4" d="M40.1,359h-7v1.7h7V359z"/>
<path class="st4" d="M40.1,366.7h-7v1.7h7V366.7z"/>
<path class="st4" d="M40.1,374.4h-7v1.7h7V374.4z"/>
<path class="st4" d="M40.1,382.2h-7v1.7h7V382.2z"/>
<path class="st4" d="M40.1,389.9h-7v1.7h7V389.9z"/>
<path class="st4" d="M45,397.6H33.1v1.7H45V397.6z"/>
<path class="st4" d="M40.1,405.3h-7v1.7h7V405.3z"/>
<path class="st4" d="M40.1,413.1h-7v1.7h7V413.1z"/>
<path class="st4" d="M40.1,420.8h-7v1.7h7V420.8z"/>
<path class="st4" d="M40.1,428.5h-7v1.7h7V428.5z"/>
<path class="st4" d="M40.1,436.2h-7v1.7h7V436.2z"/>
<path class="st4" d="M40.1,443.9h-7v1.7h7V443.9z"/>
<path class="st4" d="M45,451.6H33.1v1.7H45V451.6z"/>
<path class="st4" d="M40.1,459.4h-7v1.7h7V459.4z"/>
<path class="st4" d="M40.1,467.1h-7v1.7h7V467.1z"/>
<path class="st4" d="M40.1,474.8h-7v1.7h7V474.8z"/>
<path class="st4" d="M40.1,482.5h-7v1.7h7V482.5z"/>
<path class="st4" d="M40.1,490.3h-7v1.7h7V490.3z"/>
<path class="st4" d="M40.1,498h-7v1.7h7V498z"/>
<path class="st5" d="M988.1,414.7c0,0,27.1-6.1,41.9-19.8c14.8-13.7,23.1-38.2,23.1-38.2c-10.3,2-20.4,4.7-30.4,8
	c-3.7,3.8-6.8,8.2-9.2,13c-0.3-3.1-0.3-6.2-0.1-9.3c-3.5,1.5-6.7,3.5-9.6,5.9C991.6,385,988.1,414.7,988.1,414.7z"/>
<path class="st6" d="M1036.3,368.6c3.7-2.5,7.4-5,11.1-7.6c0.2-0.1,0-0.5-0.2-0.4c-7,4.2-13.9,8.6-20.5,13.3c-2.3,1.6-4.6,3.3-6.9,5
	l0.5-0.8c0.8-1.4,1.6-2.7,2.5-4c1.7-2.7,3.6-5.3,5.7-7.7c0-0.1,0-0.2-0.1-0.1c-2.1,2.4-4.2,4.8-6.2,7.4c-0.9,1.2-1.8,2.5-2.6,3.8
	c-0.4,0.7-0.8,1.4-1.2,2.1l-0.4,0.7c-3.5,2.8-6.9,5.6-10.2,8.7c-2,1.9-3.9,3.8-5.8,5.8c1-3.2,2-6.6,3.2-9.8c0-0.1-0.2-0.2-0.2,0
	c-1.2,3.4-2.5,6.8-3.4,10.3c-2.1,2.2-4.1,4.6-5.9,7l0.1-0.4c0.3-1.3,0.6-2.6,1-3.8c0.7-2.4,1.4-4.8,2.2-7.3c1.6-5,4-9.6,7.3-13.7
	c0-0.1,0-0.2-0.1-0.1c-5.1,6.3-8.6,13.7-10.4,21.7c-0.3,1.1-0.6,2.3-0.8,3.5c-0.1,0.6-0.3,1.2-0.4,1.9c-0.8,1.1-1.6,2.2-2.4,3.4
	c-4.6,7.1-8.5,14.6-11.5,22.5c-3.4,8.9-6.3,17.9-8.7,27.1c0,0.2,0.2,0.2,0.3,0c5.3-15.8,10.7-31.9,19.8-46.1c1.9-3,4-5.9,6.2-8.7
	c4.5-0.3,8.9-1.2,13.2-2.6c4.6-1.6,9.1-3.7,13.2-6.4c2.3-1.6,4.6-3.3,6.8-5.1c0,0,0,0,0,0c0,0,0,0,0,0c0,0,0,0,0,0c0,0,0,0,0,0
	c0,0,0,0,0,0c0,0,0,0,0,0c0,0,0,0,0,0c0,0,0,0,0,0c-3.8,3-8,5.6-12.4,7.5c-4.4,2-9,3.5-13.7,4.6c-2,0.4-4,0.8-6,1
	c2.5-3.1,5.2-6,8-8.8c0.9-0.9,1.9-1.8,2.8-2.7c3.2-2.2,6.5-4.1,10-5.7c4.4-2.2,8.8-4.4,13.2-6.7c2.5-1.3,4.9-2.5,7.4-3.8
	c0.1,0,0-0.2-0.1-0.2c-4.5,2.2-9,4.1-13.5,6.2c-4.2,1.9-8.5,3.9-12.6,6.2l-0.5,0.3c3.7-3.2,7.5-6.2,11.2-9.2
	C1028.9,373.8,1032.6,371.2,1036.3,368.6z"/>
<path class="st6" d="M1034.7,382.6c-2.2,1-4.4,1.8-6.6,2.8c-2.2,1-4.4,2.3-6.4,3.5c-0.1,0,0,0.2,0,0.1c2.2-1,4.4-2,6.4-3.1
	c2.1-1.1,4.3-2.3,6.6-3.2C1035,382.7,1034.8,382.5,1034.7,382.6z"/>
<path class="st5" d="M900.2,279.1c5,6.5,7.8,14.4,8,22.5c0,2.4-0.3,5.8-0.6,9.8c6.8,3.9,12.8,9,17.7,15.1
	c-5.4-3.1-11.6-4.6-17.9-4.3c0.1,2.7,0.5,5.4,1,8c3.9,0,7.8,0.8,11.5,2.3c-3.6,0-7.1,0.7-10.4,2.1c4.8,15.4,19.2,31.1,58.8,37.8
	c4.2-18.8,1.7-38.5-7-55.8C949.6,293.4,900.2,279.1,900.2,279.1z"/>
<path class="st6" d="M982.2,437.3c-0.7-6.6-1.5-13.1-2.6-19.6c-2-13.1-4.7-26-8-38.8c-1.6-6-3.5-11.9-5.7-17.7
	c0.1-1.1,0.2-2.1,0.1-3.2c0-1.3,0-2.5,0-3.8c0-2.5-0.1-5.1-0.4-7.6c-0.4-5-1.2-10-2.4-14.9c-0.7-2.8-1.6-5.6-2.4-8.4c0,0,0,0,0,0
	c0,0,0,0-0.1,0c0,0,0,0-0.1,0c0,0,0,0,0,0c1.3,4.9,2.3,9.8,2.9,14.8c0.7,4.9,1.1,9.9,1.3,14.9c0,1.4,0,2.7,0,4.1c0,0.6,0,1.2,0,1.8
	c-2-4.7-4.2-9.3-6.7-13.8c-4-7.1-8.5-13.9-13.6-20.3c0-0.8-0.1-1.5-0.3-2.2c-0.2-0.9-0.4-1.8-0.6-2.7c-0.4-1.8-0.9-3.6-1.4-5.4
	c-1-3.6-2.3-7.1-3.4-10.6c0-0.1-0.2,0-0.2,0c1,3.5,1.8,7.1,2.6,10.7c0.4,1.8,0.8,3.5,1.2,5.3c0.2,0.9,0.4,1.8,0.6,2.7
	c0,0.1,0,0.1,0,0.2c-1.6-2-3.2-4-4.9-6c-7.6-8.9-15.9-17.1-24.1-25.2c-1-1-2.1-2-3.1-3c0,0,0,0-0.1,0c0,0,0,0-0.1,0c0,0,0,0,0,0.1
	c0,0,0,0,0,0.1c8,8.3,15.8,16.7,23.3,25.6c1.8,2.1,3.5,4.2,5.2,6.4c-0.9-0.6-1.8-1.2-2.7-1.8c-2.3-1.5-4.6-3-7-4.3
	c-2.4-1.3-4.8-2.7-7.3-3.9c-2.5-1.2-5.3-2.3-7.7-3.7c-0.1,0-0.2,0.1,0,0.2c2.5,1.2,4.9,2.5,7.2,4c2.4,1.4,4.8,2.9,7.2,4.4
	c2.4,1.5,4.7,2.9,7,4.4c1.9,1.3,3.8,2.6,5.8,3.8c4.6,5.9,8.9,12.1,12.7,18.5c2.4,4,4.6,8.2,6.6,12.4l-1.4-0.6l-3.6-1.6l-7-3.1
	c-4.4-1.9-9-3.7-13.3-5.8c-2.5-1.2-4.8-2.5-7.1-3.9c-0.1-0.1-0.2,0-0.1,0.2c8,5.6,17.2,9.5,26.2,13.5l3.9,1.7c1.1,0.5,2.1,1,3.2,1.4
	c2.7,6,4.9,12.1,6.7,18.4c3.5,12.7,6.4,25.5,8.6,38.4c2.3,12.9,3.8,26,5,39c0.2,1.6,0.3,3.2,0.5,4.8c0,0.1,0.1,0.3,0.2,0.4
	c0.1,0.1,0.2,0.2,0.4,0.2c0.1,0,0.3-0.1,0.4-0.2c0.1-0.1,0.2-0.2,0.2-0.4C983.5,450.5,982.9,443.9,982.2,437.3z"/>
<path class="st6" d="M958.1,327.9c-0.7-4-1.8-8-2.9-11.9c0-0.1-0.2,0-0.2,0c1,3.9,1.7,7.8,2.5,11.7c0.7,3.9,1.4,8,2,12.1
	c0,0,0.1,0,0.1,0C959.3,335.8,958.8,331.8,958.1,327.9z"/>
<path class="st6" d="M941,338.8c-2.8-1.8-5.6-3.4-8.6-4.8c-1.4-0.7-2.9-1.4-4.4-2.2c-1.5-0.7-3.1-1.3-4.6-2.1c-0.1,0-0.2,0.1,0,0.2
	c1.4,0.7,2.8,1.6,4.2,2.4l4.4,2.4c2.9,1.6,5.8,3.2,8.8,4.6c0.1,0,0.1,0,0.1,0c0,0,0.1-0.1,0.1-0.1c0,0,0-0.1,0-0.1
	S941,338.8,941,338.8z"/>
<path class="st7" d="M988.6,367.8c0,0,25.1-6,36.6-22.8c11-16.1,14.5-43.4,14.8-45.8c-0.4,2.2-5.6,26.1-22.7,37.3
	C1004.3,345,991.7,352,988.6,367.8z"/>
<path class="st6" d="M1011.8,324.5c-4.5,4.1-7.7,9.4-9.2,15.2c0,0,0,0.1,0,0c1.8-5.7,5-10.9,9.3-15.1
	C1012,324.6,1011.8,324.4,1011.8,324.5z"/>
<path class="st5" d="M988.6,368.6c0,0,25.1-6,36.6-22.8c11-16.1,14.5-43.4,14.8-45.8c0-0.1,0-0.1,0-0.2c0,0-12,17.1-24.7,21.4
	C1002.7,325.6,985,340.7,988.6,368.6z"/>
<path class="st6" d="M1035.6,308.4c-2.2,4.6-4.8,9-7.7,13.3c-2.9,4-6.4,7.6-10.3,10.6c-3.4,2.7-7,5.1-10.4,7.8c0,0,0.1-0.1,0.1-0.1
	c0.6-0.9,1.3-1.9,2.1-2.8c1.4-1.8,3-3.6,4.6-5.3c3.1-3.4,6.3-6.7,9.1-10.3c1.6-2,2.9-4.2,4-6.4c0-0.1-0.1-0.2-0.2,0
	c-4,8.5-12.2,13.9-18,21c-0.8,1-1.6,2.1-2.3,3.2c-0.6,0.8-1.1,1.6-1.4,2.5c-3.2,2.5-6,5.4-8.5,8.6c0.2-1.6,0.6-3.2,1-4.8
	c0.6-2.2,1.5-4.4,2.7-6.4c0-0.1-0.1-0.2-0.1-0.1c-1.2,2-2.2,4.1-2.9,6.3c-0.5,1.8-0.8,3.6-0.9,5.4c-1.2,1.7-2.4,3.5-3.4,5.3
	c0.1-0.5,0.2-1.1,0.3-1.6c0.5-2.5,1-5,1.7-7.4c1.2-5,3.2-9.8,6-14.1c0-0.1-0.1-0.2-0.2-0.1c-2.9,4.3-5.1,8.9-6.7,13.8
	c-0.8,2.5-1.4,5-2,7.5c-0.3,1.2-0.5,2.5-0.8,3.7c-0.1,0.6-0.3,1.3-0.4,2c-2.5,5.5-4.4,11.1-5.8,17c-2.5,10.4-4.2,21-5.3,31.7
	c-1.3,11.2-1.9,22.4-1.7,33.6c0,1.4,0.1,2.8,0.2,4.2c0,0.4,0.6,0.4,0.6,0c0.2-5.6,0.4-11.1,0.7-16.7c0.3-5.6,0.8-11.1,1.4-16.6
	c1.1-10.9,2.9-21.7,5.2-32.4c2-9.2,4.7-18.4,9.6-26.4c2.5-4,5.5-7.6,9-10.7c3.5-3.2,7.4-5.9,11.1-8.8c3.7-2.8,7.1-6.1,10.1-9.7
	c3.1-4,5.8-8.4,8-12.9c0.6-1.1,1.2-2.3,1.8-3.4C1035.8,308.4,1035.7,308.3,1035.6,308.4z"/>
<path class="st5" d="M896.7,357.5c0,0-0.4,35.6,20.9,45.9c21.3,10.3,32.7,1.7,47.2,5.2c-0.6-0.9-10.9-15.7-27.3-19.8
	C920.5,384.6,901.8,372.4,896.7,357.5z"/>
<path class="st8" d="M896.7,357.5c0,0-0.4,35.6,20.9,45.9c21.3,10.3,32.7,1.7,47.2,5.2c-7.6-3.6-15.8-6-24.1-7.1
	C927.1,399.8,901.5,391.1,896.7,357.5z"/>
<path class="st6" d="M966.1,408.4c-2.5-2.3-5.4-4.2-8.5-5.7l-1.4-0.6l-0.7-0.8c-0.6-0.7-1.3-1.3-2-1.9c-1.3-1.2-2.8-2.2-4.3-3.1
	c-3.5-2.1-7.4-3.5-11-5.5c-0.1,0-0.2,0.1-0.1,0.2c1.8,0.9,3.5,1.9,5.2,3s3.4,1.9,5.1,3c1.5,1,2.9,2,4.2,3.2c0.4,0.3,0.7,0.7,1.1,1
	c-2.4-0.8-4.8-1.4-7.2-1.9c-3.9-0.8-7.8-1.4-11.7-2.2c-1.9-0.4-3.8-0.9-5.6-1.5c-1.8-1.4-3.5-2.8-5.2-4.4c-2-1.9-3.9-3.9-5.5-6.1
	c-0.1-0.1-0.2,0-0.2,0.1c2.6,3.5,5.5,6.7,8.7,9.6c-0.9-0.3-1.8-0.7-2.7-1.1c-7.3-3.3-13.6-8.5-18.1-15.1c0,0,0,0,0,0c0,0,0,0,0,0
	c0,0,0,0,0,0c0,0,0,0,0,0c0,0,0,0,0,0c0,0,0,0,0,0c0,0,0,0,0,0c0,0,0,0,0,0c3.9,5.7,8.9,10.4,14.7,14.1c2.9,1.8,6,3.3,9.3,4.4
	c3.8,1.2,7.6,2.1,11.5,2.7c3.8,0.6,7.6,1.5,11.3,2.7c3.4,1.1,6.6,2.8,9.5,5c5.4,4.2,9.8,9.6,12.8,15.8c3.8,8.2,6.2,17,7,26
	c0,0.4,0.6,0.4,0.6,0C981.7,434.3,977.7,418.8,966.1,408.4z"/>
<path class="st6" d="M941.4,396.8c-1.1-1.7-2.6-3-4.4-4c-2-1-3.8-2.5-5.2-4.3c0-0.1-0.2,0-0.2,0.1c1.3,1.6,2.8,3,4.6,4.1
	c1.9,1,3.6,2.4,5,4.1C941.4,396.9,941.5,396.9,941.4,396.8z"/>
<path class="st9" d="M952.7,434.7l1,19.6l3,59.8h44.7l3-59.8l1-19.6H952.7z"/>
<path class="st6" d="M952.7,434.7l1,19.6h50.6l1-19.6H952.7z"/>
<path class="st9" d="M949.6,445.2h58.8v-18.7h-58.8V445.2z"/>
<path class="st6" d="M13.4,514.3l130.4-0.4l130.4-0.1l260.7-0.3l260.7,0.3l130.4,0.1l130.4,0.4L926,514.7l-130.4,0.1l-260.7,0.3
	l-260.7-0.3l-130.4-0.1L13.4,514.3z"/>
<path class="st0" d="M534.8,673c274.8,0,497.5-16.8,497.5-37.5c0-20.7-222.8-37.5-497.5-37.5S37.3,614.8,37.3,635.5
	C37.3,656.2,260.1,673,534.8,673z"/>
<path class="st0" d="M906.9,64H160v499.6h746.9V64z"/>
<path class="st6" d="M901.5,70.1h-736v487.4h736V70.1z"/>
<path class="st3" d="M1004.2,601.1H62.8v34.3h941.5V601.1z"/>
<path class="st0" d="M62.8,601.1l97.3-37.5H907l97.3,37.5H62.8z"/>
<path class="st6" d="M168.7,587.8l62.8-24.2h604l62.8,24.2H168.7z"/>
<path class="st10" d="M854.8,107H202v413.4h652.8V107z"/>
<path class="st2" d="M848.3,123H207.1v75.1h641.3V123z"/>
<path class="st9" d="M859.9,107.1H207.1V123h652.8V107.1z"/>
<path class="st4" d="M220.6,115c0,0.8-0.2,1.5-0.7,2.2s-1,1.2-1.8,1.5c-0.7,0.3-1.5,0.4-2.3,0.2c-0.8-0.2-1.5-0.5-2-1.1
	c-0.6-0.6-0.9-1.3-1.1-2s-0.1-1.6,0.2-2.3c0.3-0.7,0.8-1.3,1.5-1.8c0.6-0.4,1.4-0.7,2.2-0.7c1,0,2,0.4,2.8,1.2
	C220.1,113,220.6,114,220.6,115z"/>
<path class="st10" d="M236.7,115c0,0.8-0.2,1.6-0.7,2.2c-0.4,0.7-1.1,1.2-1.8,1.5c-0.7,0.3-1.5,0.4-2.3,0.2s-1.5-0.5-2-1.1
	c-0.6-0.6-0.9-1.3-1.1-2c-0.2-0.8-0.1-1.6,0.2-2.3c0.3-0.7,0.8-1.3,1.5-1.8c0.7-0.4,1.4-0.7,2.2-0.7c1,0,2,0.4,2.8,1.2
	C236.3,113,236.7,114,236.7,115z"/>
<path class="st2" d="M252.8,115c0,0.8-0.2,1.6-0.7,2.2c-0.4,0.7-1,1.2-1.8,1.5c-0.7,0.3-1.5,0.4-2.3,0.2c-0.8-0.2-1.5-0.5-2-1.1
	c-0.6-0.6-0.9-1.3-1.1-2c-0.2-0.8-0.1-1.6,0.2-2.3c0.3-0.7,0.8-1.3,1.5-1.8c0.7-0.4,1.4-0.7,2.2-0.7c1,0,2.1,0.4,2.8,1.2
	C252.4,113,252.8,114,252.8,115z"/>
<path class="st3" d="M859.9,123h-11.6v397.5h11.6V123z"/>
<path class="st1" d="M854.1,260.8c-0.8,0-1.6-0.3-2.1-0.9s-0.9-1.3-0.9-2.1V128.3c0-0.8,0.3-1.6,0.9-2.1c0.6-0.6,1.3-0.9,2.1-0.9
	c0.8,0,1.6,0.3,2.1,0.9c0.6,0.6,0.9,1.3,0.9,2.1v129.5c0,0.8-0.3,1.6-0.9,2.1C855.7,260.5,854.9,260.8,854.1,260.8z"/>
<path class="st11" d="M371.7,317.8h116.5v-89.4H371.7V317.8z"/>
<path class="st12" d="M383.3,248c-0.4,2.2-0.2,4.5,0.8,6.6c1,2.1,2.6,3.7,4.6,4.8s4.3,1.5,6.5,1.1c2.2-0.3,4.3-1.4,5.9-3
	s2.7-3.7,3-5.9c0.3-2.2-0.1-4.5-1.1-6.5c-1.1-2-2.8-3.6-4.8-4.6s-4.4-1.3-6.6-0.8c-2.1,0.4-3.9,1.4-5.4,2.9
	C384.7,244,383.7,245.9,383.3,248z"/>
<path class="st2" d="M410.1,298.5h78.1l-39-48.1L410.1,298.5z"/>
<path class="st8" d="M410.1,298.5h78.1l-39-48.1L410.1,298.5z"/>
<path class="st2" d="M371.7,298.6h69.2l-34.6-31.3L371.7,298.6z"/>
<path class="st13" d="M371.7,298.6h69.2l-34.6-31.3L371.7,298.6z"/>
<path class="st2" d="M488.2,298.5H371.7v19.3h116.5V298.5z"/>
<path class="st13" d="M488.2,298.5H371.7v19.3h116.5V298.5z"/>
<path class="st11" d="M527.7,366h116.5V228.7H527.7V366z"/>
<path class="st12" d="M539.3,268.4c-0.4,2.2-0.2,4.5,0.8,6.6c1,2.1,2.6,3.7,4.6,4.8c2,1.1,4.3,1.5,6.5,1.1c2.2-0.3,4.3-1.4,5.9-3
	c1.6-1.6,2.7-3.7,3-5.9c0.3-2.2-0.1-4.5-1.1-6.5c-1.1-2-2.8-3.6-4.8-4.6c-2.1-1-4.4-1.3-6.6-0.8c-2,0.4-3.9,1.4-5.4,2.9
	C540.7,264.5,539.7,266.4,539.3,268.4z"/>
<path class="st14" d="M566.1,321h78.1l-39-48.1L566.1,321z"/>
<path class="st2" d="M527.7,319h69.2l-34.6-31.3L527.7,319z"/>
<path class="st2" d="M644.2,319H527.7v47h116.5V319z"/>
<path class="st4" d="M371.7,331.5c7.9-0.2,15.8-0.4,23.7-0.5l23.7-0.1l23.7,0.1c7.9,0.1,15.8,0.2,23.8,0.5
	c-7.9,0.3-15.8,0.4-23.8,0.5l-23.7,0.1l-23.7-0.1C387.5,331.8,379.6,331.7,371.7,331.5z"/>
<path class="st4" d="M371.7,341.3c5.9-0.3,11.9-0.4,17.8-0.5c6-0.1,11.9-0.1,17.8-0.1l17.8,0.1c6,0.1,11.9,0.2,17.8,0.5
	c-6,0.2-11.9,0.4-17.8,0.5l-17.8,0.1c-6,0-11.9,0-17.8-0.1C383.6,341.6,377.6,341.6,371.7,341.3z"/>
<path class="st4" d="M530.1,491.6h-3v-3h1.2v1.8h1.8V491.6z"/>
<path class="st4" d="M636.9,491.6h-4.8v-1.2h4.8V491.6z M627.3,491.6h-4.8v-1.2h4.8V491.6z M617.6,491.6h-4.8v-1.2h4.8V491.6z
	 M608,491.6h-4.8v-1.2h4.8V491.6z M598.3,491.6h-4.8v-1.2h4.8V491.6z M588.7,491.6h-4.8v-1.2h4.8V491.6z M579,491.6h-4.8v-1.2h4.8
	V491.6z M569.4,491.6h-4.8v-1.2h4.8V491.6z M559.7,491.6h-4.8v-1.2h4.8V491.6z M550.1,491.6h-4.8v-1.2h4.8V491.6z M540.4,491.6h-4.8
	v-1.2h4.8V491.6z"/>
<path class="st4" d="M644.8,491.6h-3v-1.2h1.8v-1.8h1.2V491.6z"/>
<path class="st4" d="M644.8,483.6h-1.2v-5h1.2V483.6z M644.8,473.6h-1.2v-5h1.2V473.6z M644.8,463.7h-1.2v-5h1.2V463.7z
	 M644.8,453.7h-1.2v-5h1.2V453.7z M644.8,443.8h-1.2v-5h1.2V443.8z M644.8,433.8h-1.2v-5h1.2V433.8z M644.8,423.9h-1.2v-5h1.2V423.9
	z M644.8,413.9h-1.2v-5h1.2V413.9z"/>
<path class="st4" d="M644.8,404h-1.2v-1.8h-1.8V401h3V404z"/>
<path class="st4" d="M636.9,402.2h-4.8V401h4.8V402.2z M627.3,402.2h-4.8V401h4.8V402.2z M617.6,402.2h-4.8V401h4.8V402.2z
	 M608,402.2h-4.8V401h4.8V402.2z M598.3,402.2h-4.8V401h4.8V402.2z M588.7,402.2h-4.8V401h4.8V402.2z M579,402.2h-4.8V401h4.8V402.2
	z M569.4,402.2h-4.8V401h4.8V402.2z M559.7,402.2h-4.8V401h4.8V402.2z M550.1,402.2h-4.8V401h4.8V402.2z M540.4,402.2h-4.8V401h4.8
	V402.2z"/>
<path class="st4" d="M528.3,404h-1.2v-3h3v1.2h-1.8V404z"/>
<path class="st4" d="M528.3,483.6h-1.2v-5h1.2V483.6z M528.3,473.6h-1.2v-5h1.2V473.6z M528.3,463.7h-1.2v-5h1.2V463.7z
	 M528.3,453.7h-1.2v-5h1.2V453.7z M528.3,443.8h-1.2v-5h1.2V443.8z M528.3,433.8h-1.2v-5h1.2V433.8z M528.3,423.9h-1.2v-5h1.2V423.9
	z M528.3,413.9h-1.2v-5h1.2V413.9z"/>
<path class="st4" d="M686.8,317.7h-3v-3h1.2v1.8h1.8V317.7z"/>
<path class="st4" d="M793.7,317.7h-4.8v-1.2h4.8V317.7z M784,317.7h-4.8v-1.2h4.8V317.7z M774.4,317.7h-4.8v-1.2h4.8V317.7z
	 M764.7,317.7h-4.8v-1.2h4.8V317.7z M755.1,317.7h-4.8v-1.2h4.8V317.7z M745.4,317.7h-4.8v-1.2h4.8V317.7z M735.8,317.7h-4.8v-1.2
	h4.8V317.7z M726.1,317.7h-4.8v-1.2h4.8V317.7z M716.5,317.7h-4.8v-1.2h4.8V317.7z M706.8,317.7H702v-1.2h4.8V317.7z M697.2,317.7
	h-4.8v-1.2h4.8V317.7z"/>
<path class="st4" d="M801.5,317.7h-3v-1.2h1.8v-1.8h1.2V317.7z"/>
<path class="st4" d="M801.5,309.7h-1.2v-5h1.2V309.7z M801.5,299.7h-1.2v-5h1.2V299.7z M801.5,289.8h-1.2v-5h1.2V289.8z
	 M801.5,279.8h-1.2v-5h1.2V279.8z M801.5,269.9h-1.2v-5h1.2V269.9z M801.5,260h-1.2v-5h1.2V260z M801.5,250h-1.2v-4.9h1.2V250z
	 M801.5,240h-1.2v-5h1.2V240z"/>
<path class="st4" d="M801.5,230.1h-1.2v-1.8h-1.8v-1.2h3V230.1z"/>
<path class="st4" d="M793.7,228.3h-4.8v-1.2h4.8V228.3z M784,228.3h-4.8v-1.2h4.8V228.3z M774.4,228.3h-4.8v-1.2h4.8V228.3z
	 M764.7,228.3h-4.8v-1.2h4.8V228.3z M755.1,228.3h-4.8v-1.2h4.8V228.3z M745.4,228.3h-4.8v-1.2h4.8V228.3z M735.8,228.3h-4.8v-1.2
	h4.8V228.3z M726.1,228.3h-4.8v-1.2h4.8V228.3z M716.5,228.3h-4.8v-1.2h4.8V228.3z M706.8,228.3H702v-1.2h4.8V228.3z M697.2,228.3
	h-4.8v-1.2h4.8V228.3z"/>
<path class="st4" d="M685,230.1h-1.2v-3h3v1.2H685V230.1z"/>
<path class="st4" d="M685,309.7h-1.2v-5h1.2V309.7z M685,299.7h-1.2v-5h1.2V299.7z M685,289.8h-1.2v-5h1.2V289.8z M685,279.8h-1.2
	v-5h1.2V279.8z M685,269.9h-1.2v-5h1.2V269.9z M685,260h-1.2v-5h1.2V260z M685,250h-1.2v-4.9h1.2V250z M685,240h-1.2v-5h1.2V240z"/>
<path class="st4" d="M527.7,504.6c7.9-0.3,15.8-0.4,23.7-0.5l23.7-0.1l23.7,0.1c7.9,0.1,15.8,0.2,23.7,0.5
	c-7.9,0.2-15.8,0.4-23.7,0.5l-23.7,0.1l-23.7-0.1C543.5,505,535.6,504.9,527.7,504.6z"/>
<path class="st4" d="M527.7,514.5c5.9-0.2,11.9-0.4,17.8-0.5c6-0.1,11.9-0.1,17.8-0.1l17.8,0.1c6,0.1,11.9,0.2,17.8,0.5
	c-5.9,0.3-11.9,0.4-17.8,0.5l-17.8,0.1c-5.9,0-11.9,0-17.8-0.1C539.6,514.8,533.6,514.7,527.7,514.5z"/>
<path class="st4" d="M527.7,379.7c7.9-0.2,15.8-0.4,23.7-0.5l23.7-0.1l23.7,0.1c7.9,0.1,15.8,0.2,23.7,0.5
	c-7.9,0.3-15.8,0.4-23.7,0.5l-23.7,0.1l-23.7-0.1C543.5,380.1,535.6,380,527.7,379.7z"/>
<path class="st4" d="M527.7,389.6c5.9-0.3,11.9-0.4,17.8-0.5c6-0.1,11.9-0.1,17.8-0.1l17.8,0.1c6,0.1,11.9,0.2,17.8,0.5
	c-5.9,0.2-11.9,0.4-17.8,0.5l-17.8,0.1c-5.9,0-11.9,0-17.8-0.1C539.6,389.9,533.6,389.8,527.7,389.6z"/>
<path class="st2" d="M371.7,491h116.5V353.7H371.7V491z"/>
<path class="st15" d="M371.7,491h116.5V353.7H371.7V491z"/>
<path class="st12" d="M383.3,393.4c-0.4,2.2-0.2,4.5,0.8,6.6c1,2.1,2.6,3.7,4.6,4.8c2,1.1,4.3,1.5,6.5,1.1c2.2-0.3,4.3-1.4,5.9-3
	c1.6-1.6,2.7-3.7,3-5.9c0.3-2.2-0.1-4.5-1.1-6.5c-1.1-2-2.8-3.6-4.8-4.6c-2.1-1-4.4-1.3-6.6-0.8c-2.1,0.4-3.9,1.4-5.4,2.9
	C384.7,389.4,383.7,391.3,383.3,393.4z"/>
<path class="st2" d="M410.1,443.9h78.1l-39-48.1L410.1,443.9z"/>
<path class="st16" d="M410.1,443.9h78.1l-39-48.1L410.1,443.9z"/>
<path class="st2" d="M371.7,444h69.2l-34.6-31.3L371.7,444z"/>
<path class="st17" d="M371.7,444h69.2l-34.6-31.3L371.7,444z"/>
<path class="st18" d="M488.2,443.9H371.7v47h116.5V443.9z"/>
<path class="st4" d="M371.7,504.6c7.9-0.2,15.8-0.4,23.7-0.4l23.7-0.1l23.7,0.1c7.9,0.1,15.8,0.2,23.8,0.5
	c-7.9,0.3-15.8,0.4-23.8,0.5l-23.7,0.1l-23.7-0.1C387.5,505,379.6,504.9,371.7,504.6z"/>
<path class="st4" d="M371.7,514.5c5.9-0.3,11.9-0.4,17.8-0.5c6-0.1,11.9-0.1,17.8-0.1l17.8,0.1c6,0.1,11.9,0.2,17.8,0.5
	c-6,0.3-11.9,0.4-17.8,0.5l-17.8,0.1c-6,0-11.9,0-17.8-0.1C383.6,514.8,377.6,514.7,371.7,514.5z"/>
<path class="st4" d="M801.5,491.6h-1.4v-1.2h0.1v-3.5h1.2L801.5,491.6z M795.4,491.6h-4.8v-1.2h4.8V491.6z M785.7,491.6h-4.8v-1.2
	h4.8V491.6z M776.1,491.6h-4.8v-1.2h4.8V491.6z M766.4,491.6h-4.8v-1.2h4.8V491.6z M756.8,491.6H752v-1.2h4.8V491.6z M747.2,491.6
	h-4.8v-1.2h4.8V491.6z M737.5,491.6h-4.8v-1.2h4.8V491.6z M727.9,491.6H723v-1.2h4.8V491.6z M718.2,491.6h-4.8v-1.2h4.8V491.6z
	 M708.6,491.6h-4.8v-1.2h4.8V491.6z M698.9,491.6h-4.8v-1.2h4.8V491.6z M689.3,491.6h-4.8v-1.2h4.8V491.6z M685,489.9h-1.2V485h1.2
	V489.9z M801.5,482.1h-1.2v-4.8h1.2V482.1z M685,480.2h-1.2v-4.8h1.2V480.2z M801.5,472.4h-1.2v-4.8h1.2V472.4z M685,470.6h-1.2
	v-4.8h1.2V470.6z M801.5,462.8h-1.2v-4.8h1.2V462.8z M685,460.9h-1.2v-4.8h1.2V460.9z M801.5,453.1h-1.2v-4.8h1.2V453.1z M685,451.3
	h-1.2v-4.8h1.2V451.3z M801.5,443.5h-1.2v-4.8h1.2V443.5z M685,441.6h-1.2v-4.8h1.2V441.6z M801.5,433.8h-1.2V429h1.2V433.8z
	 M685,432h-1.2v-4.8h1.2V432z M801.5,424.2h-1.2v-4.8h1.2V424.2z M685,422.3h-1.2v-4.8h1.2V422.3z M801.5,414.5h-1.2v-4.8h1.2V414.5
	z M685,412.7h-1.2v-4.8h1.2V412.7z M801.5,404.9h-1.2V400h1.2V404.9z M685,403h-1.2v-4.8h1.2V403z M801.5,395.2h-1.2v-4.8h1.2V395.2
	z M685,393.4h-1.2v-4.8h1.2V393.4z M801.5,385.6h-1.2v-4.8h1.2V385.6z M685,383.7h-1.2v-4.8h1.2V383.7z M801.5,375.9h-1.2v-4.8h1.2
	V375.9z M685,374.1h-1.2v-4.8h1.2V374.1z M801.5,366.3h-1.2v-4.8h1.2V366.3z M685,364.4h-1.2v-4.8h1.2V364.4z M801.5,356.6h-1.2
	v-2.4h-1.3V353h2.5V356.6z M685,354.8h-1.2V353h4.3v1.2H685V354.8z M794.3,354.3h-4.8V353h4.8V354.3z M784.6,354.3h-4.8V353h4.8
	V354.3z M775,354.3h-4.8V353h4.8V354.3z M765.3,354.3h-4.8V353h4.8V354.3z M755.7,354.3h-4.8V353h4.8V354.3z M746,354.3h-4.8V353
	h4.8V354.3z M736.4,354.3h-4.8V353h4.8V354.3z M726.7,354.3h-4.8V353h4.8V354.3z M717.1,354.3h-4.8V353h4.8V354.3z M707.4,354.3
	h-4.8V353h4.8V354.3z M697.8,354.3h-4.8V353h4.8V354.3z"/>
<path class="st4" d="M684.4,504.6c7.9-0.2,15.8-0.4,23.7-0.4l23.7-0.1l23.7,0.1c7.9,0.1,15.8,0.2,23.7,0.5
	c-7.9,0.3-15.8,0.4-23.7,0.5l-23.7,0.1l-23.7-0.1C700.3,505,692.3,504.9,684.4,504.6z"/>
<path class="st4" d="M684.4,514.5c5.9-0.3,11.9-0.4,17.8-0.5c6-0.1,11.9-0.1,17.8-0.1l17.8,0.1c5.9,0.1,11.9,0.2,17.8,0.5
	c-5.9,0.3-11.9,0.4-17.8,0.5l-17.8,0.1c-5.9,0-11.9,0-17.8-0.1C696.3,514.8,690.4,514.7,684.4,514.5z"/>
<path class="st4" d="M683.7,331.5c7.9-0.2,15.8-0.4,23.7-0.5l23.7-0.1l23.8,0.1c7.9,0.1,15.8,0.2,23.7,0.5
	c-7.9,0.3-15.8,0.4-23.7,0.5l-23.8,0.1l-23.7-0.1C699.5,331.8,691.6,331.7,683.7,331.5z"/>
<path class="st4" d="M683.7,341.3c5.9-0.3,11.9-0.4,17.8-0.5c6-0.1,11.9-0.1,17.8-0.1l17.8,0.1c6,0.1,11.9,0.2,17.8,0.5
	c-6,0.2-11.9,0.4-17.8,0.5l-17.8,0.1c-6,0-11.9,0-17.8-0.1C695.6,341.6,689.7,341.6,683.7,341.3z"/>
<path class="st14" d="M302.7,267.5h-62.9v8.3h62.9V267.5z"/>
<path class="st11" d="M293.8,280.3h-54v3.9h54V280.3z"/>
<path class="st4" d="M258.1,298.9c5.9-0.3,11.9-0.4,17.8-0.5c6-0.1,11.9-0.1,17.8-0.1l17.8,0.1c6,0.1,11.9,0.2,17.8,0.5
	c-5.9,0.2-11.9,0.4-17.8,0.5l-17.8,0.1c-5.9,0-11.9,0-17.8-0.1C270,299.2,264,299.1,258.1,298.9z"/>
<path class="st4" d="M258.1,308.7c5.9-0.3,11.9-0.4,17.8-0.5c6-0.1,11.9-0.1,17.8-0.1l17.8,0.1c6,0.1,11.9,0.2,17.8,0.5
	c-5.9,0.2-11.9,0.4-17.8,0.5l-17.8,0.1c-5.9,0-11.9,0-17.8-0.1C270,309,264,309,258.1,308.7z"/>
<path class="st4" d="M258.1,318.6c5.9-0.2,11.9-0.4,17.8-0.5c6-0.1,11.9-0.1,17.8-0.1l17.8,0.1c6,0.1,11.9,0.2,17.8,0.5
	c-5.9,0.3-11.9,0.4-17.8,0.5l-17.8,0.1c-5.9,0-11.9,0-17.8-0.1C270,318.9,264,318.8,258.1,318.6z"/>
<path class="st4" d="M258.1,328.4c5.9-0.3,11.9-0.4,17.8-0.5c6-0.1,11.9-0.1,17.8-0.1l17.8,0.1c6,0.1,11.9,0.2,17.8,0.5
	c-5.9,0.2-11.9,0.4-17.8,0.5l-17.8,0.1c-5.9,0-11.9,0-17.8-0.1C270,328.8,264,328.7,258.1,328.4z"/>
<path class="st4" d="M258.1,348.1c5.9-0.2,11.9-0.4,17.8-0.5c6-0.1,11.9-0.1,17.8-0.1l17.8,0.1c6,0.1,11.9,0.2,17.8,0.5
	c-5.9,0.3-11.9,0.4-17.8,0.5l-17.8,0.1c-5.9,0-11.9,0-17.8-0.1C270,348.5,264,348.4,258.1,348.1z"/>
<path class="st4" d="M258.1,358c5.9-0.3,11.9-0.4,17.8-0.5c6-0.1,11.9-0.1,17.8-0.1l17.8,0.1c6,0.1,11.9,0.2,17.8,0.5
	c-5.9,0.2-11.9,0.4-17.8,0.5l-17.8,0.1c-5.9,0-11.9,0-17.8-0.1C270,358.3,264,358.2,258.1,358z"/>
<path class="st4" d="M258.1,367.9c5.9-0.3,11.9-0.4,17.8-0.5c6-0.1,11.9-0.1,17.8-0.1l17.8,0.1c6,0.1,11.9,0.2,17.8,0.5
	c-5.9,0.2-11.9,0.4-17.8,0.5l-17.8,0.1c-5.9,0-11.9,0-17.8-0.1C270,368.2,264,368.1,258.1,367.9z"/>
<path class="st4" d="M258.1,387.6c5.9-0.3,11.9-0.4,17.8-0.5c6-0.1,11.9-0.1,17.8-0.1l17.8,0.1c6,0.1,11.9,0.2,17.8,0.5
	c-5.9,0.3-11.9,0.4-17.8,0.5l-17.8,0.1c-5.9,0-11.9,0-17.8-0.1C270,387.9,264,387.8,258.1,387.6z"/>
<path class="st4" d="M258.1,397.4c5.9-0.3,11.9-0.4,17.8-0.5c6-0.1,11.9-0.1,17.8-0.1l17.8,0.1c6,0.1,11.9,0.2,17.8,0.5
	c-5.9,0.2-11.9,0.4-17.8,0.5l-17.8,0.1c-5.9,0-11.9,0-17.8-0.1C270,397.7,264,397.7,258.1,397.4z"/>
<path class="st4" d="M258.1,407.3c5.9-0.2,11.9-0.4,17.8-0.4c6-0.1,11.9-0.1,17.8-0.1l17.8,0.1c6,0.1,11.9,0.2,17.8,0.5
	c-5.9,0.3-11.9,0.4-17.8,0.5l-17.8,0.1c-5.9,0-11.9,0-17.8-0.1C270,407.6,264,407.5,258.1,407.3z"/>
<path class="st4" d="M239.8,417.5c5.9-0.2,11.9-0.4,17.8-0.5c6-0.1,11.9-0.1,17.8-0.1l17.8,0.1c5.9,0.1,11.9,0.2,17.8,0.5
	c-6,0.3-11.9,0.4-17.8,0.5l-17.8,0.1c-5.9,0-11.9,0-17.8-0.1C251.7,417.8,245.7,417.7,239.8,417.5z"/>
<path class="st4" d="M239.8,456.5c5.9-0.3,11.9-0.4,17.8-0.5c6-0.1,11.9-0.1,17.8-0.1l17.8,0.1c5.9,0.1,11.9,0.2,17.8,0.5
	c-6,0.2-11.9,0.4-17.8,0.5l-17.8,0.1c-5.9,0-11.9,0-17.8-0.1C251.7,456.9,245.7,456.8,239.8,456.5z"/>
<path class="st4" d="M239.8,462.7c4.8-0.2,9.6-0.4,14.3-0.5c4.8-0.1,9.6-0.1,14.3-0.1c4.8,0,9.6,0,14.3,0.1
	c4.8,0.1,9.6,0.2,14.3,0.5c-4.8,0.3-9.6,0.4-14.3,0.5c-4.8,0.1-9.6,0.1-14.3,0.1c-4.8,0-9.6,0-14.3-0.1
	C249.4,463,244.6,462.9,239.8,462.7z"/>
<path class="st10" d="M338.9,171.1c-2.2-3.2-3.3-6.9-3.3-10.8c0-13.7,15-24.7,33.5-24.7c18.5,0,33.5,11.1,33.5,24.7
	c0,13.7-15,24.8-33.5,24.8c-8.2,0.1-16.3-2.3-23.1-6.8l-11.5,2.9L338.9,171.1z"/>
<path d="M355.8,155.8v9.2h-1.1v-4.2h-5.1v4.2h-1.2v-9.2h1.2v4h5.1v-4H355.8z"/>
<path d="M364.4,164v1h-6.3v-9.2h6.2v1h-5v3.1h4.3v1h-4.3v3.2L364.4,164z"/>
<path d="M366,165v-9.2h1.2v8.2h5.2v1H366z"/>
<path d="M373.5,165v-9.2h1.2v8.2h5.1v1H373.5z"/>
<path d="M384.6,165.1c-0.6,0-1.2-0.1-1.8-0.4c-0.5-0.2-1-0.6-1.4-1.1c-0.4-0.4-0.7-0.9-0.9-1.5c-0.2-0.6-0.3-1.1-0.3-1.7
	c0-1.2,0.4-2.3,1.2-3.2c0.4-0.4,0.9-0.8,1.4-1c0.5-0.3,1.1-0.4,1.7-0.4c0.6,0,1.2,0.1,1.8,0.4c0.5,0.3,1,0.6,1.4,1.1
	c0.4,0.4,0.7,0.9,0.9,1.5c0.2,0.5,0.3,1.1,0.3,1.7c0,0.6-0.1,1.2-0.3,1.8c-0.2,0.5-0.5,1.1-0.9,1.5c-0.4,0.4-0.9,0.8-1.4,1
	C385.8,165,385.2,165.1,384.6,165.1z M381.4,160.4c0,0.5,0.1,0.9,0.2,1.4c0.1,0.4,0.4,0.8,0.6,1.2c0.3,0.3,0.6,0.6,1,0.8
	c0.4,0.2,0.9,0.3,1.3,0.3c0.5,0,0.9-0.1,1.3-0.3c0.4-0.2,0.7-0.5,1-0.8c0.3-0.3,0.5-0.7,0.6-1.2c0.1-0.4,0.2-0.9,0.2-1.3
	c0-0.5-0.1-0.9-0.2-1.4c-0.1-0.4-0.4-0.8-0.7-1.2c-0.3-0.3-0.6-0.6-1-0.8c-0.4-0.2-0.8-0.3-1.3-0.3c-0.5,0-0.9,0.1-1.3,0.3
	c-0.4,0.2-0.7,0.5-1,0.8c-0.3,0.4-0.5,0.7-0.6,1.2C381.5,159.5,381.4,159.9,381.4,160.4L381.4,160.4z"/>
<path d="M390.6,161.9v-6.2h1.1v6.2H390.6z M390.6,165v-1.6h1.1v1.6H390.6z"/>
<path class="st2" d="M703.4,437.5H537v120.6h166.3V437.5z"/>
<path class="st2" d="M595.8,425H537v12.5h62.1L595.8,425z"/>
<g class="st19">
	<path class="st18" d="M703.4,437.5H537v120.6h166.3V437.5z"/>
	<path class="st18" d="M595.8,425H537v12.5h62.1L595.8,425z"/>
</g>
<path class="st6" d="M701.9,362.8c-0.5-0.9-0.8-1.9-0.8-3c0-1,0.3-2.1,0.8-3c0.6,0.9,0.8,1.9,0.8,3
	C702.7,360.9,702.5,361.9,701.9,362.8z"/>
<path class="st6" d="M695.9,364.6c-0.9-0.5-1.7-1.2-2.2-2.2c-0.5-0.9-0.8-1.9-0.8-3c0.9,0.5,1.7,1.2,2.2,2.2
	C695.6,362.5,695.9,363.5,695.9,364.6z"/>
<path class="st6" d="M691.5,369.1c-1,0-2.1-0.2-3-0.8c-0.9-0.5-1.7-1.3-2.2-2.2c1,0,2.1,0.2,3,0.8
	C690.3,367.4,691,368.2,691.5,369.1z"/>
<path class="st6" d="M690,375.2c-0.9,0.5-1.9,0.8-3,0.8c-1,0-2.1-0.3-3-0.8c0.9-0.6,1.9-0.8,3-0.8
	C688.1,374.4,689.1,374.7,690,375.2z"/>
<path class="st6" d="M691.8,381.2c-0.5,0.9-1.3,1.7-2.2,2.2c-0.9,0.5-1.9,0.8-3,0.8c0.5-0.9,1.2-1.7,2.2-2.2
	C689.7,381.5,690.7,381.2,691.8,381.2z"/>
<path class="st6" d="M696.3,385.6c0,1-0.2,2.1-0.8,3c-0.5,0.9-1.3,1.7-2.2,2.2c0-1,0.2-2.1,0.8-3
	C694.6,386.8,695.4,386.1,696.3,385.6z"/>
<path class="st6" d="M702.4,387.1c0.5,0.9,0.8,1.9,0.8,3s-0.3,2.1-0.8,3c-0.6-0.9-0.8-1.9-0.8-3C701.6,389,701.8,388,702.4,387.1z"
	/>
<path class="st6" d="M708.4,385.4c0.9,0.5,1.7,1.3,2.2,2.2c0.5,0.9,0.8,1.9,0.8,3c-0.9-0.5-1.7-1.2-2.2-2.2
	C708.7,387.4,708.4,386.4,708.4,385.4z"/>
<path class="st6" d="M712.8,380.8c1,0,2.1,0.3,3,0.8c0.9,0.5,1.7,1.3,2.2,2.2c-1,0-2.1-0.2-3-0.8C714,382.5,713.3,381.8,712.8,380.8
	z"/>
<path class="st6" d="M714.3,374.7c0.9-0.5,1.9-0.8,3-0.8c1,0,2.1,0.3,3,0.8c-0.9,0.6-1.9,0.8-3,0.8
	C716.2,375.6,715.2,375.3,714.3,374.7z"/>
<path class="st6" d="M712.5,368.7c0.5-0.9,1.3-1.7,2.2-2.2c0.9-0.6,1.9-0.8,3-0.8c-0.5,0.9-1.2,1.7-2.2,2.2
	C714.6,368.5,713.6,368.7,712.5,368.7z"/>
<path class="st6" d="M708,364.4c0-1,0.3-2.1,0.8-3c0.5-0.9,1.3-1.6,2.2-2.2c0,1-0.2,2.1-0.8,3C709.7,363.1,708.9,363.9,708,364.4z"
	/>
<path class="st0" d="M586,464.4h116.5V375H586V464.4z"/>
<path class="st12" d="M597.6,394.5c-0.4,2.2-0.2,4.5,0.8,6.6c1,2.1,2.6,3.7,4.6,4.8s4.3,1.5,6.5,1.1c2.2-0.3,4.3-1.4,5.9-3
	c1.6-1.6,2.7-3.7,3-5.9c0.3-2.2-0.1-4.5-1.1-6.5c-1.1-2-2.8-3.6-4.8-4.6c-2.1-1-4.4-1.3-6.6-0.8c-2.1,0.4-3.9,1.4-5.4,2.9
	C599,390.6,598,392.5,597.6,394.5z"/>
<path class="st4" d="M624.4,445.1h78.1l-39-48.1L624.4,445.1z"/>
<path class="st3" d="M586,445.1h69.2l-34.6-31.3L586,445.1z"/>
<path class="st3" d="M702.5,445.1H586v19.3h116.5V445.1z"/>
<path class="st11" d="M628.6,437.7v116.5H766V437.7H628.6z"/>
<path class="st12" d="M726.2,449.3c-2.2-0.4-4.5-0.2-6.6,0.8c-2.1,1-3.7,2.6-4.8,4.6c-1.1,2-1.5,4.3-1.1,6.5c0.3,2.2,1.4,4.3,3,5.9
	c1.6,1.6,3.7,2.7,5.9,3c2.2,0.3,4.5-0.1,6.5-1.1c2-1.1,3.6-2.8,4.6-4.8s1.3-4.4,0.8-6.6c-0.4-2.1-1.4-3.9-2.9-5.4
	C730.1,450.8,728.3,449.8,726.2,449.3z"/>
<path class="st20" d="M675.7,476.1v78.1l48.1-39L675.7,476.1z"/>
<path class="st14" d="M675.6,437.7v69.2l31.3-34.6L675.6,437.7z"/>
<path class="st21" d="M675.7,554.2V437.7h-47v116.5H675.7z"/>
<path class="st2" d="M560.2,542.9h116.5V405.6H560.2V542.9z"/>
<path class="st15" d="M560.2,542.9h116.5V405.6H560.2V542.9z"/>
<path class="st12" d="M571.8,445.3c-0.4,2.2-0.2,4.5,0.8,6.6s2.6,3.7,4.6,4.8c2,1.1,4.3,1.5,6.5,1.1c2.2-0.3,4.3-1.4,5.9-3
	c1.6-1.6,2.6-3.7,3-5.9c0.3-2.2-0.1-4.5-1.1-6.5s-2.8-3.6-4.8-4.6c-2.1-1-4.4-1.2-6.6-0.8c-2,0.4-3.9,1.4-5.4,2.9
	C573.2,441.4,572.2,443.2,571.8,445.3z"/>
<path class="st2" d="M598.7,495.9h78.1l-39-48.1L598.7,495.9z"/>
<path class="st16" d="M598.7,495.9h78.1l-39-48.1L598.7,495.9z"/>
<path class="st2" d="M560.3,495.9h69.2l-34.6-31.3L560.3,495.9z"/>
<path class="st22" d="M560.3,495.9h69.2l-34.6-31.3L560.3,495.9z"/>
<path class="st18" d="M676.8,495.9H560.3v47h116.5V495.9z"/>
<path class="st2" d="M702.9,558.1H536.6l-12.8-110.6h166.3L702.9,558.1z"/>
<path class="st2" d="M581.2,436.1h-58.8l1.3,11.5h62.1L581.2,436.1z"/>
<g>
	<defs>
		<path id="SVGID_1_" d="M316.3,229.9c17.6-17.6,17.6-46.1,0-63.6c-17.6-17.6-46.1-17.6-63.6,0c-17.6,17.6-17.6,46.1,0,63.6
			C270.2,247.4,298.7,247.4,316.3,229.9z"/>
	</defs>
	<clipPath id="SVGID_00000008122354033538624950000010115757288968828053_">
		<use xlink:href="#SVGID_1_"  style="overflow:visible;"/>
	</clipPath>
	
		<rect x="234.4" y="132.1" style="clip-path:url(#SVGID_00000008122354033538624950000010115757288968828053_);fill:#B889DD;" width="100" height="117.4"/>
	<g style="clip-path:url(#SVGID_00000008122354033538624950000010115757288968828053_);">
		<path class="st25" d="M261,175.1c0,0,12.4-18,23.3-18.6c10.8-0.6,24.4,19.2,24.4,19.2s2.7,28.4,5.1,40.8c0,0-1,1.2,0.7,10.9
			c3,17.5-35.2,16.8-51.4,13.8c-22-4.1,0.7-26.1-5.7-36.3C254.4,200.1,261,175.1,261,175.1z"/>
		<g>
			<path class="st26" d="M295.6,228.4c-1.8-2.3-1.3-11.9-1-13c-0.1,0-5.2,0.2-5.3,0.2c-1.6,0.7-3.3,1-5,1.1c-1.7-0.1-3.3-0.5-5-1.1
				c-0.1,0-5.6-0.8-5.7-0.8c0.3,1.1,1,11.3-0.8,13.6c-0.5,0.6,6.8,3.6,11.5,3.6C289.2,232,296.1,229,295.6,228.4z"/>
			<g>
				<path class="st27" d="M306.8,188.8c-1.7-0.7-4.6,0.7-5.7,3.9v8.6c0.9,0.8,3-0.2,4.6-3c1.4-2.6,2.6-2.3,3-4.3
					C309.3,190.7,308.3,189.5,306.8,188.8z"/>
				<path class="st26" d="M302.4,197.9c1.5,0.3,7.8-7.9,1-6.2C301.4,192.2,301.3,197.7,302.4,197.9z"/>
			</g>
			<g>
				<path class="st27" d="M262.1,188.8c1.7-0.7,4.6,0.7,5.7,3.9v8.6c-0.9,0.8-3-0.2-4.6-3c-1.4-2.6-2.6-2.3-3-4.3
					C259.5,190.7,260.6,189.5,262.1,188.8z"/>
				<path class="st26" d="M266.4,197.9c-1.5,0.3-7.8-7.9-1-6.2C267.5,192.2,267.5,197.7,266.4,197.9z"/>
			</g>
			<path class="st28" d="M304,176.7c-1.4-1.3-13-11-18.5-11.9c-0.2,0-0.5-0.1-0.7-0.1c-0.1,0-0.1,0-0.2,0c0,0,0,0.1,0,0.1
				c0,0,0,0.1,0,0.1s-0.1-0.1-0.1-0.1c0,0-0.1-0.1-0.2-0.1c-0.1,0-0.2,0-0.2,0c-0.3,0-0.5,0-0.7,0.1c-5.5,0.9-17.1,10.6-18.5,11.9
				c-5,3.7,1.9,17.6,1.9,17.6c0.4,3.5-0.1,14.7,2.1,19.1c2.1,4.1,10,9.3,15.5,9.3c4.8,0,13.6-5.1,15.7-9.2c2.3-4.4,1.5-15.8,2-19.3
				C302.1,194.3,309,180.4,304,176.7z"/>
			<path class="st29" d="M304.1,176.7c-1-0.9-10.9-2.8-19.5-2.7c-8.6,0-18.7,1.9-19.7,2.7c-5,3.7,2.2,16.9,2.2,16.9
				c0.4,3.5,1.9,6,2.5,6.9c2.4,3.9,28.1,4.7,30.1,0.5c0.3-0.6,1.5-4,2-7.5C301.7,193.6,309.1,180.4,304.1,176.7z"/>
			<g>
				<path class="st28" d="M298.8,177.3c0.8,0.4,1.4,1.4,1.9,2.7c0.1,0.3,0.2,0.7,0.3,1c0.2,0.7,0.4,1.5,0.5,2.4
					c1.1,6.2,0,8.6-0.1,9.8l0.5,1.1c0,0,4.5-7.4,4.5-13c0-12.1-4.7-8.5-6.8-10.3c-0.1,0-0.1-0.1-0.2-0.1l0,0.1L298.8,177.3z"/>
				<path class="st28" d="M270.1,177.5c-0.8,0.4-1.6,1.3-2.1,2.6c-0.1,0.3-0.2,0.7-0.3,1c-0.2,0.7-0.4,1.5-0.5,2.4
					c-1.1,6.2,0,8.6,0.1,9.8l-0.5,1.1c0,0-5.9-6.1-4.5-20.5c0.7-7.3,8.9-6.2,9-6.2L270.1,177.5z"/>
			</g>
		</g>
		<g>
			<path class="st28" d="M299.3,186.8c-0.8-0.3-10.3-0.5-11.3-0.5c-0.7,0-0.8-3.5-0.6-3.5c4.3,0.4,9.1,1,9.9,1.4
				C297.9,184.5,299.6,187,299.3,186.8z"/>
			<path class="st28" d="M269.2,187.7c0.8-0.4,10.2-1,11.2-1.1c0.7-0.1,0.6-3.5,0.4-3.5c-4.3,0.6-9,1.4-9.8,1.9
				C270.5,185.2,268.9,187.8,269.2,187.7z"/>
			<g>
				<path class="st27" d="M284.6,198.8c-1.2,0-2.9,1.6-3.3,2.2c0.3,1.1,2.5,2.4,3.3,2.4c0.4,0,3-1.3,3.3-2.4
					C287.5,200.4,285.4,198.8,284.6,198.8z"/>
				<path class="st26" d="M284.6,202.6c-0.9,0-2.9-0.8-3.3-1.6c0.4,1.4,2.7,2.4,3.3,2.4c0.5,0,3-1.3,3.3-2.4
					C287.5,201.8,285.5,202.6,284.6,202.6z"/>
			</g>
			<path class="st30" d="M291.7,206.8c-1.1,1.9-4.7,4.4-7.3,4.4c-2.8,0-7.5-4.5-7.7-5.2C280.6,207.8,288.4,208.6,291.7,206.8z"/>
			<g>
				<path class="st28" d="M271.1,193.4c0.8,0.8,2,1.3,3.2,1.6c1.2,0.3,2.5,0.4,3.7,0.3c0.8-0.1,1.5-0.2,2.2-0.5
					c0.1,0,0.2-1.6,0.2-2.3c-0.2-0.3-0.7-1.1-1.2-1.4c-0.9-0.7-2.2-1.3-3.4-1.3c-0.4,0-0.8,0-1.2,0.1l0,0c-1.4,0.3-2.6,1-3.3,2
					C271.3,191.9,270.7,193,271.1,193.4z"/>
				<path class="st10" d="M271.1,193.8c0.8,0.8,2,1.3,3.2,1.6c1.2,0.3,2.5,0.4,3.7,0.3c0.8-0.1,1.5-0.2,2.2-0.5c0.1,0,0.2-2,0.2-2.7
					c-0.3-0.3-0.7-0.7-1.2-1c-0.9-0.7-2.2-1.3-3.4-1.3c-0.4,0-0.8,0-1.2,0.1l0,0c-1.4,0.3-2.6,1-3.3,2
					C271.3,192.3,270.7,193.4,271.1,193.8z"/>
				<path class="st31" d="M273.2,193c0,1,0.4,1.8,1.1,2.4c1.2,0.3,2.5,0.4,3.7,0.3c0.9-0.6,1.5-1.5,1.5-2.7c0-0.5-0.1-1-0.4-1.5
					c-0.9-0.7-2.2-1.3-3.4-1.3c-0.4,0-0.8,0-1.2,0.1l0,0C273.8,190.9,273.2,191.9,273.2,193z"/>
				<g class="st19">
					<path class="st32" d="M273.2,192.8c1.8-1.1,4.1-1.1,6.3,0c0-0.3-0.2-1-0.4-1.4c-0.9-0.7-2.1-1.2-3.3-1.2
						c-0.4,0-0.8,0.1-1.2,0.1C274.6,190.3,273.4,191,273.2,192.8z"/>
				</g>
			</g>
			<g>
				<g>
					<g>
						<path class="st28" d="M297.7,193.4c-0.8,0.8-2,1.3-3.2,1.6c-1.2,0.3-2.5,0.4-3.7,0.3c-0.8-0.1-1.5-0.2-2.2-0.5
							c-0.1,0-0.2-1.6-0.2-2.3c0.2-0.3,0.5-0.9,1.2-1.4c1-0.7,2.2-1.3,3.4-1.3c0.4,0,0.8,0,1.2,0.1l0,0c1.4,0.3,2.6,1,3.3,2
							C297.6,191.9,298.1,193,297.7,193.4z"/>
					</g>
				</g>
				<g>
					<g>
						<path class="st10" d="M297.7,193.8c-0.8,0.8-2,1.3-3.2,1.6c-1.2,0.3-2.5,0.4-3.7,0.3c-0.8-0.1-1.5-0.2-2.2-0.5
							c-0.1,0-0.2-2-0.2-2.7c0.3-0.3,0.7-0.7,1.2-1c0.9-0.7,2.2-1.3,3.4-1.3c0.4,0,0.8,0,1.2,0.1l0,0c1.4,0.3,2.6,1,3.3,2
							C297.6,192.3,298.1,193.4,297.7,193.8z"/>
					</g>
				</g>
				<g>
					<path class="st31" d="M295.6,193c0,1-0.4,1.8-1.1,2.4c-1.2,0.3-2.5,0.4-3.7,0.3c-0.9-0.6-1.5-1.5-1.5-2.7c0-0.5,0.1-1,0.4-1.5
						c0.9-0.7,2.2-1.3,3.4-1.3c0.4,0,0.8,0,1.2,0.1l0,0C295.1,190.9,295.6,191.9,295.6,193z"/>
				</g>
				<g class="st19">
					<path class="st32" d="M295.6,192.8c-1.8-1.1-4.1-1.1-6.3,0c0-0.3,0.2-1,0.4-1.4c0.9-0.7,2.1-1.2,3.3-1.2c0.4,0,0.8,0.1,1.2,0.1
						C294.2,190.3,295.5,191,295.6,192.8z"/>
				</g>
			</g>
		</g>
		<path class="st26" d="M284.3,158.2c17.2,0.4,24.4,19.2,24.4,19.2c14.3,15.8-1.8,16.7-9.9,8.4c-7.1-7.4-23.9-6.4-31.7,2.3
			c-8.3,9.2-18.5,3.8-6.3-10.9C260.9,177.1,266.8,157.8,284.3,158.2z"/>
		<path class="st10" d="M296.3,228.9c0,0,12,3.2,23.2,6.8c-9,9.2-21.6,15-35.5,15c-13.3,0-25.4-5.3-34.3-13.8
			c10.7-4.1,22.8-7.9,22.8-7.9c0.2-1.3,0.5-2.6,1-3.9c4.1,2.4,16.4,3.1,21.6-0.2C296,226.3,296.3,228.9,296.3,228.9L296.3,228.9
			L296.3,228.9z"/>
		<path class="st25" d="M284.8,250.7c-0.2,0-0.5,0-0.7,0c-0.2,0-0.3,0-0.5,0l-0.7-18.3c-3.9-0.4-8.2-1.6-9.9-3.1
			c4.6,2,11.8,2.1,11.8,2.1L284.8,250.7z"/>
		<path class="st10" d="M284.3,156.5c17.2,0.4,24.4,19.2,24.4,19.2c14.3,15.8,2.5,26.4,6.6,41.8c0.8,2.9,3.5,17.5,0.4,20.8
			l-10.2-3.2c7.3-2.7,1.6-11.2,1.6-24c0-8.5-3-20.3-11-28.7c-7.1-7.4-18.2-6.9-26.1,1.8c-8.3,9.2-9.2,18.2-9,27.8
			c0.3,10.7-4.7,21.8,0.9,23.7c0,1.2-7,4-8.3,3.7c-8.5-9.8,0.5-20.3-0.1-24.5c-1.8-13.1-5-24.8,7.3-39.5
			C260.9,175.5,266.8,156.1,284.3,156.5z"/>
		<path class="st33" d="M308.1,171.3L308.1,171.3c1.4-0.3,1.1-3.2-1.6-3.5c-15-1.8-27.9-2.1-44.5-0.2c-2.5,0.9-2.8,2.9-1.3,3.7l0,0
			c-2.2,1-1.3,3.9,0.2,4.2l-0.7,0.8c15.9-1,33.1-0.8,49.1,0.2l-0.6-0.7C309.9,175.9,311.3,172,308.1,171.3z"/>
		<path class="st34" d="M308.1,171.3L308.1,171.3c1.4-0.3,1.1-3.2-1.6-3.5c-15-1.8-27.9-2.1-44.5-0.2c-2.5,0.9-2.8,2.9-1.3,3.7l0,0
			c-2.2,1-1.3,3.9,0.2,4.2c16.9-1.1,30.9-0.8,47.8,0.3C309.9,175.9,311.3,172,308.1,171.3z"/>
	</g>
</g>
<path class="st6" d="M763.9,250.9c2.9-0.5,5.8-0.6,8.7-0.8c2.9-0.2,5.7-0.4,8.6-0.5c5.8-0.3,11.6-0.8,17.4-0.7c0,0,0,0,0.1,0
	c0,0,0,0,0,0.1c0,0,0,0,0,0.1c0,0,0,0-0.1,0c-5.8,0.9-11.6,1.2-17.5,1.5c-2.9,0.2-5.8,0.3-8.8,0.4c-2.8,0.2-5.7,0.2-8.5,0
	C763.8,251.1,763.8,250.9,763.9,250.9z"/>
<path class="st11" d="M708.1,322.7h116.5v-89.4H708.1V322.7z"/>
<path class="st12" d="M719.7,252.9c-0.4,2.2-0.2,4.5,0.8,6.6c1,2.1,2.6,3.7,4.6,4.8c2,1.1,4.3,1.5,6.5,1.1c2.2-0.3,4.3-1.4,5.9-3
	s2.6-3.7,3-5.9c0.3-2.2-0.1-4.5-1.1-6.5c-1.1-2-2.8-3.6-4.8-4.6s-4.4-1.2-6.6-0.8c-2,0.4-3.9,1.4-5.4,2.9
	C721.1,248.9,720.1,250.8,719.7,252.9z"/>
<path class="st2" d="M746.5,303.5h78.1l-39-48.1L746.5,303.5z"/>
<path class="st8" d="M746.5,303.5h78.1l-39-48.1L746.5,303.5z"/>
<path class="st2" d="M708.1,303.5h69.2l-34.6-31.3L708.1,303.5z"/>
<path class="st18" d="M708.1,303.5h69.2l-34.6-31.3L708.1,303.5z"/>
<path class="st2" d="M824.6,303.5H708.1v19.3h116.5V303.5z"/>
<path class="st18" d="M824.6,303.5H708.1v19.3h116.5V303.5z"/>
<g>
	<polygon class="st35" points="875.5,290.5 861.4,374.2 875,397.7 876.8,392.3 	"/>
	<g>
		<g>
			<g>
				<polygon class="st36" points="881.2,385 876.8,394.1 875.6,290.9 				"/>
				<g>
					<path class="st37" d="M964.5,287.3c0,0-45.3,22.4-66.3-5.5v-49l55.5,4.6L964.5,287.3z"/>
					<g>
						
							<rect x="915.8" y="262.3" transform="matrix(-1 -1.224647e-16 1.224647e-16 -1 1853.5081 541.9384)" class="st38" width="22" height="17.4"/>
						<path class="st38" d="M921.1,263.9h10.1c12.1,0,22-9.9,22-22v-32.3c0-12.1-9.9-22-22-22h-10.1c-12.1,0-22,9.9-22,22v32.3
							C899.1,254,909,263.9,921.1,263.9z"/>
						<ellipse class="st38" cx="954.6" cy="224.4" rx="6.9" ry="8.7"/>
						<ellipse class="st39" cx="934.4" cy="216.7" rx="2.8" ry="5.8"/>
						<ellipse class="st39" cx="909.7" cy="216.7" rx="2.8" ry="5.8"/>
						<path class="st40" d="M929.8,233.8H916C916,233.8,919.3,240.8,929.8,233.8z"/>
						<g class="st41">
							<path class="st39" d="M938.1,208.8h-8c-0.8,0-1.5-0.7-1.5-1.5s0.7-1.5,1.5-1.5h8c0.8,0,1.5,0.7,1.5,1.5
								S939,208.8,938.1,208.8z"/>
						</g>
						<g class="st41">
							<path class="st39" d="M914.1,208.8h-7c-0.8,0-1.5-0.7-1.5-1.5s0.7-1.5,1.5-1.5h7c0.8,0,1.5,0.7,1.5,1.5
								S915,208.8,914.1,208.8z"/>
						</g>
						<polygon class="st42" points="953.1,214.5 953.1,238.8 949.1,238.8 949.1,210.1 						"/>
						<polygon class="st42" points="901.1,206.3 901.1,238.8 899.1,238.8 899.1,210.1 						"/>
						<path class="st42" d="M953.2,238.8h-55c0,0-2.5,23.8,21.4,25.9C944.9,266.9,953.2,259.8,953.2,238.8z"/>
						<path class="st10" d="M936.7,241.8H911C911,241.8,924.9,262.8,936.7,241.8z"/>
					</g>
				</g>
				<g>
					<path class="st43" d="M906.3,636.7l-0.1,20.6L854,657c0.1-7.5,5.3-9.8,7.2-10.5c0,0,0,0,0,0l0.7-0.2c0,0,0,0,0,0l5.8-1.5
						l15.8-8.2L906.3,636.7z"/>
					
						<rect x="854" y="657.1" transform="matrix(1 3.784346e-03 -3.784346e-03 1 2.5038 -3.3259)" class="st44" width="52.2" height="5.6"/>
					<path class="st44" d="M874.3,648.6L874.3,648.6c-0.2,0.3-0.7,0.3-1,0.1l-3.2-2.7c-0.3-0.2-0.3-0.7-0.1-1l0,0
						c0.2-0.3,0.7-0.3,1-0.1l3.2,2.7C874.5,647.9,874.6,648.3,874.3,648.6z"/>
					<path class="st44" d="M878.9,646.6L878.9,646.6c-0.2,0.3-0.7,0.3-1,0.1l-3.2-2.7c-0.3-0.2-0.3-0.7-0.1-1l0,0
						c0.2-0.3,0.7-0.3,1-0.1l3.2,2.7C879.1,645.9,879.2,646.3,878.9,646.6z"/>
					<path class="st44" d="M883.5,644.6L883.5,644.6c-0.2,0.3-0.7,0.3-1,0.1l-3.2-2.7c-0.3-0.2-0.3-0.7-0.1-1l0,0
						c0.2-0.3,0.7-0.3,1-0.1l3.2,2.7C883.7,643.8,883.8,644.3,883.5,644.6z"/>
				</g>
				<path class="st45" d="M942.3,636.8c0,0-1.8,8.1-6.8,12.8c-4.9,4.7-4.8,11.2,3.8,12.2h28.7c0,0,6.3-5.5,0-14.3l-5.6-10.7H942.3z"
					/>
				<path class="st46" d="M941.6,649.8c0,0,10.8-4.2,22.3,0C963.8,649.8,955,631.2,941.6,649.8z"/>
				<rect x="932.5" y="658.2" class="st44" width="38.4" height="5.8"/>
				<path class="st47" d="M977,636.8L977,636.8c-0.3,0-5.8,0.2-14.5,0.4c-5.7,0.2-12.6,0.3-20.3,0.4c-11.2,0.1-23.8,0.1-35.9-0.2
					c-5.2-0.1-10.2-0.4-15.1-0.7c-12-0.7-22.5-1.9-29.3-3.8l15.1-216.5l-0.3-22.4l-1.2-103.2l0-0.3c0,0,8.7-5.6,21.9-9.2
					c4.2-1.2,8.9-2.1,13.9-2.7c1.5-0.2,2.9-0.3,4.5-0.3c1.1-0.1,2.3-0.1,3.4-0.1c0.9,0,1.7-0.2,2.6-0.3c0.6-0.1,1.1-0.2,1.7-0.2
					h12.7c0,0,0.6,0,1.6,0c0.9,0,2.1,0.1,3.6,0.2c5.3,0.6,13.9,2.7,21.8,9.8c1.4,1.2,2.7,2.6,4,4.1c1,1.2,2,2.6,2.9,4.1c0,0,0,0,0,0
					c1.2,1.9,2.4,4.1,3.5,6.3l-12.2,75.9L977,636.8z"/>
				<polygon class="st47" points="940.1,278.9 940.1,270.8 911.1,271 911.1,279.7 				"/>
				<path class="st48" d="M901.8,193c12.2,12.9,30.1,4.3,36.6,3.1c6.5-1.2,5.3,19.5,5.1,30.4c-0.2,10.8,1.4,19.5,1.4,19.5l5.1-26.7
					l-5.9-27.5l-30.4-2.2L901.8,193z"/>
				<g>
					<defs>
						<path id="SVGID_00000120519450009602652140000008878912501638272944_" d="M892.1,187.6C892.1,187.6,892.1,187.6,892.1,187.6
							c0-2.9,0.4-5.8,1.2-8.3c6.9-20.4,41.4-22.6,56.2-10.6c7.2,5.8,11.6,15.3,11.7,24.6c0,0.1,0.1,0.2,0.1,0.3l2.6,93.8
							c0,0-19-8.8-19-34.6c0-23.7,4.6-56.9-5-58.9h-2.8c0,0-20.5,6.6-30.8-0.3l-0.3,0.6c-1.5,4.5-9.1,28.7-8,69.9l-0.8,17.9
							C897.3,281.8,889.6,198.9,892.1,187.6z"/>
					</defs>
					<clipPath id="SVGID_00000133507731874613586920000009066967186178222007_">
						<use xlink:href="#SVGID_00000120519450009602652140000008878912501638272944_"  style="overflow:visible;"/>
					</clipPath>
					<g style="clip-path:url(#SVGID_00000133507731874613586920000009066967186178222007_);">
						
							<rect x="863.8" y="274.6" transform="matrix(-1 -1.224647e-16 1.224647e-16 -1 1847.713 554.6719)" class="st50" width="120" height="5.5"/>
						
							<rect x="863.8" y="269" transform="matrix(-1 -1.224647e-16 1.224647e-16 -1 1847.713 543.6171)" class="st51" width="120" height="5.5"/>
						
							<rect x="863.8" y="263.5" transform="matrix(-1 -1.224647e-16 1.224647e-16 -1 1847.713 532.5621)" class="st50" width="120" height="5.5"/>
						
							<rect x="863.8" y="258" transform="matrix(-1 -1.224647e-16 1.224647e-16 -1 1847.713 521.5073)" class="st51" width="120" height="5.5"/>
						
							<rect x="863.8" y="252.5" transform="matrix(-1 -1.224647e-16 1.224647e-16 -1 1847.713 510.4524)" class="st50" width="120" height="5.5"/>
						
							<rect x="863.8" y="246.9" transform="matrix(-1 -1.224647e-16 1.224647e-16 -1 1847.713 499.3974)" class="st51" width="120" height="5.5"/>
						
							<rect x="863.8" y="241.4" transform="matrix(-1 -1.224647e-16 1.224647e-16 -1 1847.713 488.3425)" class="st50" width="120" height="5.5"/>
						
							<rect x="863.8" y="235.9" transform="matrix(-1 -1.224647e-16 1.224647e-16 -1 1847.713 477.2876)" class="st51" width="120" height="5.5"/>
						
							<rect x="863.8" y="230.4" transform="matrix(-1 -1.224647e-16 1.224647e-16 -1 1847.713 466.2327)" class="st50" width="120" height="5.5"/>
						
							<rect x="863.8" y="224.8" transform="matrix(-1 -1.224647e-16 1.224647e-16 -1 1847.713 455.1778)" class="st51" width="120" height="5.5"/>
						
							<rect x="863.8" y="219.3" transform="matrix(-1 -1.224647e-16 1.224647e-16 -1 1847.713 444.1228)" class="st50" width="120" height="5.5"/>
						
							<rect x="863.8" y="213.8" transform="matrix(-1 -1.224647e-16 1.224647e-16 -1 1847.713 433.0679)" class="st51" width="120" height="5.5"/>
						
							<rect x="863.8" y="208.2" transform="matrix(-1 -1.224647e-16 1.224647e-16 -1 1847.713 422.013)" class="st50" width="120" height="5.5"/>
						
							<rect x="863.8" y="202.7" transform="matrix(-1 -1.224647e-16 1.224647e-16 -1 1847.713 410.9581)" class="st51" width="120" height="5.5"/>
						
							<rect x="863.8" y="197.2" transform="matrix(-1 -1.224647e-16 1.224647e-16 -1 1847.713 399.9032)" class="st50" width="120" height="5.5"/>
						
							<rect x="863.8" y="191.7" transform="matrix(-1 -1.224647e-16 1.224647e-16 -1 1847.713 388.8482)" class="st51" width="120" height="5.5"/>
						
							<rect x="863.8" y="186.1" transform="matrix(-1 -1.224647e-16 1.224647e-16 -1 1847.713 377.7933)" class="st50" width="120" height="5.5"/>
						
							<rect x="863.8" y="180.6" transform="matrix(-1 -1.224647e-16 1.224647e-16 -1 1847.713 366.7384)" class="st51" width="120" height="5.5"/>
						
							<rect x="863.8" y="175.1" transform="matrix(-1 -1.224647e-16 1.224647e-16 -1 1847.713 355.6835)" class="st50" width="120" height="5.5"/>
						
							<rect x="863.8" y="169.6" transform="matrix(-1 -1.224647e-16 1.224647e-16 -1 1847.713 344.6286)" class="st51" width="120" height="5.5"/>
						
							<rect x="863.8" y="164" transform="matrix(-1 -1.224647e-16 1.224647e-16 -1 1847.713 333.5735)" class="st50" width="120" height="5.5"/>
						
							<rect x="863.8" y="158.5" transform="matrix(-1 -1.224647e-16 1.224647e-16 -1 1847.713 322.5186)" class="st51" width="120" height="5.5"/>
						
							<rect x="900.4" y="219.8" transform="matrix(-1.836970e-16 1 -1 -1.836970e-16 1194.3425 -750.2197)" class="st52" width="143.9" height="4.6"/>
						
							<rect x="895.7" y="219.8" transform="matrix(-1.836970e-16 1 -1 -1.836970e-16 1189.7307 -745.6078)" class="st53" width="143.9" height="4.6"/>
						
							<rect x="891.1" y="219.8" transform="matrix(-1.836970e-16 1 -1 -1.836970e-16 1185.1189 -740.996)" class="st52" width="143.9" height="4.6"/>
						
							<rect x="886.5" y="219.8" transform="matrix(-1.836970e-16 1 -1 -1.836970e-16 1180.507 -736.3842)" class="st53" width="143.9" height="4.6"/>
						
							<rect x="881.9" y="219.8" transform="matrix(-1.836970e-16 1 -1 -1.836970e-16 1175.8951 -731.7723)" class="st52" width="143.9" height="4.6"/>
						
							<rect x="877.3" y="219.8" transform="matrix(-1.836970e-16 1 -1 -1.836970e-16 1171.2833 -727.1604)" class="st53" width="143.9" height="4.6"/>
						
							<rect x="872.7" y="219.8" transform="matrix(-1.836970e-16 1 -1 -1.836970e-16 1166.6714 -722.5485)" class="st52" width="143.9" height="4.6"/>
						
							<rect x="868.1" y="219.8" transform="matrix(-1.836970e-16 1 -1 -1.836970e-16 1162.0594 -717.9366)" class="st53" width="143.9" height="4.6"/>
						
							<rect x="863.5" y="219.8" transform="matrix(-1.836970e-16 1 -1 -1.836970e-16 1157.4476 -713.3248)" class="st52" width="143.9" height="4.6"/>
						
							<rect x="858.8" y="219.8" transform="matrix(-1.836970e-16 1 -1 -1.836970e-16 1152.8358 -708.713)" class="st53" width="143.9" height="4.6"/>
						
							<rect x="854.2" y="219.8" transform="matrix(-1.836970e-16 1 -1 -1.836970e-16 1148.2239 -704.101)" class="st52" width="143.9" height="4.6"/>
						
							<rect x="849.6" y="219.8" transform="matrix(-1.836970e-16 1 -1 -1.836970e-16 1143.6121 -699.4892)" class="st53" width="143.9" height="4.6"/>
						
							<rect x="845" y="219.8" transform="matrix(-1.836970e-16 1 -1 -1.836970e-16 1139.0002 -694.8773)" class="st52" width="143.9" height="4.6"/>
						
							<rect x="840.4" y="219.8" transform="matrix(-1.836970e-16 1 -1 -1.836970e-16 1134.3883 -690.2654)" class="st53" width="143.9" height="4.6"/>
						
							<rect x="835.8" y="219.8" transform="matrix(-1.836970e-16 1 -1 -1.836970e-16 1129.7765 -685.6536)" class="st52" width="143.9" height="4.6"/>
						
							<rect x="831.2" y="219.8" transform="matrix(-1.836970e-16 1 -1 -1.836970e-16 1125.1646 -681.0417)" class="st53" width="143.9" height="4.6"/>
						
							<rect x="826.6" y="219.8" transform="matrix(-1.836970e-16 1 -1 -1.836970e-16 1120.5527 -676.4298)" class="st52" width="143.9" height="4.6"/>
						
							<rect x="822" y="219.8" transform="matrix(-1.836970e-16 1 -1 -1.836970e-16 1115.9408 -671.818)" class="st53" width="143.9" height="4.6"/>
						
							<rect x="817.3" y="219.8" transform="matrix(-1.836970e-16 1 -1 -1.836970e-16 1111.329 -667.2061)" class="st52" width="143.9" height="4.6"/>
						
							<rect x="812.7" y="219.8" transform="matrix(-1.836970e-16 1 -1 -1.836970e-16 1106.717 -662.5942)" class="st53" width="143.9" height="4.6"/>
						
							<rect x="808.1" y="219.8" transform="matrix(-1.836970e-16 1 -1 -1.836970e-16 1102.1052 -657.9823)" class="st52" width="143.9" height="4.6"/>
						
							<rect x="803.5" y="219.8" transform="matrix(-1.836970e-16 1 -1 -1.836970e-16 1097.4933 -653.3705)" class="st53" width="143.9" height="4.6"/>
					</g>
				</g>
				<g>
					<path class="st54" d="M961.4,190.2c-0.3,0-0.5-0.1-0.8-0.2c-0.3-0.2-32.2-18.9-67.8-1c-0.8,0.4-1.7,0.1-2.1-0.7
						c-0.4-0.8-0.1-1.7,0.7-2.1c37.2-18.6,70.5,1,70.8,1.2c0.7,0.4,1,1.4,0.5,2.1C962.5,190,962,190.2,961.4,190.2z"/>
				</g>
				<g>
					<path class="st54" d="M961.4,184.8c-0.3,0-0.5-0.1-0.8-0.2c-0.3-0.2-32.2-18.9-67.8-1c-0.8,0.4-1.7,0.1-2.1-0.7
						c-0.4-0.8-0.1-1.7,0.7-2.1c37.2-18.6,70.5,1,70.8,1.2c0.7,0.4,1,1.4,0.5,2.1C962.5,184.5,962,184.8,961.4,184.8z"/>
				</g>
				<path class="st55" d="M926.1,270.9V281c0,0-4,6.7-4,14.9v19h-5v-19.6c0,0,0-9.5,4.5-14.6l0.4-9.7L926.1,270.9z"/>
				<path class="st36" d="M947.1,389.1v247.7l29.5-0.1l-15.5-258.5l12.2-75.8c-1.9-3.9-4.4-7.2-6.7-9.9L947.1,389.1z"/>
			</g>
		</g>
	</g>
	<g>
		<polygon class="st56" points="834.2,335.8 796.9,278.8 849.4,278.8 884.4,335.8 		"/>
	</g>
	<g>
		<polygon class="st57" points="829.4,335.8 792.2,278.8 844.7,278.8 879.7,335.8 		"/>
	</g>
	<g>
		<path class="st58" d="M842.6,309.1c0,3.5-2.8,6.3-6.3,6.3c-3.5,0-6.3-2.8-6.3-6.3c0-3.5,2.8-6.3,6.3-6.3
			C839.8,302.8,842.6,305.6,842.6,309.1z"/>
	</g>
	<g class="st59">
		<polygon class="st60" points="792.2,278.8 873.3,335.8 829.5,335.8 		"/>
	</g>
	<g>
		<path class="st38" d="M820.9,326.4l-9.4-7.1c-2.1-2.6-2.5-6.2-1-9.2l3.1-6.4c0,0,19.3-8.8,15.5,2.3c-3.8,11.1-8,16.4-8,16.4l4.7,8
			L820.9,326.4z"/>
	</g>
	<path class="st47" d="M834.2,335.8c0,0,14.1,58.1,27.2,67.7c0,0,15.8,7.7,13.5-12c-2.4-21-28.1-55.6-28.1-55.6H834.2z"/>
	<g>
		<path class="st61" d="M954.5,281.8c0,0,27.6,1.8,18.5,32.8l-63.9,65.2l-84.9-1v-17l71.2-2.9C895.3,358.8,937.4,310.9,954.5,281.8z
			"/>
	</g>
	<g>
		<path class="st62" d="M823.5,385.3c-0.3,0-0.6-0.1-0.8-0.3l-100.9-70.6c-0.6-0.5-0.8-1.3-0.4-2c0.5-0.6,1.3-0.8,2-0.4l100.9,70.6
			c0.6,0.5,0.8,1.3,0.4,2C824.4,385,823.9,385.3,823.5,385.3z"/>
	</g>
	<g>
		<path class="st38" d="M824.1,361.8l-35.2-0.8c0,0,0.7,5.1,8.3,6.5c0,0-0.1,11.6,6.1,14.9c6.2,3.3,23.6-3.6,23.6-3.6L824.1,361.8z"
			/>
	</g>
	<g>
		<path class="st63" d="M814,361.5l-17.1-9.5c0,0-3.4,3.9,3.1,9.2L814,361.5z"/>
	</g>
	<polygon class="st64" points="967.7,337.7 914.4,388.2 876.7,389.1 876.8,379.3 909.2,379.7 973,314.5 	"/>
</g>
</svg>
