<svg width="32" height="32" viewBox="0 0 32 32" fill="none" xmlns="http://www.w3.org/2000/svg">
<rect width="32" height="32" rx="7" fill="#0066FF"/>
<path d="M10.4545 21H7.00426V10.8182H10.5241C11.535 10.8182 12.4034 11.022 13.1293 11.4297C13.8584 11.834 14.4186 12.4157 14.8097 13.1747C15.2008 13.9337 15.3963 14.8419 15.3963 15.8991C15.3963 16.9598 15.1991 17.8712 14.8047 18.6335C14.4136 19.3958 13.8485 19.9808 13.1094 20.3885C12.3736 20.7962 11.4886 21 10.4545 21ZM8.84872 19.4041H10.3651C11.0743 19.4041 11.666 19.2749 12.1399 19.0163C12.6139 18.7545 12.9702 18.3651 13.2088 17.848C13.4474 17.3277 13.5668 16.678 13.5668 15.8991C13.5668 15.1203 13.4474 14.474 13.2088 13.9602C12.9702 13.4432 12.6172 13.0571 12.1499 12.8018C11.6858 12.5433 11.1091 12.4141 10.4197 12.4141H8.84872V19.4041ZM25.864 14.2536H24.0046C23.9516 13.9486 23.8538 13.6785 23.7113 13.4432C23.5688 13.2045 23.3915 13.0024 23.1793 12.8366C22.9672 12.6709 22.7253 12.5466 22.4535 12.4638C22.185 12.3776 21.895 12.3345 21.5835 12.3345C21.0299 12.3345 20.5394 12.4737 20.1119 12.7521C19.6843 13.0272 19.3496 13.4316 19.1076 13.9652C18.8656 14.4955 18.7447 15.1435 18.7447 15.9091C18.7447 16.688 18.8656 17.3442 19.1076 17.8778C19.3529 18.4081 19.6876 18.8092 20.1119 19.081C20.5394 19.3494 21.0283 19.4837 21.5785 19.4837C21.8834 19.4837 22.1684 19.4439 22.4336 19.3643C22.7021 19.2815 22.9424 19.1605 23.1545 19.0014C23.3699 18.8423 23.5505 18.6468 23.6964 18.4148C23.8455 18.1828 23.9483 17.9176 24.0046 17.6193L25.864 17.6293C25.7944 18.1132 25.6436 18.5672 25.4116 18.9915C25.1829 19.4157 24.8829 19.7902 24.5117 20.1151C24.1405 20.4366 23.7063 20.6884 23.2092 20.8707C22.712 21.0497 22.1602 21.1392 21.5536 21.1392C20.6587 21.1392 19.86 20.9321 19.1573 20.5178C18.4547 20.1035 17.9012 19.5052 17.4968 18.723C17.0924 17.9408 16.8903 17.0028 16.8903 15.9091C16.8903 14.812 17.0941 13.8741 17.5018 13.0952C17.9094 12.313 18.4646 11.7147 19.1673 11.3004C19.8699 10.8861 20.6654 10.679 21.5536 10.679C22.1204 10.679 22.6474 10.7585 23.1346 10.9176C23.6218 11.0767 24.056 11.3104 24.4371 11.6186C24.8183 11.9235 25.1315 12.2981 25.3768 12.7422C25.6254 13.183 25.7878 13.6868 25.864 14.2536Z" fill="white"/>
</svg>
