<svg width="92" height="111" viewBox="0 0 92 111" fill="none" xmlns="http://www.w3.org/2000/svg">
<path d="M91.494 55.4622C91.494 69.5979 83.489 87.426 71.335 98.717C71.331 98.722 71.327 98.726 71.322 98.729C70.289 99.69 69.227 100.601 68.135 101.46C68.004 101.564 67.872 101.668 67.74 101.771C65.0686 103.854 62.1542 105.605 59.0609 106.986C56.912 107.938 54.6693 108.661 52.3696 109.145C50.3543 109.567 48.3009 109.781 46.2418 109.783C45.3544 109.783 44.4727 109.743 43.5966 109.664C35.0594 108.898 27.1567 104.486 20.5339 98.141C8.7234 86.824 0.985401 69.3583 0.985401 55.4608C0.985401 37.1236 14.4535 21.6225 32.9804 16.5165C34.1557 16.1908 35.3517 15.9091 36.5683 15.6712C39.5022 15.0995 42.4814 14.7911 45.4702 14.7495C45.6888 14.7495 45.9087 14.7495 46.1286 14.7495H46.2379C47.9232 14.7495 49.5857 14.8316 51.2254 14.9957C51.3689 15.0076 51.5124 15.0234 51.6546 15.0392C74.095 17.4355 91.494 34.6206 91.494 55.4622Z" fill="#EEF3FF"/>
<path d="M51.2966 41.9465L46.2471 40.4218L45.2162 30.2019L47.0872 28.0307L47.947 24.8641L50.3709 24.6192L51.6033 22.3466L50.9555 19.9134L50.1998 19.1853L51.232 14.9601L35.1068 13.6882L34.1628 14.2109L32.0061 18.3874L30.8408 23.1248L31.8296 27.1749L33.6703 29.6699L36.3142 31.4L37.3057 31.3L38.1246 40.7457L31.141 40.4245L37.5453 47.7385L51.3914 48.1256L51.2966 41.9465Z" fill="white"/>
<path d="M49.309 41.2093C48.0661 40.8696 47.0456 40.6062 46.2477 40.4193C46.0976 37.347 45.754 33.9404 45.2168 30.1993C46.1613 29.3531 46.7849 28.6303 47.0878 28.0307C47.3906 27.4312 47.6706 26.381 47.9278 24.88C50.5427 24.8238 51.744 23.7397 51.5315 21.6278C51.3191 19.5159 50.0397 18.6951 47.6934 19.1656" stroke="#1D252E" stroke-width="4" stroke-linecap="round" stroke-linejoin="round"/>
<path d="M33.0915 16.5533C31.2762 19.5799 30.574 22.1593 30.9848 24.2914C32.0768 28.5811 34.2901 30.9976 37.6248 31.541L38.1264 40.7497L34.6096 40.5575" stroke="#1D252E" stroke-width="4" stroke-linecap="round" stroke-linejoin="round"/>
<path d="M43.5928 109.665L52.3657 109.147C50.3504 109.569 48.297 109.782 46.238 109.784C45.3505 109.784 44.4688 109.744 43.5928 109.665Z" fill="#1D252E"/>
<path d="M50.5138 17.8858C49.3622 17.4118 48.2606 17.2972 47.209 17.5421" stroke="#1D252E" stroke-width="4" stroke-linecap="round" stroke-linejoin="round"/>
<path d="M51.0371 16.7416C49.2684 16.1483 47.7704 15.9135 46.5433 16.0372C46.3774 15.4895 46.1733 14.8777 45.9311 14.2018C43.5075 17.2968 39.5751 17.4149 34.1337 14.556C25.9704 10.2663 34.4339 -3.776 42.6354 1.3129C45.59 3.201 47.2754 4.8047 47.6914 6.124C49.9342 6.2232 51.3215 6.8952 51.8534 8.1399C52.9059 9.8041 52.6338 12.6714 51.0371 16.7416Z" fill="#1D252E"/>
<path d="M68.135 101.46C68.004 101.564 67.872 101.668 67.74 101.771C65.0686 103.853 62.1541 105.605 59.0608 106.986C56.9119 107.937 54.6693 108.661 52.3695 109.145C50.3542 109.567 48.3008 109.781 46.2418 109.783C45.3543 109.783 44.4726 109.743 43.5966 109.664C35.0593 108.898 27.1567 104.486 20.5338 98.141C20.5926 95.946 20.6392 93.868 20.6734 91.907C20.7208 89.066 20.7419 86.461 20.7366 84.093C5.2473 81.944 12.9683 61.4556 12.9683 61.4556C12.9683 61.4556 14.8393 49.5424 20.1151 43.3791C22.5497 41.0091 28.1297 39.3672 31.8335 40.2441C31.9651 40.2731 32.0876 40.306 32.21 40.3429C32.2245 40.3863 32.2403 40.4311 32.2561 40.4745C33.0567 42.7458 34.3628 44.2297 37.6966 45.3278C38.7708 45.6716 39.8647 45.9504 40.9725 46.1625C44.7908 46.9262 48.2141 45.513 51.2425 41.9229C51.3539 41.7912 51.4645 41.6569 51.5743 41.52C57.8469 42.8445 62.5737 44.389 65.232 45.5753C65.9111 45.8606 66.5618 46.2093 67.175 46.6168C68.241 47.3831 66.8647 57.6386 65.5665 64.8197C64.8647 68.7052 65.2584 71.1002 65.0016 71.1937L66.7738 91.771L66.7936 91.902L67.057 93.785L68.135 101.46Z" fill="#5271ff"/>
<path d="M66.2487 90.421L64.9834 71.195" stroke="#1D252E" stroke-width="4" stroke-linecap="round" stroke-linejoin="round"/>
<path d="M21.7478 82.312C25.5661 82.039 35.9678 50.26 37.5965 45.4923C37.5965 45.4923 47.3701 27.3855 38.2786 29.5462C31.2462 31.217 32.0823 34.7352 32.4181 36.4969C32.7867 38.4258 30.9184 42.6299 30.9184 42.6299C30.9184 42.6299 21.8795 60.2324 22.019 61.8677C15.7412 72.089 16.3732 78.506 21.7478 82.312Z" fill="white"/>
<path d="M21.748 82.312C25.5664 82.039 35.968 50.26 37.5968 45.4923C37.5968 45.4923 47.3704 27.3855 38.2788 29.5462C31.2465 31.217 32.0826 34.7352 32.4183 36.4969C32.787 38.4258 30.9186 42.6299 30.9186 42.6299C30.9186 42.6299 21.8797 60.2324 22.0193 61.8677" stroke="#1D252E" stroke-width="4" stroke-linecap="round" stroke-linejoin="round"/>
<path d="M58.9743 32.3178C59.4721 32.2654 59.9348 32.0368 60.2789 31.6733C60.623 31.3097 60.8258 30.8351 60.8508 30.3352C60.8757 29.8352 60.7211 29.3428 60.415 28.9468C60.1088 28.5508 59.6711 28.2773 59.181 28.1756C59.2321 27.7724 59.1832 27.3628 59.0385 26.9829C58.8939 26.6031 58.6579 26.2648 58.3514 25.9978C58.045 25.7308 57.6775 25.5433 57.2814 25.452C56.8854 25.3607 56.4729 25.3683 56.0805 25.4742C55.6881 25.5801 55.3278 25.7809 55.0314 26.0591C54.7351 26.3372 54.5117 26.684 54.3812 27.0689C54.2506 27.4539 54.2169 27.865 54.2829 28.266C54.3489 28.6671 54.5126 29.0457 54.7596 29.3685C54.5183 29.7458 54.4173 30.196 54.4742 30.6402C54.531 31.0845 54.7422 31.4947 55.0708 31.7991C55.3993 32.1035 55.8244 32.2828 56.2717 32.3057C56.719 32.3285 57.1602 32.1935 57.518 31.9241C57.9375 32.232 58.4568 32.3724 58.9743 32.3178Z" fill="#5271ff"/>
<path d="M48.4991 34.1822C48.642 34.4329 48.8697 34.6243 49.1412 34.7221C49.4127 34.8198 49.7102 34.8174 49.9801 34.7154C50.25 34.6133 50.4746 34.4182 50.6134 34.1652C50.7523 33.9123 50.7963 33.618 50.7375 33.3355C50.8425 33.3028 50.9436 33.2587 51.039 33.2039C51.2021 33.1111 51.3454 32.9871 51.4606 32.839C51.5758 32.6909 51.6607 32.5215 51.7105 32.3405C51.7603 32.1596 51.7739 31.9706 51.7506 31.7844C51.7274 31.5982 51.6676 31.4183 51.5749 31.2552C51.4821 31.0921 51.3581 30.9488 51.21 30.8336C51.0618 30.7184 50.8925 30.6334 50.7115 30.5837C50.5306 30.5339 50.3416 30.5203 50.1554 30.5436C49.9691 30.5668 49.7893 30.6266 49.6262 30.7193C49.3986 30.8483 49.2112 31.0379 49.085 31.2671C48.8383 31.2277 48.5854 31.2741 48.3688 31.3987C48.199 31.495 48.0578 31.6345 47.9596 31.8031C47.8613 31.9718 47.8096 32.1634 47.8096 32.3586C47.8096 32.5537 47.8613 32.7454 47.9596 32.914C48.0578 33.0826 48.199 33.2222 48.3688 33.3184C48.3029 33.6125 48.3494 33.9206 48.4991 34.1822Z" fill="#5271ff"/>
<path d="M56.1924 15.9516C56.1916 15.1624 56.3646 14.3827 56.6991 13.6679C57.0335 12.9531 57.5213 12.3208 58.1277 11.8157C58.734 11.3106 59.4442 10.9452 60.2077 10.7454C60.9712 10.5457 61.7693 10.5165 62.5453 10.6599C62.9765 9.5858 63.7825 8.7044 64.8138 8.1791C65.8451 7.6537 67.032 7.51999 68.154 7.80279C68.925 7.22479 69.812 6.8191 70.753 6.6134C71.694 6.4076 72.669 6.4065 73.611 6.6102C74.553 6.8138 75.44 7.2174 76.212 7.7936C76.984 8.3699 77.624 9.10539 78.087 9.95019H78.133C79.064 9.94919 79.984 10.1412 80.837 10.5142C81.689 10.8872 82.455 11.4329 83.086 12.117C83.716 12.8011 84.198 13.6086 84.501 14.4885C84.803 15.3683 84.92 16.3014 84.844 17.2287C84.767 18.156 84.499 19.0573 84.056 19.8757C83.614 20.6941 83.006 21.4117 82.272 21.9832C81.537 22.5547 80.693 22.9676 79.791 23.1958C78.889 23.4241 77.949 23.4626 77.031 23.3091C76.115 24.564 74.792 25.4626 73.288 25.8524C71.783 26.2423 70.19 26.0991 68.78 25.4474C67.14 25.9119 65.3856 25.7367 63.8703 24.9573C62.355 24.1779 61.192 22.8524 60.6164 21.2486C59.3751 21.0242 58.252 20.3708 57.4434 19.4027C56.6348 18.4345 56.192 17.213 56.1924 15.9516Z" fill="#5271ff"/>
<path d="M76.619 10.7956C76.199 9.5566 74.839 7.0589 70.81 7.8423" stroke="white" stroke-width="4" stroke-linecap="round" stroke-linejoin="round"/>
<path d="M83.47 16.1715C83.288 14.6639 81.732 11.974 78.664 11.4776" stroke="white" stroke-width="4" stroke-linecap="round" stroke-linejoin="round"/>
<path d="M56.2158 26.3309C56.7201 26.1729 58.2224 26.5863 58.3541 27.8227" stroke="white" stroke-width="4" stroke-linecap="round" stroke-linejoin="round"/>
<path d="M50.9788 31.5449C50.5627 31.1288 49.8701 31.2697 49.6621 31.5238" stroke="white" stroke-width="4" stroke-linecap="round" stroke-linejoin="round"/>
<path d="M76.82 90.921C75.128 92.755 73.214 96.392 72.233 97.563C69.905 100.343 69.66 101.943 67.625 104.338C66.9162 105.169 66.0854 106.099 65.1808 106.796C64.7883 107.099 64.3697 107.367 63.93 107.596C63.8293 107.65 63.7255 107.698 63.6192 107.74C63.2707 107.893 62.9051 108.002 62.5304 108.067C61.8831 108.172 61.22 108.115 60.6001 107.901C60.055 107.715 59.5033 107.343 59.0386 106.968C59.0228 106.954 59.0056 106.931 58.9885 106.915C53.7745 101.79 62.8872 93.686 64.9254 94.898C65.2914 94.274 65.6456 93.668 66.0182 93.035L65.9958 93.071C66.5225 92.168 65.6324 93.694 66.4395 92.321C67.247 90.948 65.7127 93.561 67.735 90.114C69.758 86.667 74.318 78.87 76.733 74.509C76.566 73.482 75.884 72.85 75.564 72.2049C75.244 71.5597 75.023 71.3569 74.735 70.7776C75.222 66.85 76.507 59.5688 81.346 58.9355C82.585 58.7736 83.285 59.4622 83.951 60.3628C85.858 62.9434 86.52 65.3793 87.401 68.9922C87.415 69.0567 86.76 66.1614 87.486 69.4939C88.213 72.8263 80.018 87.451 76.82 90.921Z" fill="white"/>
<path d="M85.231 64.0771C85.889 66.0152 86.691 66.7289 87.276 68.6854C87.86 70.642 86.607 65.5333 87.434 69.3438C88.261 73.1542 79.975 87.241 76.825 90.932C75.16 92.883 73.202 96.343 72.229 97.544C69.917 100.4 69.655 101.908 67.621 104.338C66.9135 105.181 66.0801 106.089 65.1769 106.796C64.7849 107.1 64.3662 107.367 63.926 107.596C63.8256 107.65 63.7218 107.699 63.6153 107.74C63.2668 107.893 62.9012 108.002 62.5264 108.067C61.8792 108.173 61.2158 108.116 60.5962 107.901C60.0271 107.68 59.4996 107.365 59.0359 106.968L58.9793 106.917C53.7785 101.782 62.8779 93.689 64.9227 94.898C65.2835 94.281 65.6495 93.655 66.0077 93.045C66.034 92.999 65.9879 93.077 65.9892 93.075C66.5159 92.173 65.635 93.681 66.4329 92.324C67.231 90.966 65.7272 93.527 67.73 90.117C69.733 86.707 74.37 78.78 76.683 74.5801" stroke="#1D252E" stroke-width="4" stroke-linecap="round" stroke-linejoin="round"/>
<path d="M55.8412 55.3647C57.5529 61.0935 69.154 69.8836 74.538 72.5854C80.056 70.4603 85.125 64.3615 83.805 58.4971C82.484 52.6326 70.248 47.549 65.6596 45.6227C62.0532 45.0539 54.6865 50.9183 55.8412 55.3647Z" fill="#5271ff"/>
<path d="M57.6143 59.7321C62.5267 65.0541 68.178 68.3207 71.452 69.5492" stroke="#1D252E" stroke-width="4" stroke-linecap="round" stroke-linejoin="round"/>
<path d="M14.6387 81.194C18.9376 84.571 22.012 84.88 24.465 81.347" stroke="#1D252E" stroke-width="4" stroke-linecap="round" stroke-linejoin="round"/>
<path d="M24.3604 89.892C31.7798 91.25 26.3459 94.699 34.8107 96.371" stroke="#1D252E" stroke-width="4" stroke-linecap="round" stroke-linejoin="round"/>
</svg>
