<svg width="20" height="21" viewBox="0 0 20 21" fill="none" xmlns="http://www.w3.org/2000/svg">
<g id="file-upload">
<g id="Vector">
<path fill-rule="evenodd" clip-rule="evenodd" d="M11.6666 2.32397C12.0118 2.32397 12.2916 2.6038 12.2916 2.94897V6.28231C12.2916 6.33756 12.3136 6.39055 12.3526 6.42962C12.3917 6.46869 12.4447 6.49064 12.5 6.49064H15.8333C16.1785 6.49064 16.4583 6.77046 16.4583 7.11564C16.4583 7.46082 16.1785 7.74064 15.8333 7.74064H12.5C12.1132 7.74064 11.7423 7.587 11.4688 7.31351C11.1953 7.04001 11.0416 6.66908 11.0416 6.28231V2.94897C11.0416 2.6038 11.3214 2.32397 11.6666 2.32397Z" fill="#111827"/>
<path fill-rule="evenodd" clip-rule="evenodd" d="M5.83329 3.57397C5.55703 3.57397 5.29207 3.68372 5.09672 3.87907C4.90137 4.07442 4.79163 4.33937 4.79163 4.61564V16.2823C4.79163 16.5586 4.90137 16.8235 5.09672 17.0189C5.29207 17.2142 5.55703 17.324 5.83329 17.324H14.1666C14.4429 17.324 14.7078 17.2142 14.9032 17.0189C15.0985 16.8235 15.2083 16.5586 15.2083 16.2823V7.37452L11.4077 3.57397H5.83329ZM4.21284 2.99519C4.64261 2.56542 5.22551 2.32397 5.83329 2.32397H11.6666C11.8324 2.32397 11.9914 2.38982 12.1086 2.50703L16.2752 6.6737C16.3924 6.79091 16.4583 6.94988 16.4583 7.11564V16.2823C16.4583 16.8901 16.2169 17.473 15.7871 17.9028C15.3573 18.3325 14.7744 18.574 14.1666 18.574H5.83329C5.2255 18.574 4.64261 18.3325 4.21284 17.9028C3.78307 17.473 3.54163 16.8901 3.54163 16.2823V4.61564C3.54163 4.00785 3.78307 3.42496 4.21284 2.99519Z" fill="#111827"/>
<path fill-rule="evenodd" clip-rule="evenodd" d="M9.99996 15.2406C9.65478 15.2406 9.37496 14.9608 9.37496 14.6156L9.37496 9.61564C9.37496 9.27046 9.65478 8.99064 9.99996 8.99064C10.3451 8.99064 10.625 9.27046 10.625 9.61564L10.625 14.6156C10.625 14.9608 10.3451 15.2406 9.99996 15.2406Z" fill="#111827"/>
<path fill-rule="evenodd" clip-rule="evenodd" d="M12.9419 12.5576C12.6978 12.8017 12.3021 12.8017 12.058 12.5576L9.99996 10.4995L7.9419 12.5576C7.69782 12.8017 7.3021 12.8017 7.05802 12.5576C6.81394 12.3135 6.81394 11.9178 7.05802 11.6737L9.55802 9.1737C9.8021 8.92962 10.1978 8.92962 10.4419 9.1737L12.9419 11.6737C13.186 11.9178 13.186 12.3135 12.9419 12.5576Z" fill="#111827"/>
</g>
</g>
</svg>
