<svg width="11" height="10" viewBox="0 0 11 10" fill="none" xmlns="http://www.w3.org/2000/svg">
<path d="M0.5 1C0.5 0.867392 0.552679 0.740215 0.646447 0.646447C0.740215 0.552679 0.867392 0.5 1 0.5H10C10.1326 0.5 10.2598 0.552679 10.3536 0.646447C10.4473 0.740215 10.5 0.867392 10.5 1C10.5 1.13261 10.4473 1.25979 10.3536 1.35355C10.2598 1.44732 10.1326 1.5 10 1.5H1C0.867392 1.5 0.740215 1.44732 0.646447 1.35355C0.552679 1.25979 0.5 1.13261 0.5 1ZM1 4.5C0.867392 4.5 0.740215 4.55268 0.646447 4.64645C0.552679 4.74021 0.5 4.86739 0.5 5C0.5 5.13261 0.552679 5.25979 0.646447 5.35355C0.740215 5.44732 0.867392 5.5 1 5.5H10C10.1326 5.5 10.2598 5.44732 10.3536 5.35355C10.4473 5.25979 10.5 5.13261 10.5 5C10.5 4.86739 10.4473 4.74021 10.3536 4.64645C10.2598 4.55268 10.1326 4.5 10 4.5H1ZM1 8.5C0.867392 8.5 0.740215 8.55268 0.646447 8.64645C0.552679 8.74021 0.5 8.86739 0.5 9C0.5 9.13261 0.552679 9.25979 0.646447 9.35355C0.740215 9.44732 0.867392 9.5 1 9.5H10C10.1326 9.5 10.2598 9.44732 10.3536 9.35355C10.4473 9.25979 10.5 9.13261 10.5 9C10.5 8.86739 10.4473 8.74021 10.3536 8.64645C10.2598 8.55268 10.1326 8.5 10 8.5H1Z" fill="#AEAEAE"/>
</svg>
