<svg width="133" height="111" viewBox="0 0 133 111" fill="none" xmlns="http://www.w3.org/2000/svg">
<path d="M67.2 101.6C95.2 101.6 117.9 78.9 117.9 50.8C117.9 22.7 95.2 0 67.2 0C39.2 0 16.5 22.7 16.5 50.8C16.5 78.9 39.2 101.6 67.2 101.6Z" fill="#EAEEF9"/>
<path d="M123.7 29.9C125.964 29.9 127.8 28.0643 127.8 25.7999C127.8 23.5356 125.964 21.7 123.7 21.7C121.435 21.7 119.6 23.5356 119.6 25.7999C119.6 28.0643 121.435 29.9 123.7 29.9Z" fill="#EAEEF9"/>
<path d="M129.7 13.8C131.247 13.8 132.5 12.5463 132.5 11C132.5 9.45355 131.247 8.19995 129.7 8.19995C128.154 8.19995 126.9 9.45355 126.9 11C126.9 12.5463 128.154 13.8 129.7 13.8Z" fill="#EAEEF9"/>
<path d="M13.0002 32.7999C14.5466 32.7999 15.8002 31.5463 15.8002 30C15.8002 28.4536 14.5466 27.2 13.0002 27.2C11.4538 27.2 10.2002 28.4536 10.2002 30C10.2002 31.5463 11.4538 32.7999 13.0002 32.7999Z" fill="#EAEEF9"/>
<path d="M18.2 93.7C21.0719 93.7 23.4 91.3719 23.4 88.5C23.4 85.6282 21.0719 83.3 18.2 83.3C15.3281 83.3 13 85.6282 13 88.5C13 91.3719 15.3281 93.7 18.2 93.7Z" fill="#EAEEF9"/>
<g filter="url(#filter0_d_1658_16955)">
<path d="M114.2 30.5H27.4996C25.5996 30.5 24.0996 29 24.0996 27.1V7.59995C24.0996 5.69995 25.5996 4.19995 27.4996 4.19995H114.1C116 4.19995 117.5 5.69995 117.5 7.59995V27.1C117.6 29 116 30.5 114.2 30.5Z" fill="white"/>
</g>
<path d="M45.0996 17.2999C45.0996 19.4999 44.0996 21.4999 42.5996 22.8999C41.2996 24.0999 39.4996 24.7999 37.5996 24.7999C35.6996 24.7999 33.8996 24.0999 32.5996 22.8999C30.9996 21.4999 30.0996 19.4999 30.0996 17.2999C30.0996 13.1999 33.4996 9.79993 37.5996 9.79993C41.6996 9.79993 45.0996 13.1999 45.0996 17.2999Z" fill="#DCE1EE"/>
<path d="M42.5996 22.9C41.2996 24.1 39.4996 24.8 37.5996 24.8C35.6996 24.8 33.8996 24.1 32.5996 22.9C33.1996 22.7 33.8996 22.4 34.7996 22C34.9996 21.9 35.1996 21.7 35.2996 21.5C35.3996 21.4 35.3996 21.2 35.3996 21.1V19.2L35.2996 19.1C35.0996 18.9 34.9996 18.6 34.9996 18.3L34.7996 18.2C34.2996 18.3 34.3996 17.8 34.1996 16.8C34.1996 16.4 34.1996 16.3 34.3996 16.2L34.5996 16C33.6996 13.9 34.0996 12.6 35.0996 12.1C34.7996 11.4 34.7996 11.2 34.7996 11.2C34.7996 11.2 36.7996 11.5 37.3996 11.4C38.2996 11.2 39.5996 11.4 40.0996 12.6C40.8996 12.9 41.1996 13.4 41.2996 14C41.3996 14.9 40.8996 15.9 40.7996 16.2C40.8996 16.3 40.9996 16.4 40.8996 16.7C40.7996 17.6 40.7996 18.2 40.2996 18.1L39.8996 19C39.8996 19.1 39.8996 19.1 39.8996 19.2C39.8996 19.3 39.8996 19.6 39.8996 21.2C39.8996 21.4 39.9996 21.6 39.9996 21.7C40.0996 21.9 40.2996 22 40.3996 22.1C41.2996 22.4 41.9996 22.7 42.5996 22.9Z" fill="white"/>
<path d="M40.8255 16.3C40.8255 16.0918 40.7214 15.7796 40.6173 15.5714V15.4673C40.201 14.6347 39.3684 14.3224 38.5357 14.3224C36.4541 14.2183 36.2459 14.6347 35.5173 14.0102C35.7255 14.3224 35.7255 14.8428 35.4132 15.4673C35.2051 15.8836 34.7888 16.0918 34.3724 16.1959C33.4357 14.0102 33.852 12.6571 34.8928 12.1367C34.5806 11.4081 34.5806 11.2 34.5806 11.2C34.5806 11.2 36.6622 11.5122 37.2867 11.4081C38.2235 11.2 39.5765 11.4081 40.0969 12.6571C40.9296 12.9693 41.2418 13.4898 41.3459 14.1142C41.45 14.8428 40.9296 15.8836 40.8255 16.3Z" fill="#A2ABBC"/>
<path d="M39.9998 21.7V22.1H35.2998V21.6C35.3998 21.5 35.3998 21.3 35.3998 21.2V19.3L35.2998 19.2V19.1C35.3998 19.3 35.4998 19.4 35.6998 19.6L37.1998 20.6C37.4998 20.9 37.9998 20.9 38.3998 20.6L39.7998 19.4L39.8998 19.3C39.8998 19.4 39.8998 19.7 39.8998 21.3C39.7998 21.4 39.8998 21.5 39.9998 21.7Z" fill="url(#paint0_linear_1658_16955)"/>
<path d="M69.6992 15.1H50.4992C49.9992 15.1 49.6992 14.7 49.6992 14.3V11.8C49.6992 11.3 50.0992 11 50.4992 11H69.6992C70.1992 11 70.4992 11.4 70.4992 11.8V14.3C70.4992 14.8 70.1992 15.1 69.6992 15.1Z" fill="#CED6E2"/>
<path d="M92.4992 23.6H50.4992C49.9992 23.6 49.6992 23.2 49.6992 22.8V20.3C49.6992 19.8 50.0992 19.5 50.4992 19.5H92.4992C92.9992 19.5 93.2992 19.9 93.2992 20.3V22.8C93.2992 23.3 92.8992 23.6 92.4992 23.6Z" fill="#CED6E2"/>
<g filter="url(#filter1_d_1658_16955)">
<path d="M114.2 96.1H27.4996C25.5996 96.1 24.0996 94.6 24.0996 92.7V73.2C24.0996 71.3 25.5996 69.8 27.4996 69.8H114.1C116 69.8 117.5 71.3 117.5 73.2V92.7C117.6 94.6 116 96.1 114.2 96.1Z" fill="white"/>
</g>
<path d="M45.0996 82.9C45.0996 85.1 44.0996 87.1 42.5996 88.5C41.2996 89.7 39.4996 90.4 37.5996 90.4C35.6996 90.4 33.8996 89.7 32.5996 88.5C30.9996 87.1 30.0996 85.1 30.0996 82.9C30.0996 78.8 33.4996 75.4 37.5996 75.4C41.6996 75.4 45.0996 78.8 45.0996 82.9Z" fill="#DCE1EE"/>
<path d="M42.5996 88.5C41.2996 89.7 39.4996 90.4 37.5996 90.4C35.6996 90.4 33.8996 89.7 32.5996 88.5C33.1996 88.3 33.8996 88 34.7996 87.6C34.9996 87.5 35.1996 87.3 35.2996 87.1C35.3996 87 35.3996 86.8 35.3996 86.7V84.8L35.2996 84.7C35.0996 84.5 34.9996 84.2 34.9996 83.9L34.7996 83.8C34.2996 83.9 34.3996 83.4 34.1996 82.4C34.1996 82 34.1996 81.9 34.3996 81.8L34.5996 81.6C33.6996 79.5 34.0996 78.2 35.0996 77.7C34.7996 77 34.7996 76.8 34.7996 76.8C34.7996 76.8 36.7996 77.1 37.3996 77C38.2996 76.8 39.5996 77 40.0996 78.2C40.8996 78.5 41.1996 79 41.2996 79.6C41.3996 80.5 40.8996 81.5 40.7996 81.8C40.8996 81.9 40.9996 82 40.8996 82.3C40.7996 83.2 40.7996 83.8 40.2996 83.7L39.8996 84.5C39.8996 84.6 39.8996 84.6 39.8996 84.7C39.8996 84.8 39.8996 85.1 39.8996 86.7C39.8996 86.9 39.9996 87.1 39.9996 87.2C40.0996 87.4 40.2996 87.5 40.3996 87.6C41.2996 88.1 41.9996 88.3 42.5996 88.5Z" fill="white"/>
<path d="M40.8255 81.9001C40.8255 81.6919 40.7214 81.3796 40.6173 81.1715V81.0674C40.201 80.2347 39.3684 79.9225 38.5357 79.9225C36.4541 79.8184 36.2459 80.2347 35.5173 79.6103C35.7255 79.9225 35.7255 80.4429 35.4132 81.0674C35.2051 81.4837 34.7888 81.6919 34.3724 81.796C33.4357 79.6103 33.852 78.2572 34.8928 77.7368C34.5806 77.0082 34.5806 76.8 34.5806 76.8C34.5806 76.8 36.6622 77.1123 37.2867 77.0082C38.2235 76.8 39.5765 77.0082 40.0969 78.2572C40.9296 78.5694 41.2418 79.0899 41.3459 79.7143C41.45 80.547 40.9296 81.4837 40.8255 81.9001Z" fill="#A2ABBC"/>
<path d="M39.9998 87.3001V87.7001H35.2998V87.2001C35.3998 87.1001 35.3998 86.9001 35.3998 86.8001V84.9001L35.2998 84.8001V84.7001C35.3998 84.9001 35.4998 85.0001 35.6998 85.2001L37.1998 86.2001C37.4998 86.5001 37.9998 86.5001 38.3998 86.2001L39.7998 85.0001L39.8998 84.9001C39.8998 85.0001 39.8998 85.3001 39.8998 86.9001C39.7998 87.0001 39.8998 87.2001 39.9998 87.3001Z" fill="url(#paint1_linear_1658_16955)"/>
<path d="M69.6992 80.8001H50.4992C49.9992 80.8001 49.6992 80.4001 49.6992 80.0001V77.5001C49.6992 77.0001 50.0992 76.7001 50.4992 76.7001H69.6992C70.1992 76.7001 70.4992 77.1001 70.4992 77.5001V80.0001C70.4992 80.4001 70.1992 80.8001 69.6992 80.8001Z" fill="#CED6E2"/>
<path d="M92.4992 89.3001H50.4992C49.9992 89.3001 49.6992 88.9001 49.6992 88.5001V86.0001C49.6992 85.5001 50.0992 85.2001 50.4992 85.2001H92.4992C92.9992 85.2001 93.2992 85.6001 93.2992 86.0001V88.5001C93.2992 88.9001 92.8992 89.3001 92.4992 89.3001Z" fill="#CED6E2"/>
<g filter="url(#filter2_d_1658_16955)">
<path d="M99.5 63.3H12.9C11 63.3 9.5 61.8 9.5 59.9V40.4C9.5 38.5 11 37 12.9 37H99.5C101.4 37 102.9 38.5 102.9 40.4V59.9C103 61.8 101.4 63.3 99.5 63.3Z" fill="white"/>
</g>
<path d="M55.0996 47.9001H35.8996C35.3996 47.9001 35.0996 47.5 35.0996 47.1V44.6C35.0996 44.1 35.4996 43.8 35.8996 43.8H55.0996C55.5996 43.8 55.8996 44.2 55.8996 44.6V47.1C55.8996 47.6 55.5996 47.9001 55.0996 47.9001Z" fill="#CED6E2"/>
<path d="M77.8996 56.5H35.8996C35.3996 56.5 35.0996 56.1 35.0996 55.7V53.2C35.0996 52.7 35.4996 52.4 35.8996 52.4H77.7996C78.2996 52.4 78.5996 52.8 78.5996 53.2V55.7C78.6996 56.1 78.2996 56.5 77.8996 56.5Z" fill="#CED6E2"/>
<path d="M30.6 50.1C30.6 52.2 29.7 54.1 28.3 55.5C28.2 55.6 28.2 55.6 28.1 55.7C26.8 56.9 25 57.6 23.1 57.6C21.2 57.6 19.5 56.9 18.2 55.8C18.2 55.8 18.2 55.8 18.1 55.8C16.5 54.4 15.5 52.4 15.5 50.1C15.5 46 18.9 42.6 23 42.6C27.2 42.6 30.6 46 30.6 50.1Z" fill="#DCE1EE"/>
<path d="M28.2707 55.6522C27.9665 54.9423 27.4594 54.3339 26.6482 53.9282C26.2425 53.7254 25.9383 53.624 25.4312 53.624H25.127C24.4171 53.624 24.3157 53.5226 24.3157 53.5226V52.3057C25.127 51.6972 25.7355 50.8859 25.9383 49.9733C26.4453 49.8719 26.7496 49.4662 26.6482 48.9592C26.6482 48.7563 26.4453 48.5535 26.4453 48.3507C26.4453 48.2493 26.4453 48.1479 26.4453 48.0465C26.4453 47.9451 26.4453 47.9451 26.4453 47.8437C26.4453 47.7422 26.4453 47.7422 26.4453 47.6408C26.4453 47.2352 26.3439 46.931 26.0397 46.5253C25.4312 45.4098 24.2143 44.7 22.896 44.7C22.5918 44.7 22.3889 44.6999 22.0847 44.8014C21.5777 44.9028 21.172 45.1056 20.7664 45.4098C20.665 45.5112 20.665 45.5112 20.5636 45.6126C20.5636 45.6126 20.5636 45.6126 20.4622 45.714C20.0565 46.1197 19.7523 46.6267 19.5495 47.1338C19.3466 47.6408 19.3466 48.2493 19.3466 48.8578C19.3466 48.8578 19.3466 48.8578 19.3466 48.9592C19.3466 49.0606 19.3466 49.0606 19.3466 49.162C19.3466 49.162 19.3466 49.2634 19.2452 49.2634C19.4481 49.0606 19.3466 49.3648 19.4481 49.5676C19.6509 50.0747 19.9551 49.9733 20.3607 50.2775C20.3607 50.2775 20.3607 50.2775 20.2593 50.2775L19.8537 50.3789C17.6227 51.0888 17.4199 53.4212 19.6509 53.9282C19.4481 54.0296 19.3466 54.1311 19.2452 54.1311C18.6368 54.6381 18.2311 55.2466 18.0283 55.855C19.3466 56.9705 21.0706 57.6804 22.9974 57.6804C24.9242 57.6804 26.7496 56.9705 28.0679 55.7536C28.1693 55.855 28.2707 55.7536 28.2707 55.6522C28.3721 55.6522 28.3721 55.6522 28.2707 55.6522ZM21.9833 53.2184C21.8819 53.117 21.7805 53.0156 21.7805 53.0156C21.6791 52.9141 21.5777 52.9141 21.4763 52.8127C21.4763 52.8127 21.3748 52.8127 21.3748 52.7113C21.0706 52.5085 20.7664 52.3057 20.665 52.0015C20.665 51.9 20.7664 51.6972 20.9692 51.4944C21.0706 51.5958 21.172 51.6972 21.2734 51.9C21.3748 52.0015 21.4763 52.1029 21.5777 52.2043C21.6791 52.2043 21.7805 52.3057 21.7805 52.4071C21.7805 52.4071 21.7805 52.4071 21.8819 52.4071C21.8819 52.4071 21.8819 52.4071 21.9833 52.4071V53.2184Z" fill="white"/>
<path d="M25.2504 53.566C25.1504 53.966 24.9504 54.266 24.9504 54.266L21.1504 53.666L21.3504 52.666C21.3504 52.666 21.4504 52.666 21.4504 52.766C21.5504 52.866 21.6504 52.866 21.7504 52.966C21.8504 52.966 21.8504 53.066 21.9504 53.166V52.466C21.9504 52.466 21.9504 52.466 21.8504 52.466C22.4504 52.766 23.2504 52.966 24.3504 52.266V53.466C24.4504 53.466 24.5504 53.566 25.2504 53.566Z" fill="url(#paint2_linear_1658_16955)"/>
<path d="M24.4595 47.9884C25.1729 47.9884 25.8863 47.8865 26.4978 47.6827C26.4978 47.6827 26.4978 47.5808 26.5997 47.4789C26.4978 47.1731 26.3959 46.7655 26.1921 46.3578C25.5806 45.2367 24.3576 44.5233 23.0327 44.5233C22.727 44.5233 22.4337 44.5451 22.0247 44.647C21.4806 44.8134 21.2279 44.9595 21.099 45.0377C21.099 45.0377 20.8011 45.238 20.5867 45.4406C20.3724 45.6431 19.8733 46.3578 19.6695 46.8674C19.4657 47.4789 19.3012 47.9986 19.4031 48.6101C19.5051 48.6101 19.6695 48.498 19.7714 48.498C20.5867 48.0903 21.1982 47.5808 21.504 46.7654C22.3193 47.4789 23.3384 47.8865 24.4595 47.9884Z" fill="#A2ABBC"/>
<path d="M21 51.6C21.1 51.7 21.2 51.8 21.3 51.9C21.2 51.8 21.1 51.7 21 51.6Z" fill="#3973F4"/>
<path d="M22.4001 55.2999C22.1001 55.6999 21.6001 55.6999 21.1001 55.6999C21.6001 55.1999 21.3001 53.6999 19.7001 53.8999C17.4001 53.4999 17.7001 51.0999 19.9001 50.3999L20.3001 50.2999C20.3001 50.2999 20.3001 50.2999 20.4001 50.3999C20.6001 50.8999 20.8001 51.1999 21.1001 51.5999C20.2001 52.3999 21.5001 52.5999 22.1001 53.1999C22.5001 53.3999 22.9001 54.6999 22.4001 55.2999Z" fill="#A2ABBC"/>
<defs>
<filter id="filter0_d_1658_16955" x="15.0996" y="0.199951" width="111.404" height="44.3" filterUnits="userSpaceOnUse" color-interpolation-filters="sRGB">
<feFlood flood-opacity="0" result="BackgroundImageFix"/>
<feColorMatrix in="SourceAlpha" type="matrix" values="0 0 0 0 0 0 0 0 0 0 0 0 0 0 0 0 0 0 127 0" result="hardAlpha"/>
<feOffset dy="5"/>
<feGaussianBlur stdDeviation="4.5"/>
<feColorMatrix type="matrix" values="0 0 0 0 0.397708 0 0 0 0 0.47749 0 0 0 0 0.575 0 0 0 0.17 0"/>
<feBlend mode="normal" in2="BackgroundImageFix" result="effect1_dropShadow_1658_16955"/>
<feBlend mode="normal" in="SourceGraphic" in2="effect1_dropShadow_1658_16955" result="shape"/>
</filter>
<filter id="filter1_d_1658_16955" x="15.0996" y="65.8" width="111.404" height="44.3" filterUnits="userSpaceOnUse" color-interpolation-filters="sRGB">
<feFlood flood-opacity="0" result="BackgroundImageFix"/>
<feColorMatrix in="SourceAlpha" type="matrix" values="0 0 0 0 0 0 0 0 0 0 0 0 0 0 0 0 0 0 127 0" result="hardAlpha"/>
<feOffset dy="5"/>
<feGaussianBlur stdDeviation="4.5"/>
<feColorMatrix type="matrix" values="0 0 0 0 0.397708 0 0 0 0 0.47749 0 0 0 0 0.575 0 0 0 0.17 0"/>
<feBlend mode="normal" in2="BackgroundImageFix" result="effect1_dropShadow_1658_16955"/>
<feBlend mode="normal" in="SourceGraphic" in2="effect1_dropShadow_1658_16955" result="shape"/>
</filter>
<filter id="filter2_d_1658_16955" x="0.5" y="33" width="111.404" height="44.3" filterUnits="userSpaceOnUse" color-interpolation-filters="sRGB">
<feFlood flood-opacity="0" result="BackgroundImageFix"/>
<feColorMatrix in="SourceAlpha" type="matrix" values="0 0 0 0 0 0 0 0 0 0 0 0 0 0 0 0 0 0 127 0" result="hardAlpha"/>
<feOffset dy="5"/>
<feGaussianBlur stdDeviation="4.5"/>
<feColorMatrix type="matrix" values="0 0 0 0 0.397708 0 0 0 0 0.47749 0 0 0 0 0.575 0 0 0 0.17 0"/>
<feBlend mode="normal" in2="BackgroundImageFix" result="effect1_dropShadow_1658_16955"/>
<feBlend mode="normal" in="SourceGraphic" in2="effect1_dropShadow_1658_16955" result="shape"/>
</filter>
<linearGradient id="paint0_linear_1658_16955" x1="37.6512" y1="22.1182" x2="37.6512" y2="20.4655" gradientUnits="userSpaceOnUse">
<stop stop-color="white"/>
<stop offset="1" stop-color="#E2E5EC"/>
</linearGradient>
<linearGradient id="paint1_linear_1658_16955" x1="37.6512" y1="87.7183" x2="37.6512" y2="86.0656" gradientUnits="userSpaceOnUse">
<stop stop-color="white"/>
<stop offset="1" stop-color="#E2E5EC"/>
</linearGradient>
<linearGradient id="paint2_linear_1658_16955" x1="23.2016" y1="54.2782" x2="23.2016" y2="53.1764" gradientUnits="userSpaceOnUse">
<stop stop-color="white"/>
<stop offset="1" stop-color="#E2E5EC"/>
</linearGradient>
</defs>
</svg>
