<svg width="262" height="234" viewBox="0 0 262 234" fill="none" xmlns="http://www.w3.org/2000/svg">
<path d="M259.701 89.4863C259.608 89.4864 259.516 89.4578 259.439 89.4044L132.319 1.32261C131.932 1.05581 131.472 0.913228 131.002 0.914027C130.531 0.914825 130.072 1.05897 129.686 1.32708L3.48155 89.4035C3.38172 89.4731 3.25818 89.5005 3.13809 89.4795C3.01799 89.4586 2.91119 89.391 2.84117 89.2917C2.77115 89.1923 2.74366 89.0694 2.76473 88.9499C2.78581 88.8305 2.85373 88.7242 2.95356 88.6545L129.158 0.578125C129.698 0.202824 130.341 0.00108185 131 4.33888e-06C131.659 -0.00107317 132.303 0.198564 132.844 0.572096L259.964 88.6536C260.045 88.7093 260.105 88.789 260.137 88.8812C260.168 88.9734 260.17 89.0732 260.14 89.1661C260.111 89.259 260.053 89.3401 259.974 89.3977C259.895 89.4553 259.799 89.4864 259.701 89.4863L259.701 89.4863Z" fill="#3F3D56"/>
<path d="M10.6934 92.6088L131.127 3.80469L252.474 98.9276L137.332 166.84L74.8199 152.663L10.6934 92.6088Z" fill="#E6E6E6"/>
<path d="M80.0963 208.786H20.5992C20.2338 208.787 19.872 208.715 19.5343 208.577C19.1967 208.438 18.8898 208.234 18.6313 207.977C18.3728 207.72 18.1678 207.415 18.0279 207.08C17.8879 206.744 17.8159 206.384 17.8159 206.02C17.8159 205.657 17.8879 205.297 18.0279 204.961C18.1678 204.626 18.3728 204.321 18.6313 204.064C18.8898 203.807 19.1967 203.603 19.5343 203.464C19.872 203.326 20.2338 203.254 20.5992 203.255H80.0963C80.4616 203.254 80.8235 203.326 81.1611 203.464C81.4988 203.603 81.8056 203.807 82.0641 204.064C82.3226 204.321 82.5277 204.626 82.6676 204.961C82.8075 205.297 82.8795 205.657 82.8795 206.02C82.8795 206.384 82.8075 206.744 82.6676 207.08C82.5277 207.415 82.3226 207.72 82.0641 207.977C81.8056 208.234 81.4988 208.438 81.1611 208.577C80.8235 208.715 80.4616 208.787 80.0963 208.786V208.786Z" fill="#E6E6E6"/>
<path d="M41.9454 196.896H20.5992C20.2338 196.896 19.872 196.825 19.5343 196.686C19.1967 196.548 18.8898 196.344 18.6313 196.087C18.3728 195.83 18.1678 195.525 18.0279 195.189C17.8879 194.854 17.8159 194.494 17.8159 194.13C17.8159 193.767 17.8879 193.407 18.0279 193.071C18.1678 192.735 18.3728 192.43 18.6313 192.174C18.8898 191.917 19.1967 191.713 19.5343 191.574C19.872 191.435 20.2338 191.364 20.5992 191.365H41.9454C42.3107 191.364 42.6726 191.435 43.0102 191.574C43.3479 191.713 43.6547 191.917 43.9132 192.174C44.1717 192.43 44.3768 192.735 44.5167 193.071C44.6566 193.407 44.7286 193.767 44.7286 194.13C44.7286 194.494 44.6566 194.854 44.5167 195.189C44.3768 195.525 44.1717 195.83 43.9132 196.087C43.6547 196.344 43.3479 196.548 43.0102 196.686C42.6726 196.825 42.3107 196.896 41.9454 196.896Z" fill="#E6E6E6"/>
<path d="M132.82 142.071C132.368 142.072 131.92 141.984 131.502 141.814L57.2266 111.151V15.1715C57.2276 14.3227 57.5669 13.5091 58.17 12.9089C58.7732 12.3088 59.5911 11.9712 60.4441 11.9702H202.935C203.788 11.9712 204.606 12.3088 205.209 12.9089C205.813 13.5091 206.152 14.3227 206.153 15.1715V111.218L206.013 111.278L134.179 141.799C133.749 141.979 133.287 142.072 132.82 142.071Z" fill="white"/>
<path d="M132.82 142.299C132.338 142.3 131.86 142.207 131.414 142.026L56.9966 111.304V15.1711C56.9976 14.2618 57.3612 13.39 58.0074 12.7469C58.6537 12.1039 59.53 11.7422 60.444 11.7412H202.935C203.849 11.7422 204.725 12.1039 205.372 12.7469C206.018 13.39 206.382 14.2618 206.383 15.1711V111.369L134.269 142.009C133.811 142.201 133.318 142.3 132.82 142.299V142.299ZM57.9159 110.693L131.765 141.18C132.453 141.458 133.225 141.453 133.91 141.167L205.463 110.765V15.1711C205.462 14.5043 205.196 13.865 204.722 13.3934C204.248 12.9219 203.605 12.6566 202.935 12.6559H60.444C59.7737 12.6566 59.1312 12.9219 58.6572 13.3934C58.1833 13.865 57.9167 14.5043 57.9159 15.1711L57.9159 110.693Z" fill="#3F3D56"/>
<path d="M258.782 88.5718H258.69L205.923 110.99L133.726 141.662C133.444 141.78 133.141 141.842 132.835 141.843C132.529 141.845 132.226 141.787 131.942 141.671L57.4561 110.926L3.39216 88.6084L3.30956 88.5718H3.21754C2.36449 88.5727 1.54664 88.9103 0.943439 89.5104C0.340238 90.1106 0.000946533 90.9243 0 91.773V230.799C0.000947747 231.648 0.340238 232.461 0.943439 233.061C1.54664 233.662 2.36449 233.999 3.21754 234H258.782C259.636 233.999 260.453 233.662 261.057 233.061C261.66 232.461 261.999 231.648 262 230.799V91.773C261.999 90.9243 261.66 90.1106 261.057 89.5104C260.453 88.9103 259.636 88.5727 258.782 88.5718V88.5718ZM261.081 230.799C261.08 231.405 260.838 231.987 260.407 232.415C259.976 232.844 259.392 233.085 258.782 233.085H3.21754C2.60809 233.085 2.02366 232.844 1.59271 232.415C1.16176 231.987 0.919542 231.405 0.919298 230.799V91.773C0.920132 91.1817 1.15067 90.6136 1.56271 90.1875C1.97474 89.7613 2.53639 89.5101 3.13024 89.4864L57.4561 111.913L131.588 142.517C132.391 142.842 133.29 142.837 134.089 142.504L205.923 111.982L258.874 89.4864C259.467 89.5119 260.027 89.7638 260.438 90.1897C260.849 90.6156 261.079 91.1827 261.081 91.773V230.799Z" fill="#3F3D56"/>
<path d="M132.078 114.855C129.336 114.86 126.667 113.978 124.473 112.341L124.337 112.24L95.6955 90.4221C94.369 89.4109 93.2558 88.1497 92.4192 86.7105C91.5827 85.2713 91.0393 83.6822 90.82 82.034C90.6007 80.3858 90.7099 78.7108 91.1412 77.1046C91.5726 75.4984 92.3177 73.9924 93.334 72.6727C94.3503 71.353 95.6179 70.2454 97.0645 69.4131C98.511 68.5808 100.108 68.0401 101.765 67.8219C103.421 67.6038 105.105 67.7123 106.719 68.1415C108.334 68.5707 109.847 69.312 111.174 70.3232L129.725 84.4763L173.566 27.5915C174.582 26.2721 175.85 25.1649 177.297 24.3331C178.744 23.5013 180.342 22.9612 181.998 22.7436C183.655 22.5261 185.338 22.6353 186.953 23.0651C188.567 23.4948 190.08 24.2367 191.406 25.2484L191.134 25.6166L191.413 25.2538C194.088 27.2992 195.838 30.3167 196.28 33.6444C196.721 36.9721 195.818 40.3381 193.768 43.004L142.201 109.914C141.009 111.456 139.475 112.704 137.72 113.561C135.964 114.417 134.033 114.86 132.078 114.855V114.855Z" fill="#3C81FB"/>
</svg>
