<svg width="299" height="256" viewBox="0 0 299 256" fill="none" xmlns="http://www.w3.org/2000/svg">
<g clip-path="url(#clip0_1234_2566)">
<path d="M87.8703 253.282C92.6702 249.226 95.5857 242.819 94.8211 236.581C94.0565 230.344 89.3208 224.61 83.178 223.286C77.0352 221.961 70.0328 225.627 68.1671 231.628C67.1402 220.059 65.957 208.005 59.8062 198.153C54.2368 189.233 44.5905 182.849 34.1361 181.707C23.6817 180.565 12.6745 184.878 6.15449 193.13C-0.365548 201.382 -1.96195 213.378 2.60452 222.851C5.96847 229.83 12.1661 235.024 18.6596 239.249C39.6425 252.787 64.8088 258.293 89.528 254.753" fill="#F2F2F2"/>
<path d="M16.4927 185.118C25.1189 192.144 33.0325 200.002 40.1191 208.579C51.2095 221.955 60.1841 236.953 66.73 253.049C67.2092 254.223 65.3025 254.734 64.8286 253.573C60.6659 243.396 55.5158 233.652 49.4522 224.48C39.9967 210.152 28.4123 197.349 15.0984 186.512C14.114 185.711 15.5164 184.323 16.4927 185.118V185.118Z" fill="white"/>
<path d="M91.1855 253.282C86.3857 249.226 83.4702 242.819 84.2348 236.581C84.9994 230.344 89.735 224.61 95.8778 223.286C102.021 221.961 109.023 225.627 110.889 231.628C111.916 220.059 113.099 208.005 119.25 198.153C124.819 189.233 134.465 182.849 144.92 181.707C155.374 180.565 166.381 184.878 172.901 193.13C179.421 201.382 181.018 213.378 176.451 222.851C173.087 229.83 166.89 235.024 160.396 239.249C139.413 252.787 114.247 258.293 89.5279 254.753" fill="#F2F2F2"/>
<path d="M162.563 185.118C153.937 192.144 146.023 200.002 138.937 208.579C127.846 221.955 118.872 236.953 112.326 253.049C111.847 254.223 113.753 254.734 114.227 253.573C124.938 227.414 142.036 204.357 163.957 186.512C164.942 185.711 163.539 184.323 162.563 185.118V185.118Z" fill="white"/>
<path d="M105.429 115.14C114.309 115.14 121.507 107.941 121.507 99.0615C121.507 90.1818 114.309 82.9834 105.429 82.9834C96.5492 82.9834 89.3508 90.1818 89.3508 99.0615C89.3508 107.941 96.5492 115.14 105.429 115.14Z" fill="#F2F2F2"/>
<path d="M55.8559 43.6377H166.629V49.6982H69.9971C64.3155 49.6982 58.6895 50.8173 53.4404 52.9916C48.1913 55.1658 43.4218 58.3527 39.4043 62.3702C35.3867 66.3877 32.1999 71.1571 30.0256 76.4063C27.8514 81.6554 26.7323 87.2814 26.7323 92.963V161.818H14.6112C14.0755 161.818 13.5616 161.605 13.1828 161.226C12.8039 160.847 12.5911 160.334 12.5911 159.798V86.9024C12.5911 81.2208 13.7101 75.5948 15.8844 70.3457C18.0587 65.0966 21.2455 60.3271 25.263 56.3096C29.2806 52.2921 34.05 49.1053 39.2992 46.931C44.5483 44.7567 50.1743 43.6377 55.8559 43.6377V43.6377Z" fill="#F2F2F2"/>
<path d="M77.1626 253.619V161.559H104.132V253.619C104.132 254.237 103.885 254.831 103.448 255.268C103.01 255.706 102.417 255.952 101.798 255.952H79.4965C78.8777 255.952 78.2845 255.706 77.847 255.268C77.4094 254.831 77.1633 254.237 77.1626 253.619Z" fill="#3F3D56"/>
<path d="M6.88599 159.744V84.8849C6.89944 72.9679 11.6394 61.5428 20.066 53.1162C28.4926 44.6895 39.9177 39.9495 51.8347 39.936H166.111V162.337H9.47922C8.7917 162.336 8.13256 162.063 7.6464 161.576C7.16025 161.09 6.88677 160.431 6.88599 159.744V159.744ZM165.074 40.9733H51.8347C40.1927 40.9865 29.0313 45.6172 20.7992 53.8493C12.567 62.0815 7.93644 73.2429 7.92328 84.8849V159.744C7.92373 160.156 8.08781 160.552 8.3795 160.843C8.6712 161.135 9.0667 161.299 9.47922 161.3H165.074V40.9733Z" fill="#3F3D56"/>
<path d="M105.429 107.36C102.954 107.357 100.581 106.373 98.8309 104.623C97.0807 102.872 96.0962 100.5 96.0934 98.0244V31.1189C96.093 30.7063 95.9289 30.3108 95.6372 30.0191C95.3455 29.7274 94.95 29.5634 94.5375 29.5629H58.2322C57.5446 29.5621 56.8855 29.2886 56.3994 28.8025C55.9132 28.3163 55.6397 27.6572 55.6389 26.9697V2.59324C55.6397 1.90571 55.9132 1.24657 56.3994 0.760418C56.8855 0.274264 57.5446 0.000796145 58.2322 0H112.172C112.859 0.000786556 113.518 0.274254 114.004 0.76041C114.49 1.24657 114.764 1.90571 114.765 2.59324V98.0244C114.762 100.5 113.778 102.872 112.027 104.623C110.277 106.373 107.904 107.357 105.429 107.36Z" fill="#3C81FB"/>
<path d="M170.26 38.8985C178.084 38.8821 185.594 41.9745 191.138 47.4954C196.683 53.0163 199.806 60.5135 199.823 68.3377V153.556H257.911C260.245 153.552 262.485 154.474 264.138 156.121C265.792 157.767 266.723 160.003 266.728 162.337H140.697V68.3377C140.713 60.5135 143.837 53.0163 149.381 47.4954C154.926 41.9745 162.436 38.8821 170.26 38.8985Z" fill="#3F3D56"/>
<path d="M163.166 87.4269L169.287 112.714L289.033 83.7261L282.912 58.4389C282.838 58.1297 282.687 57.8442 282.473 57.6089C282.26 57.3736 281.99 57.1962 281.689 57.093C281.467 57.0149 281.232 56.9796 280.997 56.9889L211.779 21.1493C211.373 20.9422 210.907 20.8869 210.464 20.9933C210.021 21.0998 209.631 21.361 209.364 21.7298L176.005 68.2493L163.428 85.7914C163.406 85.8221 163.39 85.8574 163.382 85.8948C163.374 85.9322 163.374 85.9709 163.382 86.0083C163.126 86.4343 163.049 86.944 163.166 87.4269V87.4269Z" fill="white"/>
<path d="M163.382 86.0083C163.388 86.0412 163.401 86.0726 163.419 86.1007C163.437 86.1288 163.46 86.1531 163.488 86.1721C163.52 86.1944 163.557 86.2098 163.596 86.2174C163.634 86.225 163.674 86.2247 163.712 86.2165C163.775 86.1998 163.83 86.1618 163.868 86.109L163.911 86.0491L164.565 85.1334L176.457 68.5552L209.807 22.0465C209.997 21.7829 210.276 21.5963 210.592 21.5205C210.908 21.4448 211.241 21.4848 211.53 21.6335L280.212 57.1954L280.828 57.5153C280.853 57.5258 280.879 57.5347 280.905 57.5421C280.951 57.5337 280.998 57.5292 281.046 57.5286C281.11 57.5071 281.164 57.4616 281.196 57.4017C281.213 57.3701 281.223 57.3355 281.226 57.3C281.23 57.2644 281.226 57.2285 281.215 57.1944C281.205 57.1602 281.188 57.1285 281.165 57.101C281.142 57.0735 281.114 57.0508 281.082 57.0341L280.997 56.9889L211.779 21.1493C211.373 20.9422 210.907 20.8869 210.464 20.9933C210.021 21.0998 209.631 21.361 209.364 21.7298L176.005 68.2493L163.429 85.7914C163.406 85.8221 163.39 85.8574 163.382 85.8948C163.374 85.9323 163.374 85.971 163.382 86.0083V86.0083Z" fill="#3F3D56"/>
<path d="M199.346 88.5868L202.011 88.8825L221.794 91.074L234.908 92.5259L235.683 92.612L252.047 79.83L252.674 79.3404L256.539 76.3218L270.291 65.5825L270.373 64.8282L275.264 20.684C275.331 20.0761 275.154 19.4666 274.772 18.9891C274.39 18.5116 273.834 18.205 273.226 18.1366L207.952 10.9058C207.344 10.8394 206.734 11.0166 206.257 11.3985C205.78 11.7805 205.473 12.3361 205.404 12.9436L201.955 44.082L200.042 61.3456L198.33 76.7901L197.537 83.9626L197.305 86.0401C197.239 86.6482 197.417 87.2577 197.799 87.7351C198.182 88.2124 198.738 88.5187 199.346 88.5868V88.5868Z" fill="#E6E6E6"/>
<path d="M217.283 49.8926L245.558 53.0243L255.586 54.1345C256.028 54.1836 256.476 54.1449 256.904 54.0208C257.332 53.8967 257.731 53.6895 258.079 53.4111C258.426 53.1328 258.716 52.7886 258.931 52.3984C259.145 52.0082 259.281 51.5794 259.33 51.1367C259.379 50.694 259.34 50.246 259.216 49.8182C259.092 49.3904 258.885 48.9913 258.607 48.6436C258.328 48.2959 257.984 48.0064 257.594 47.7917C257.204 47.577 256.775 47.4412 256.332 47.3922L243.86 46.0109L218.032 43.147C217.138 43.0482 216.241 43.3086 215.539 43.8709C214.836 44.4332 214.386 45.2514 214.287 46.1456C214.187 47.0398 214.447 47.9369 215.009 48.6395C215.571 49.3422 216.389 49.7929 217.283 49.8926Z" fill="white"/>
<path d="M215.673 62.4006C215.746 62.4137 215.819 62.4267 215.894 62.4339L248.716 66.07L254.196 66.6784C255.091 66.7773 255.988 66.5169 256.69 65.9544C257.393 65.3919 257.843 64.5734 257.942 63.6789C258.041 62.7845 257.781 61.8874 257.218 61.1849C256.655 60.4825 255.837 60.0323 254.943 59.9334L247.018 59.0567L221.018 56.1757L216.643 55.6908C215.768 55.5932 214.889 55.8397 214.193 56.3782C213.496 56.9167 213.036 57.705 212.91 58.5764C212.784 59.4477 213.002 60.334 213.518 61.0476C214.034 61.7613 214.807 62.2465 215.673 62.4006V62.4006Z" fill="white"/>
<path d="M211.959 73.4913C212.228 73.9378 212.596 74.3164 213.035 74.5975C213.474 74.8786 213.972 75.0548 214.49 75.1122L227.943 76.6022L251.903 79.2567L251.908 79.2554L252.674 79.3407L256.539 76.3221C256.563 76.0928 256.564 75.8617 256.54 75.6323C256.459 74.8623 256.117 74.1432 255.571 73.594C255.025 73.0447 254.308 72.6982 253.539 72.6118L250.21 72.242L237.007 70.7809L227.507 69.7273L215.236 68.3673C214.607 68.2977 213.971 68.4053 213.4 68.6781C212.829 68.9509 212.346 69.378 212.005 69.911C211.664 70.4441 211.479 71.0618 211.471 71.6945C211.463 72.3272 211.632 72.9495 211.959 73.4912L211.959 73.4913Z" fill="white"/>
<path d="M230.854 34.6041L237.89 35.3833L240.997 35.7284L245.691 36.2479C246.585 36.3468 247.482 36.0864 248.185 35.5239C248.887 34.9614 249.337 34.1429 249.436 33.2484C249.535 32.354 249.275 31.4569 248.712 30.7544C248.15 30.052 247.331 29.6018 246.437 29.5029L231.604 27.8611C230.71 27.7617 229.813 28.0216 229.11 28.5836C228.408 29.1456 227.957 29.9637 227.858 30.8579C227.758 31.7521 228.018 32.6491 228.58 33.3517C229.142 34.0542 229.96 34.5047 230.854 34.6041V34.6041Z" fill="white"/>
<path d="M173.329 53.3853L181.906 88.8161L196.221 91.538L209.463 94.0591L223.671 96.7625L228.21 97.6264C228.476 97.6767 228.75 97.6697 229.012 97.6061C229.275 97.5425 229.522 97.4236 229.735 97.2574L233.377 94.4128L235.683 92.6121L252.047 79.8301L241.642 36.8479C241.539 36.4203 241.315 36.0315 240.997 35.7281C240.718 35.4597 240.375 35.266 240.001 35.1647C239.627 35.0634 239.234 35.0579 238.858 35.1487L175.028 50.6006C174.433 50.7449 173.921 51.1192 173.602 51.6413C173.283 52.1635 173.185 52.7907 173.329 53.3853V53.3853Z" fill="#3C81FB"/>
<path d="M192.996 81.5716C193.208 82.4457 193.759 83.1997 194.527 83.6682C195.294 84.1367 196.217 84.2814 197.091 84.0705L234.545 75.0037C235.419 74.7909 236.172 74.2403 236.641 73.4726C237.109 72.705 237.254 71.7829 237.044 70.9086C237.034 70.8652 237.022 70.8225 237.007 70.7806C236.768 69.9376 236.212 69.22 235.455 68.778C234.699 68.336 233.8 68.204 232.949 68.4097L195.495 77.4765C194.621 77.6889 193.867 78.2394 193.398 79.0072C192.93 79.775 192.785 80.6973 192.996 81.5716Z" fill="white"/>
<path d="M196.221 91.5382L209.463 94.0593L237.514 87.2688C238.388 87.0571 239.143 86.5068 239.611 85.7388C240.08 84.9708 240.224 84.0481 240.013 83.1737C239.801 82.2993 239.251 81.5448 238.483 81.0761C237.715 80.6075 236.792 80.4632 235.918 80.6748L198.464 89.7416C197.681 89.9296 196.992 90.3917 196.52 91.0442C196.407 91.2001 196.307 91.3654 196.221 91.5382Z" fill="white"/>
<path d="M223.671 96.7628L228.21 97.6267C228.476 97.6769 228.75 97.67 229.012 97.6063C229.275 97.5427 229.522 97.4238 229.735 97.2576L233.377 94.4131L223.671 96.7628Z" fill="white"/>
<path d="M200.543 62.5731C200.755 63.4471 201.306 64.2011 202.073 64.6696C202.841 65.1381 203.763 65.2828 204.638 65.0719L219.145 61.5601C220.018 61.3473 220.772 60.7967 221.24 60.0291C221.709 59.2614 221.854 58.3394 221.643 57.465C221.53 56.9952 221.317 56.5553 221.018 56.1755C220.617 55.6622 220.077 55.2751 219.461 55.0607C218.846 54.8462 218.182 54.8134 217.548 54.9662L203.042 58.478C202.167 58.6897 201.413 59.2401 200.944 60.0081C200.476 60.776 200.331 61.6987 200.543 62.5731V62.5731Z" fill="white"/>
<path d="M209.462 94.0587L223.672 96.7627L228.21 97.627C228.476 97.6766 228.749 97.6694 229.012 97.6058C229.274 97.5423 229.521 97.4237 229.734 97.2581L233.379 94.4129L232.1 94.7225L229.4 96.8288C229.247 96.9471 229.072 97.0317 228.884 97.0771C228.696 97.1225 228.501 97.1277 228.311 97.0923L224.951 96.4531L210.741 93.7491L209.462 94.0587ZM251.907 79.257L252.045 79.8285L252.676 79.3385L251.907 79.257ZM209.462 94.0587L223.672 96.7627L228.21 97.627C228.476 97.6766 228.749 97.6694 229.012 97.6058C229.274 97.5423 229.521 97.4237 229.734 97.2581L233.379 94.4129L232.1 94.7225L229.4 96.8288C229.247 96.9471 229.072 97.0317 228.884 97.0771C228.696 97.1225 228.501 97.1277 228.311 97.0923L224.951 96.4531L210.741 93.7491L209.462 94.0587ZM209.462 94.0587L223.672 96.7627L228.21 97.627C228.476 97.6766 228.749 97.6694 229.012 97.6058C229.274 97.5423 229.521 97.4237 229.734 97.2581L233.379 94.4129L232.1 94.7225L229.4 96.8288C229.247 96.9471 229.072 97.0317 228.884 97.0771C228.696 97.1225 228.501 97.1277 228.311 97.0923L224.951 96.4531L210.741 93.7491L209.462 94.0587ZM163.166 87.4269L179.2 153.663C179.319 154.153 179.628 154.575 180.058 154.838C180.488 155.1 181.004 155.181 181.494 155.063L297.547 126.969C298.037 126.85 298.459 126.542 298.721 126.112C298.984 125.682 299.065 125.165 298.947 124.675L282.912 58.4388C282.838 58.1296 282.687 57.8441 282.473 57.6088C282.26 57.3735 281.99 57.1961 281.689 57.0929C281.467 57.0148 281.232 56.9795 280.997 56.9888C280.723 56.9967 280.455 57.0674 280.212 57.1953C280.1 57.2485 279.994 57.3141 279.897 57.3909L270.373 64.8282L256.54 75.6334L251.906 79.2531L251.907 79.257L251.903 79.258L234.909 92.5239L232.1 94.7225L229.4 96.8287C229.247 96.947 229.072 97.0317 228.884 97.0771C228.696 97.1225 228.501 97.1277 228.311 97.0923L224.951 96.4531L210.741 93.7491L196.519 91.044L165.368 85.116C165.102 85.0634 164.829 85.0693 164.565 85.1334C164.211 85.2199 163.889 85.4064 163.638 85.6706C163.542 85.7744 163.456 85.8875 163.382 86.0082C163.126 86.4342 163.049 86.9439 163.166 87.4269V87.4269ZM209.462 94.0587L223.672 96.7627L228.21 97.627C228.476 97.6766 228.749 97.6694 229.012 97.6058C229.274 97.5423 229.521 97.4237 229.734 97.2581L233.379 94.4129L232.1 94.7225L229.4 96.8288C229.247 96.9471 229.072 97.0317 228.884 97.0771C228.696 97.1225 228.501 97.1277 228.311 97.0923L224.951 96.4531L210.741 93.7491L209.462 94.0587ZM209.462 94.0587L223.672 96.7627L228.21 97.627C228.476 97.6766 228.749 97.6694 229.012 97.6058C229.274 97.5423 229.521 97.4237 229.734 97.2581L233.379 94.4129L232.1 94.7225L229.4 96.8288C229.247 96.9471 229.072 97.0317 228.884 97.0771C228.696 97.1225 228.501 97.1277 228.311 97.0923L224.951 96.4531L210.741 93.7491L209.462 94.0587ZM209.462 94.0587L223.672 96.7627L228.21 97.627C228.476 97.6766 228.749 97.6694 229.012 97.6058C229.274 97.5423 229.521 97.4237 229.734 97.2581L233.379 94.4129L232.1 94.7225L229.4 96.8288C229.247 96.9471 229.072 97.0317 228.884 97.0771C228.696 97.1225 228.501 97.1277 228.311 97.0923L224.951 96.4531L210.741 93.7491L209.462 94.0587Z" fill="white"/>
<path d="M209.462 94.0587L223.672 96.7627L228.21 97.627C228.476 97.6766 228.749 97.6694 229.012 97.6058C229.274 97.5422 229.521 97.4237 229.734 97.2581L233.379 94.4129L232.1 94.7225L229.4 96.8287C229.247 96.947 229.072 97.0317 228.884 97.0771C228.696 97.1225 228.501 97.1277 228.311 97.0923L224.951 96.4531L210.741 93.7491L209.462 94.0587ZM251.907 79.257L252.045 79.8285L252.676 79.3385L251.907 79.257ZM209.462 94.0587L223.672 96.7627L228.21 97.627C228.476 97.6766 228.749 97.6694 229.012 97.6058C229.274 97.5422 229.521 97.4237 229.734 97.2581L233.379 94.4129L232.1 94.7225L229.4 96.8287C229.247 96.947 229.072 97.0317 228.884 97.0771C228.696 97.1225 228.501 97.1277 228.311 97.0923L224.951 96.4531L210.741 93.7491L209.462 94.0587ZM209.462 94.0587L223.672 96.7627L228.21 97.627C228.476 97.6766 228.749 97.6694 229.012 97.6058C229.274 97.5422 229.521 97.4237 229.734 97.2581L233.379 94.4129L232.1 94.7225L229.4 96.8287C229.247 96.947 229.072 97.0317 228.884 97.0771C228.696 97.1225 228.501 97.1277 228.311 97.0923L224.951 96.4531L210.741 93.7491L209.462 94.0587ZM163.911 86.0491L163.981 86.102C163.993 86.0826 164.013 86.0653 164.029 86.0451C164.186 85.8815 164.381 85.7595 164.597 85.69C164.813 85.6205 165.043 85.6057 165.266 85.6469L196.222 91.5356L209.462 94.0587L223.672 96.7627L228.21 97.627C228.476 97.6766 228.749 97.6694 229.012 97.6058C229.274 97.5422 229.521 97.4237 229.734 97.2581L233.379 94.4129L232.1 94.7225L229.4 96.8287C229.247 96.947 229.072 97.0317 228.884 97.0771C228.696 97.1225 228.501 97.1277 228.311 97.0922L224.951 96.4531L210.741 93.7491L196.519 91.044L165.368 85.116C165.102 85.0634 164.829 85.0693 164.565 85.1333L163.911 86.0491ZM163.166 87.4268L179.2 153.663C179.319 154.153 179.628 154.575 180.058 154.838C180.488 155.1 181.004 155.181 181.494 155.063L297.547 126.969C298.037 126.85 298.459 126.542 298.721 126.112C298.984 125.682 299.065 125.165 298.947 124.675L282.912 58.4388C282.838 58.1296 282.687 57.8441 282.473 57.6088C282.26 57.3735 281.99 57.1961 281.689 57.0929C281.467 57.0148 281.232 56.9795 280.997 56.9888C280.723 56.9967 280.455 57.0674 280.212 57.1953C280.1 57.2485 279.994 57.3141 279.897 57.3909L270.373 64.8282L256.54 75.6334L251.906 79.2531L251.907 79.257L251.903 79.258L234.909 92.5239L232.1 94.7225L229.4 96.8287C229.247 96.947 229.072 97.0317 228.884 97.0771C228.696 97.1225 228.501 97.1277 228.311 97.0923L224.951 96.4531L210.741 93.7491L196.519 91.044L165.368 85.116C165.102 85.0634 164.829 85.0693 164.565 85.1333C164.211 85.2199 163.889 85.4064 163.638 85.6706C163.542 85.7744 163.456 85.8875 163.382 86.0082C163.126 86.4342 163.049 86.9439 163.166 87.4268V87.4268ZM163.695 87.2988C163.647 87.1036 163.644 86.9002 163.686 86.7037C163.727 86.5071 163.812 86.3223 163.934 86.1627C163.945 86.1393 163.961 86.1185 163.981 86.102C163.993 86.0826 164.013 86.0653 164.029 86.0451C164.186 85.8815 164.381 85.7595 164.597 85.69C164.813 85.6205 165.043 85.6057 165.266 85.6469L196.222 91.5356L209.462 94.0587L223.672 96.7627L228.21 97.627C228.476 97.6766 228.749 97.6694 229.012 97.6058C229.274 97.5422 229.521 97.4237 229.734 97.2581L233.379 94.4129L235.684 92.6122L252.045 79.8285L252.676 79.3384L256.538 76.3212L270.291 65.5803L280.234 57.8154C280.386 57.6975 280.56 57.6132 280.746 57.568C280.798 57.5552 280.851 57.5466 280.905 57.542C280.951 57.5335 280.998 57.529 281.046 57.5285C281.204 57.527 281.362 57.5528 281.513 57.6047C281.727 57.6793 281.919 57.8064 282.072 57.9742C282.225 58.1421 282.333 58.3455 282.387 58.5659L298.422 124.802C298.464 124.976 298.471 125.156 298.444 125.333C298.416 125.509 298.354 125.679 298.261 125.831C298.168 125.983 298.046 126.116 297.902 126.221C297.757 126.327 297.594 126.402 297.42 126.444L181.367 154.538C181.017 154.622 180.648 154.564 180.34 154.376C180.033 154.188 179.814 153.886 179.729 153.535L163.695 87.2988ZM209.462 94.0587L223.672 96.7627L228.21 97.627C228.476 97.6766 228.749 97.6694 229.012 97.6058C229.274 97.5423 229.521 97.4237 229.734 97.2581L233.379 94.4129L232.1 94.7225L229.4 96.8288C229.247 96.9471 229.072 97.0317 228.884 97.0771C228.696 97.1225 228.501 97.1277 228.311 97.0923L224.951 96.4531L210.741 93.7491L209.462 94.0587ZM209.462 94.0587L223.672 96.7627L228.21 97.627C228.476 97.6766 228.749 97.6694 229.012 97.6058C229.274 97.5423 229.521 97.4237 229.734 97.2581L233.379 94.4129L232.1 94.7225L229.4 96.8288C229.247 96.9471 229.072 97.0317 228.884 97.0771C228.696 97.1225 228.501 97.1277 228.311 97.0923L224.951 96.4531L210.741 93.7491L209.462 94.0587ZM209.462 94.0587L223.672 96.7627L228.21 97.627C228.476 97.6766 228.749 97.6694 229.012 97.6058C229.274 97.5423 229.521 97.4237 229.734 97.2581L233.379 94.4129L232.1 94.7225L229.4 96.8288C229.247 96.9471 229.072 97.0317 228.884 97.0771C228.696 97.1225 228.501 97.1277 228.311 97.0923L224.951 96.4531L210.741 93.7491L209.462 94.0587Z" fill="#3F3D56"/>
<path d="M267.3 113.956C267.038 112.871 267.218 111.726 267.8 110.773C268.381 109.82 269.317 109.136 270.402 108.873L285.049 105.327C286.133 105.068 287.275 105.25 288.225 105.832C289.175 106.414 289.856 107.349 290.118 108.432C290.38 109.515 290.203 110.658 289.624 111.61C289.045 112.562 288.113 113.246 287.031 113.512L272.383 117.058C271.298 117.319 270.153 117.14 269.2 116.558C268.247 115.977 267.564 115.041 267.3 113.956Z" fill="#3C81FB"/>
<path d="M105.429 101.655C107.434 101.655 109.06 100.03 109.06 98.0246C109.06 96.0195 107.434 94.394 105.429 94.394C103.424 94.394 101.799 96.0195 101.799 98.0246C101.799 100.03 103.424 101.655 105.429 101.655Z" fill="white"/>
</g>
<defs>
<clipPath id="clip0_1234_2566">
<rect width="299" height="255.953" fill="white"/>
</clipPath>
</defs>
</svg>
