<svg width="16" height="18" viewBox="0 0 16 18" fill="none" xmlns="http://www.w3.org/2000/svg">
<path d="M11.424 16.5539H4.58555C4.33987 16.5534 4.10319 16.4614 3.92172 16.2957C3.74024 16.1301 3.627 15.9028 3.60409 15.6582L2.52734 3.76953H13.4822L12.4023 15.6582C12.3794 15.9023 12.2666 16.1291 12.0858 16.2947C11.905 16.4602 11.6691 16.5526 11.424 16.5539Z" stroke="white" stroke-linecap="round" stroke-linejoin="round"/>
<path d="M6.18469 1.35156H9.88501C10.0965 1.35156 10.2992 1.43555 10.4487 1.58507C10.5983 1.73458 10.6823 1.93736 10.6823 2.1488V3.77821H5.39063V2.1488C5.39062 1.93791 5.47418 1.73561 5.62301 1.58619C5.77183 1.43677 5.9738 1.3524 6.18469 1.35156Z" stroke="white" stroke-linecap="round" stroke-linejoin="round"/>
<path d="M5.39062 7.14062L5.77495 13.1818" stroke="white" stroke-linecap="round" stroke-linejoin="round"/>
<path d="M8.00781 7.14062V13.1818" stroke="white" stroke-linecap="round" stroke-linejoin="round"/>
<path d="M10.6883 7.14062L10.3008 13.1818" stroke="white" stroke-linecap="round" stroke-linejoin="round"/>
<path d="M1.19922 3.77344H14.819" stroke="white" stroke-linecap="round" stroke-linejoin="round"/>
</svg>
