<svg width="15" height="9" viewBox="0 0 15 9" fill="none" xmlns="http://www.w3.org/2000/svg">
<path fill-rule="evenodd" clip-rule="evenodd" d="M4 8.5C4 8.36739 4.05268 8.24021 4.14645 8.14645C4.24021 8.05268 4.36739 8 4.5 8H14.5C14.6326 8 14.7598 8.05268 14.8536 8.14645C14.9473 8.24021 15 8.36739 15 8.5C15 8.63261 14.9473 8.75979 14.8536 8.85355C14.7598 8.94732 14.6326 9 14.5 9H4.5C4.36739 9 4.24021 8.94732 4.14645 8.85355C4.05268 8.75979 4 8.63261 4 8.5ZM2 4.5C2 4.36739 2.05268 4.24021 2.14645 4.14645C2.24021 4.05268 2.36739 4 2.5 4H12.5C12.6326 4 12.7598 4.05268 12.8536 4.14645C12.9473 4.24021 13 4.36739 13 4.5C13 4.63261 12.9473 4.75979 12.8536 4.85355C12.7598 4.94732 12.6326 5 12.5 5H2.5C2.36739 5 2.24021 4.94732 2.14645 4.85355C2.05268 4.75979 2 4.63261 2 4.5ZM0 0.5C0 0.367392 0.0526784 0.240215 0.146447 0.146447C0.240215 0.0526785 0.367392 0 0.5 0H10.5C10.6326 0 10.7598 0.0526785 10.8536 0.146447C10.9473 0.240215 11 0.367392 11 0.5C11 0.632608 10.9473 0.759785 10.8536 0.853553C10.7598 0.947321 10.6326 1 10.5 1H0.5C0.367392 1 0.240215 0.947321 0.146447 0.853553C0.0526784 0.759785 0 0.632608 0 0.5Z" fill="#262626"/>
</svg>
