<svg width="17" height="16" viewBox="0 0 17 16" fill="none" xmlns="http://www.w3.org/2000/svg">
<path d="M8.49992 1.3335C4.81992 1.3335 1.83325 4.32016 1.83325 8.00016C1.83325 11.6802 4.81992 14.6668 8.49992 14.6668C12.1799 14.6668 15.1666 11.6802 15.1666 8.00016C15.1666 4.32016 12.1799 1.3335 8.49992 1.3335ZM11.9599 10.6268C11.9333 10.6868 11.8999 10.7402 11.8533 10.7868L10.7266 11.9135C10.6266 12.0135 10.4999 12.0602 10.3733 12.0602C10.2466 12.0602 10.1199 12.0135 10.0199 11.9135C9.82659 11.7202 9.82659 11.4002 10.0199 11.2068L10.2933 10.9335H6.56659C5.69992 10.9335 4.99992 10.2268 4.99992 9.36683V8.18683C4.99992 7.9135 5.22659 7.68683 5.49992 7.68683C5.77325 7.68683 5.99992 7.9135 5.99992 8.18683V9.36683C5.99992 9.68016 6.25325 9.9335 6.56659 9.9335H10.2933L10.0199 9.66016C9.82659 9.46683 9.82659 9.14683 10.0199 8.9535C10.2133 8.76016 10.5333 8.76016 10.7266 8.9535L11.8533 10.0802C11.8999 10.1268 11.9333 10.1802 11.9599 10.2402C12.0133 10.3668 12.0133 10.5068 11.9599 10.6268ZM11.9999 7.8135C11.9999 8.08683 11.7733 8.3135 11.4999 8.3135C11.2266 8.3135 10.9999 8.08683 10.9999 7.8135V6.6335C10.9999 6.32016 10.7466 6.06683 10.4333 6.06683H6.70659L6.97992 6.3335C7.17325 6.52683 7.17325 6.84683 6.97992 7.04016C6.87992 7.14016 6.75325 7.18683 6.62659 7.18683C6.49992 7.18683 6.37325 7.14016 6.27325 7.04016L5.14659 5.9135C5.09992 5.86683 5.06659 5.8135 5.03992 5.7535C4.98659 5.6335 4.98659 5.4935 5.03992 5.3735C5.06659 5.3135 5.09992 5.2535 5.14659 5.20683L6.27325 4.08016C6.46659 3.88683 6.78659 3.88683 6.97992 4.08016C7.17325 4.2735 7.17325 4.5935 6.97992 4.78683L6.70659 5.06016H10.4333C11.2999 5.06016 11.9999 5.76683 11.9999 6.62683V7.8135Z" fill="#96A6BD"/>
</svg>
