<svg width="28" height="28" viewBox="0 0 28 28" fill="none" xmlns="http://www.w3.org/2000/svg">
<path d="M27.3333 4.77344C27.3344 3.9604 27.0942 3.16532 26.643 2.48895C26.1918 1.81257 25.5501 1.28534 24.799 0.974052C24.0479 0.662763 23.2213 0.581428 22.4239 0.740352C21.6266 0.899276 20.8943 1.29131 20.32 1.86677L16.5733 5.61344L7.91998 2.73344C7.68959 2.66103 7.44386 2.65255 7.20903 2.70891C6.97419 2.76527 6.75908 2.88435 6.58665 3.05344L3.41331 6.2001C3.26295 6.35221 3.15139 6.53825 3.08804 6.74253C3.02469 6.94681 3.01141 7.16333 3.04932 7.37382C3.08724 7.58432 3.17523 7.7826 3.30588 7.95193C3.43653 8.12127 3.606 8.25669 3.79998 8.34677L10.7066 11.4801L7.23998 14.9468L4.95998 13.8001C4.71381 13.6669 4.43195 13.6145 4.15436 13.6504C3.87676 13.6863 3.61749 13.8086 3.41331 14.0001L1.05331 16.4134C0.804977 16.6633 0.665588 17.0012 0.665588 17.3534C0.665588 17.7057 0.804977 18.0436 1.05331 18.2934L9.70664 26.9468C9.95646 27.1951 10.2944 27.3345 10.6466 27.3345C10.9989 27.3345 11.3368 27.1951 11.5866 26.9468L14 24.5868C14.2001 24.3887 14.3324 24.1324 14.3779 23.8546C14.4234 23.5768 14.3798 23.2916 14.2533 23.0401L13.1066 20.7601L16.5733 17.2934L19.7066 24.2001C19.7967 24.3941 19.9321 24.5636 20.1015 24.6942C20.2708 24.8248 20.4691 24.9128 20.6796 24.9508C20.8901 24.9887 21.1066 24.9754 21.3109 24.912C21.5152 24.8487 21.7012 24.7371 21.8533 24.5868L25 21.4401C25.1691 21.2677 25.2882 21.0526 25.3445 20.8177C25.4009 20.5829 25.3924 20.3372 25.32 20.1068L22.44 11.4534L26.1333 7.6801C26.5163 7.29953 26.8196 6.8465 27.0256 6.34745C27.2317 5.84841 27.3363 5.31333 27.3333 4.77344V4.77344ZM24.24 5.8001L19.92 10.1201C19.7509 10.2925 19.6318 10.5077 19.5754 10.7425C19.5191 10.9773 19.5276 11.223 19.6 11.4534L22.48 20.0934L21.28 21.2934L18.1466 14.4001C18.0577 14.2043 17.9228 14.033 17.7533 13.9006C17.5838 13.7683 17.3848 13.6789 17.1733 13.6401C16.9601 13.6012 16.7405 13.6148 16.5338 13.6799C16.327 13.7449 16.1392 13.8594 15.9866 14.0134L10.4933 19.5601C10.2961 19.7571 10.1656 20.011 10.1201 20.286C10.0747 20.5611 10.1166 20.8435 10.24 21.0934L11.3333 23.3334L10.5866 24.0801L3.87998 17.3601L4.66665 16.6668L6.94665 17.8134C7.19663 17.9368 7.479 17.9787 7.75404 17.9333C8.02908 17.8878 8.28296 17.7573 8.47998 17.5601L14 12.0134C14.1532 11.8614 14.2672 11.6745 14.3322 11.4687C14.3973 11.2629 14.4114 11.0444 14.3733 10.832C14.3353 10.6196 14.2463 10.4195 14.1139 10.2491C13.9815 10.0786 13.8097 9.94286 13.6133 9.85344L6.66665 6.7201L7.86665 5.5201L16.5066 8.4001C16.737 8.47252 16.9828 8.481 17.2176 8.42464C17.4524 8.36828 17.6675 8.24919 17.84 8.0801L22.16 3.7601C22.2928 3.62424 22.4515 3.51629 22.6267 3.44259C22.8018 3.36889 22.9899 3.33092 23.18 3.33092C23.37 3.33092 23.5581 3.36889 23.7333 3.44259C23.9084 3.51629 24.0671 3.62424 24.2 3.7601C24.3391 3.88896 24.4491 4.046 24.5226 4.22074C24.5962 4.39548 24.6317 4.58391 24.6266 4.77344C24.6339 4.9617 24.6034 5.14951 24.537 5.32582C24.4706 5.50213 24.3696 5.66339 24.24 5.8001V5.8001Z" fill="#717986"/>
</svg>
