<svg width="26" height="26" viewBox="0 0 26 26" fill="none" xmlns="http://www.w3.org/2000/svg">
<path d="M24.8267 20L21.2133 13.76C21.9527 12.402 22.3379 10.8796 22.3333 9.33333C22.3333 6.85798 21.35 4.48401 19.5997 2.73367C17.8493 0.98333 15.4754 0 13 0C10.5246 0 8.15067 0.98333 6.40033 2.73367C4.64999 4.48401 3.66666 6.85798 3.66666 9.33333C3.66207 10.8796 4.04727 12.402 4.78666 13.76L1.17333 20C1.05608 20.2031 0.994459 20.4335 0.994691 20.668C0.994922 20.9025 1.057 21.1328 1.17465 21.3356C1.2923 21.5385 1.46137 21.7067 1.6648 21.8234C1.86823 21.94 2.09883 22.0009 2.33333 22H6.16L8.10666 25.28C8.17229 25.3887 8.2531 25.4875 8.34666 25.5733C8.59383 25.8116 8.92337 25.9453 9.26666 25.9467H9.45333C9.65462 25.9191 9.84696 25.8459 10.0156 25.7327C10.1843 25.6195 10.3249 25.4692 10.4267 25.2933L13 20.8667L15.5733 25.3333C15.6766 25.5067 15.8178 25.6544 15.9864 25.7653C16.155 25.8761 16.3466 25.9473 16.5467 25.9733H16.7333C17.0812 25.9754 17.4162 25.8414 17.6667 25.6C17.7563 25.519 17.8328 25.4246 17.8933 25.32L19.84 22.04H23.6667C23.9016 22.0409 24.1326 21.9798 24.3363 21.8627C24.54 21.7456 24.7092 21.5768 24.8267 21.3733C24.9513 21.166 25.0171 20.9286 25.0171 20.6867C25.0171 20.4447 24.9513 20.2074 24.8267 20ZM9.25333 22.04L8.06666 20.0533C7.94981 19.8562 7.78414 19.6926 7.58563 19.5781C7.38711 19.4637 7.16245 19.4023 6.93333 19.4H4.62666L6.53333 16.0933C7.8463 17.3585 9.50109 18.2114 11.2933 18.5467L9.25333 22.04ZM13 16C11.6815 16 10.3925 15.609 9.29619 14.8765C8.19987 14.1439 7.34538 13.1027 6.8408 11.8846C6.33621 10.6664 6.20419 9.32594 6.46143 8.03273C6.71866 6.73952 7.3536 5.55164 8.28595 4.61929C9.2183 3.68694 10.4062 3.052 11.6994 2.79476C12.9926 2.53753 14.333 2.66955 15.5512 3.17414C16.7694 3.67872 17.8106 4.5332 18.5431 5.62953C19.2757 6.72586 19.6667 8.01479 19.6667 9.33333C19.6667 11.1014 18.9643 12.7971 17.714 14.0474C16.4638 15.2976 14.7681 16 13 16ZM19.0667 19.4C18.8375 19.4023 18.6129 19.4637 18.4144 19.5781C18.2159 19.6926 18.0502 19.8562 17.9333 20.0533L16.7467 22.04L14.72 18.5067C16.506 18.1645 18.1546 17.3124 19.4667 16.0533L21.3733 19.36L19.0667 19.4Z" fill="#717986"/>
</svg>
