<svg width="32" height="32" viewBox="0 0 32 32" fill="none" xmlns="http://www.w3.org/2000/svg">
<path fill-rule="evenodd" clip-rule="evenodd" d="M22.1841 14.1257C22.5985 14.1262 22.9697 14.3822 23.1173 14.7695C23.1557 14.8702 23.1875 14.9743 23.2124 15.0813L23.2124 15.0813C23.2547 15.2626 23.4626 15.3487 23.6207 15.2504C25.6621 13.9814 28.0185 16.3378 26.7495 18.3793C26.6512 18.5373 26.7373 18.7452 26.9186 18.7875C29.2595 19.3336 29.2595 22.6662 26.9186 23.2123C26.7373 23.2546 26.6512 23.4625 26.7495 23.6206C28.0185 25.662 25.6621 28.0184 23.6207 26.7494C23.4626 26.6511 23.2547 26.7372 23.2124 26.9185C22.6663 29.2593 19.3338 29.2593 18.7876 26.9185C18.7453 26.7372 18.5374 26.6511 18.3794 26.7494C16.3379 28.0184 13.9815 25.662 15.2505 23.6206C15.3488 23.4625 15.2627 23.2546 15.0814 23.2123C15.0814 23.2123 15.0814 23.2123 15.0814 23.2123M22.1841 14.1257C21.7697 14.1252 21.3979 14.3804 21.2494 14.7673L22.1841 14.1257ZM21.2494 14.7673C21.1817 14.9436 21.0429 15.0962 20.7751 15.1587L21.2494 14.7673ZM22.0386 16.7793C21.8001 16.9242 21.5298 17.0364 21.2295 17.1064C20.8202 17.2019 20.6059 17.6365 20.7522 18.0101C20.834 18.0033 20.9167 17.9999 21 17.9999C22.6569 17.9999 24 19.3431 24 20.9999C24 22.6568 22.6569 23.9999 21 23.9999C19.7726 23.9999 18.7178 23.2631 18.2531 22.2074C17.8721 22.1647 17.4879 22.0357 17.1225 21.8085L17.5401 21.1368L17.1225 21.8085C16.9261 21.6865 16.6989 21.6787 16.5074 21.7577C17.3135 22.4567 17.5661 23.684 16.9491 24.6765C16.8967 24.7607 16.8961 24.8169 16.9017 24.8537C16.9089 24.901 16.9354 24.9598 16.9877 25.0122C17.0401 25.0646 17.0989 25.091 17.1463 25.0983C17.183 25.1039 17.2392 25.1032 17.3235 25.0508C18.6446 24.2295 20.3818 24.9491 20.7353 26.4641C20.7578 26.5606 20.7971 26.6009 20.8271 26.6229C20.8657 26.6513 20.926 26.6741 21 26.6741C21.0741 26.6741 21.1344 26.6513 21.173 26.6229C21.2029 26.6009 21.2422 26.5606 21.2647 26.4641C21.6182 24.9491 23.3554 24.2295 24.6766 25.0508C24.7608 25.1032 24.817 25.1039 24.8538 25.0983C24.9011 25.091 24.9599 25.0646 25.0123 25.0122C25.0647 24.9598 25.0911 24.901 25.0984 24.8537C25.104 24.8169 25.1033 24.7607 25.0509 24.6765C24.2296 23.3553 24.9492 21.6181 26.4642 21.2646C26.5607 21.2421 26.601 21.2028 26.623 21.1729C26.6514 21.1343 26.6742 21.074 26.6742 20.9999C26.6742 20.9259 26.6514 20.8656 26.623 20.827C26.601 20.797 26.5608 20.7577 26.4642 20.7352C24.9492 20.3817 24.2296 18.6445 25.0509 17.3234C25.1033 17.2391 25.104 17.1829 25.0984 17.1462C25.0911 17.0988 25.0647 17.04 25.0123 16.9876C24.9599 16.9353 24.9011 16.9088 24.8538 16.9016C24.817 16.896 24.7608 16.8966 24.6766 16.949C23.8063 17.49 22.7555 17.3624 22.0386 16.7793ZM20.7751 15.1587C18.9902 15.5751 18.1425 17.6218 19.1101 19.1783L20.7751 15.1587ZM21 19.9999C20.8522 19.9999 20.7144 20.0313 20.5908 20.0869C20.3187 20.2093 20.0061 20.2037 19.7385 20.0718C19.4709 19.9398 19.2762 19.6953 19.2076 19.4049C19.1919 19.3388 19.1626 19.2627 19.1101 19.1783M21 19.9999C21.5523 19.9999 22 20.4476 22 20.9999L21 19.9999ZM14.1588 21.775C14.5752 19.9901 16.6219 19.1424 18.1784 20.11C18.3856 20.2388 18.5651 20.2426 18.7144 20.1971C19.0047 20.1086 19.3195 20.1568 19.5701 20.3281C19.8207 20.4994 19.9799 20.7752 20.003 21.0779C20.0421 21.5932 20.4741 21.9999 21 21.9999C21.5523 21.9999 22 21.5522 22 20.9999M14.1588 21.775L14.9462 21.9586L14.1588 21.775ZM15.0814 23.2123C14.9497 23.1816 14.8225 23.1406 14.7005 23.0896C14.2184 22.888 13.9728 22.3491 14.137 21.853C14.1449 21.8289 14.1523 21.8029 14.1588 21.775L14.9462 21.9586" fill="#717986"/>
<path fill-rule="evenodd" clip-rule="evenodd" d="M10.8935 6.77053C11.5369 4.01269 15.4631 4.01269 16.1065 6.77053C16.2118 7.22165 16.7291 7.43592 17.1225 7.19136C19.5275 5.69625 22.3037 8.47245 20.8086 10.8775C20.5641 11.2709 20.7783 11.7882 21.2295 11.8935C23.9873 12.5369 23.9873 16.4631 21.2295 17.1065C20.7783 17.2117 20.5641 17.729 20.8086 18.1225C22.3037 20.5275 19.5275 23.3037 17.1225 21.8086C16.7291 21.564 16.2118 21.7783 16.1065 22.2294C15.4631 24.9873 11.5369 24.9873 10.8935 22.2294C10.7882 21.7783 10.2709 21.564 9.87752 21.8086C7.47246 23.3037 4.69627 20.5275 6.19137 18.1225C6.43594 17.729 6.22167 17.2117 5.77054 17.1065C3.0127 16.4631 3.01271 12.5369 5.77054 11.8935C6.22167 11.7882 6.43594 11.2709 6.19137 10.8775C4.69626 8.47245 7.47246 5.69625 9.87752 7.19136C10.2709 7.43592 10.7882 7.22165 10.8935 6.77053ZM14.1588 7.22494C13.9962 6.52788 13.0038 6.52788 12.8412 7.22495C12.4248 9.00977 10.3781 9.85751 8.82162 8.8899C8.21373 8.51201 7.51202 9.21371 7.88992 9.82161C8.85753 11.3781 8.00978 13.4248 6.22496 13.8412C5.5279 14.0038 5.5279 14.9962 6.22496 15.1588C8.00978 15.5752 8.85753 17.6219 7.88992 19.1784C7.51202 19.7863 8.21373 20.488 8.82162 20.1101C10.3781 19.1425 12.4248 19.9902 12.8412 21.775C13.0038 22.4721 13.9962 22.4721 14.1588 21.775C14.5752 19.9902 16.6219 19.1425 18.1784 20.1101C18.7863 20.488 19.488 19.7863 19.1101 19.1784C18.1425 17.6219 18.9902 15.5752 20.775 15.1588C21.4721 14.9962 21.4721 14.0038 20.775 13.8412C18.9902 13.4248 18.1425 11.3781 19.1101 9.82161C19.488 9.21371 18.7863 8.51201 18.1784 8.8899C16.6219 9.85751 14.5752 9.00977 14.1588 7.22494Z" fill="#717986"/>
<path fill-rule="evenodd" clip-rule="evenodd" d="M13.5 13C12.6716 13 12 13.6716 12 14.5C12 15.3284 12.6716 16 13.5 16C14.3284 16 15 15.3284 15 14.5C15 13.6716 14.3284 13 13.5 13ZM10 14.5C10 12.567 11.567 11 13.5 11C15.433 11 17 12.567 17 14.5C17 16.433 15.433 18 13.5 18C11.567 18 10 16.433 10 14.5Z" fill="#717986"/>
</svg>
