<svg width="32" height="32" viewBox="0 0 32 32" fill="none" xmlns="http://www.w3.org/2000/svg">
<path fill-rule="evenodd" clip-rule="evenodd" d="M2 3C2 2.44772 2.44772 2 3 2H29C29.5523 2 30 2.44772 30 3V20C30 20.5523 29.5523 21 29 21H3C2.44772 21 2 20.5523 2 20V3ZM4 4V19H28V4H4Z" fill="#717986"/>
<path fill-rule="evenodd" clip-rule="evenodd" d="M16 19C16.3344 19 16.6466 19.1671 16.832 19.4453L22.832 28.4453C23.1384 28.9048 23.0142 29.5257 22.5547 29.8321C22.0952 30.1384 21.4743 30.0142 21.1679 29.5547L16 21.8028L10.832 29.5547C10.5257 30.0142 9.90483 30.1384 9.4453 29.8321C8.98577 29.5257 8.8616 28.9048 9.16795 28.4453L15.1679 19.4453C15.3534 19.1671 15.6656 19 16 19Z" fill="#717986"/>
<path fill-rule="evenodd" clip-rule="evenodd" d="M6 7C6 6.44772 6.44772 6 7 6H13C13.5523 6 14 6.44772 14 7C14 7.55228 13.5523 8 13 8H7C6.44772 8 6 7.55228 6 7ZM6 11C6 10.4477 6.44772 10 7 10H13C13.5523 10 14 10.4477 14 11C14 11.5523 13.5523 12 13 12H7C6.44772 12 6 11.5523 6 11ZM6 15C6 14.4477 6.44772 14 7 14H13C13.5523 14 14 14.4477 14 15C14 15.5523 13.5523 16 13 16H7C6.44772 16 6 15.5523 6 15Z" fill="#717986"/>
<path fill-rule="evenodd" clip-rule="evenodd" d="M21 8C19.3431 8 18 9.34315 18 11C18 12.6569 19.3431 14 21 14C22.6569 14 24 12.6569 24 11C24 9.34315 22.6569 8 21 8ZM16 11C16 8.23858 18.2386 6 21 6C23.7614 6 26 8.23858 26 11C26 13.7614 23.7614 16 21 16C18.2386 16 16 13.7614 16 11Z" fill="#717986"/>
</svg>
