<svg width="24" height="25" viewBox="0 0 24 25" fill="none" xmlns="http://www.w3.org/2000/svg">
<path d="M12 6.03418C12.5523 6.03418 13 5.58599 13 5.03311C13 4.48024 12.5523 4.03204 12 4.03204C11.4477 4.03204 11 4.48024 11 5.03311C11 5.58599 11.4477 6.03418 12 6.03418Z" stroke="#C5C6C7" stroke-width="2" stroke-linecap="round" stroke-linejoin="round"/>
<path d="M12 13.0417C12.5523 13.0417 13 12.5935 13 12.0406C13 11.4877 12.5523 11.0395 12 11.0395C11.4477 11.0395 11 11.4877 11 12.0406C11 12.5935 11.4477 13.0417 12 13.0417Z" stroke="#C5C6C7" stroke-width="2" stroke-linecap="round" stroke-linejoin="round"/>
<path d="M12 20.0491C12.5523 20.0491 13 19.6009 13 19.0481C13 18.4952 12.5523 18.047 12 18.047C11.4477 18.047 11 18.4952 11 19.0481C11 19.6009 11.4477 20.0491 12 20.0491Z" stroke="#C5C6C7" stroke-width="2" stroke-linecap="round" stroke-linejoin="round"/>
</svg>
