<svg width="27" height="27" viewBox="0 0 27 27" fill="none" xmlns="http://www.w3.org/2000/svg">
<path d="M14.6667 6.66667H12V12H6.66667V14.6667H12V20H14.6667V14.6667H20V12H14.6667V6.66667ZM13.3333 0C5.97333 0 0 5.97333 0 13.3333C0 20.6933 5.97333 26.6667 13.3333 26.6667C20.6933 26.6667 26.6667 20.6933 26.6667 13.3333C26.6667 5.97333 20.6933 0 13.3333 0ZM13.3333 24C7.45333 24 2.66667 19.2133 2.66667 13.3333C2.66667 7.45333 7.45333 2.66667 13.3333 2.66667C19.2133 2.66667 24 7.45333 24 13.3333C24 19.2133 19.2133 24 13.3333 24Z" fill="#00DB99"/>
</svg>
