<svg width="14" height="12" viewBox="0 0 14 12" fill="none" xmlns="http://www.w3.org/2000/svg">
<path fill-rule="evenodd" clip-rule="evenodd" d="M2 1H5.5V4.4H2V1V1ZM1 1C1 0.447716 1.44772 0 2 0H5.5C6.05228 0 6.5 0.447715 6.5 1V4.4C6.5 4.95228 6.05228 5.4 5.5 5.4H2C1.44772 5.4 1 4.95228 1 4.4V1ZM8.5 1H12V4.4H8.5V1ZM7.5 1C7.5 0.447716 7.94772 0 8.5 0H12C12.5523 0 13 0.447715 13 1V4.4C13 4.95228 12.5523 5.4 12 5.4H8.5C7.94772 5.4 7.5 4.95228 7.5 4.4V1ZM12 7.6H8.5V11H12V7.6ZM8.5 6.6C7.94772 6.6 7.5 7.04772 7.5 7.6V11C7.5 11.5523 7.94772 12 8.5 12H12C12.5523 12 13 11.5523 13 11V7.6C13 7.04772 12.5523 6.6 12 6.6H8.5ZM2 7.6H5.5V11H2V7.6ZM1 7.6C1 7.04772 1.44772 6.6 2 6.6H5.5C6.05228 6.6 6.5 7.04772 6.5 7.6V11C6.5 11.5523 6.05228 12 5.5 12H2C1.44772 12 1 11.5523 1 11V7.6Z" fill="#00DB99"/>
</svg>
