<svg width="22" height="23" viewBox="0 0 22 23" fill="none" xmlns="http://www.w3.org/2000/svg">
<path d="M11 20.875C12.78 20.875 14.5201 20.3252 16.0001 19.295C17.4802 18.2649 18.6337 16.8007 19.3149 15.0877C19.9961 13.3746 20.1743 11.4896 19.8271 9.67103C19.4798 7.85246 18.6226 6.182 17.364 4.87088C16.1053 3.55976 14.5016 2.66688 12.7558 2.30514C11.01 1.94341 9.20038 2.12906 7.55585 2.83863C5.91131 3.54821 4.50571 4.74982 3.51677 6.29153C2.52784 7.83324 2 9.6458 2 11.5C2 13.05 2.36 14.5115 3 15.799L2 20.875L6.873 19.8333C8.109 20.5 9.513 20.875 11 20.875Z" stroke="#0066FF" stroke-width="2.5" stroke-linecap="round" stroke-linejoin="round"/>
</svg>
