<svg width="24" height="28" viewBox="0 0 24 28" fill="none" xmlns="http://www.w3.org/2000/svg">
<path d="M18.6667 0.666748C17.9333 0.666748 17.3333 1.26675 17.3333 2.00008V3.33341H6.66667V2.00008C6.66667 1.26675 6.06667 0.666748 5.33333 0.666748C4.6 0.666748 4 1.26675 4 2.00008V3.33341H2.66667C1.18667 3.33341 0.0133333 4.53341 0.0133333 6.00008L0 24.6667C0 25.374 0.280951 26.0523 0.781048 26.5524C1.28115 27.0525 1.95942 27.3334 2.66667 27.3334H21.3333C22.8 27.3334 24 26.1334 24 24.6667V6.00008C24 4.53341 22.8 3.33341 21.3333 3.33341H20V2.00008C20 1.26675 19.4 0.666748 18.6667 0.666748ZM21.3333 24.6667H2.66667V11.3334H21.3333V24.6667ZM10.6667 15.3334C10.6667 14.6001 11.2667 14.0001 12 14.0001C12.7333 14.0001 13.3333 14.6001 13.3333 15.3334C13.3333 16.0667 12.7333 16.6667 12 16.6667C11.2667 16.6667 10.6667 16.0667 10.6667 15.3334ZM5.33333 15.3334C5.33333 14.6001 5.93333 14.0001 6.66667 14.0001C7.4 14.0001 8 14.6001 8 15.3334C8 16.0667 7.4 16.6667 6.66667 16.6667C5.93333 16.6667 5.33333 16.0667 5.33333 15.3334ZM16 15.3334C16 14.6001 16.6 14.0001 17.3333 14.0001C18.0667 14.0001 18.6667 14.6001 18.6667 15.3334C18.6667 16.0667 18.0667 16.6667 17.3333 16.6667C16.6 16.6667 16 16.0667 16 15.3334ZM10.6667 20.6667C10.6667 19.9334 11.2667 19.3334 12 19.3334C12.7333 19.3334 13.3333 19.9334 13.3333 20.6667C13.3333 21.4001 12.7333 22.0001 12 22.0001C11.2667 22.0001 10.6667 21.4001 10.6667 20.6667ZM5.33333 20.6667C5.33333 19.9334 5.93333 19.3334 6.66667 19.3334C7.4 19.3334 8 19.9334 8 20.6667C8 21.4001 7.4 22.0001 6.66667 22.0001C5.93333 22.0001 5.33333 21.4001 5.33333 20.6667ZM16 20.6667C16 19.9334 16.6 19.3334 17.3333 19.3334C18.0667 19.3334 18.6667 19.9334 18.6667 20.6667C18.6667 21.4001 18.0667 22.0001 17.3333 22.0001C16.6 22.0001 16 21.4001 16 20.6667Z" fill="#5271ff"/>
</svg>
