<svg width="18" height="22" viewBox="0 0 18 22" fill="none" xmlns="http://www.w3.org/2000/svg">
<path d="M13.4503 21H4.60695C4.28924 20.9994 3.98317 20.8828 3.74849 20.6731C3.51381 20.4633 3.36737 20.1755 3.33775 19.8657L1.94531 4.80957H16.112L14.7154 19.8657C14.6859 20.1748 14.54 20.4621 14.3062 20.6717C14.0724 20.8814 13.7673 20.9984 13.4503 21Z" stroke="#969DB2" stroke-width="1.5" stroke-linecap="round" stroke-linejoin="round"/>
<path d="M6.71472 1H11.3377C11.6019 1 11.8552 1.13186 12.042 1.36657C12.2288 1.60128 12.3338 1.91962 12.3338 2.25156V4.80952H5.72266V2.25156C5.72265 1.92048 5.82705 1.6029 6.01298 1.36833C6.19892 1.13376 6.45124 1.00132 6.71472 1Z" stroke="#969DB2" stroke-width="1.5" stroke-linecap="round" stroke-linejoin="round"/>
<path d="M5.72266 8.61914L6.6671 16.2382" stroke="#969DB2" stroke-width="1.5" stroke-linecap="round" stroke-linejoin="round"/>
<path d="M9.5 8.61914V16.2382" stroke="#969DB2" stroke-width="1.5" stroke-linecap="round" stroke-linejoin="round"/>
<path d="M12.334 8.61914V16.2382" stroke="#969DB2" stroke-width="1.5" stroke-linecap="round" stroke-linejoin="round"/>
<path d="M1 4H17" stroke="#969DB2" stroke-width="1.5" stroke-linecap="round" stroke-linejoin="round"/>
</svg>
