<svg width="25" height="25" viewBox="0 0 25 25" fill="none" xmlns="http://www.w3.org/2000/svg">
<path d="M11.2917 8.87499H16.125C16.4455 8.87499 16.7528 8.74768 16.9794 8.52108C17.206 8.29447 17.3333 7.98713 17.3333 7.66666C17.3333 7.34619 17.206 7.03884 16.9794 6.81224C16.7528 6.58563 16.4455 6.45832 16.125 6.45832H13.7083V5.24999C13.7083 4.92952 13.581 4.62218 13.3544 4.39557C13.1278 4.16896 12.8205 4.04166 12.5 4.04166C12.1795 4.04166 11.8722 4.16896 11.6456 4.39557C11.419 4.62218 11.2917 4.92952 11.2917 5.24999V6.45832C10.3302 6.45832 9.40821 6.84024 8.72839 7.52006C8.04857 8.19988 7.66666 9.12191 7.66666 10.0833C7.66666 11.0447 8.04857 11.9668 8.72839 12.6466C9.40821 13.3264 10.3302 13.7083 11.2917 13.7083H13.7083C14.0288 13.7083 14.3361 13.8356 14.5627 14.0622C14.7894 14.2888 14.9167 14.5962 14.9167 14.9167C14.9167 15.2371 14.7894 15.5445 14.5627 15.7711C14.3361 15.9977 14.0288 16.125 13.7083 16.125H8.87499C8.55452 16.125 8.24718 16.2523 8.02057 16.4789C7.79396 16.7055 7.66666 17.0129 7.66666 17.3333C7.66666 17.6538 7.79396 17.9611 8.02057 18.1877C8.24718 18.4144 8.55452 18.5417 8.87499 18.5417H11.2917V19.75C11.2917 20.0705 11.419 20.3778 11.6456 20.6044C11.8722 20.831 12.1795 20.9583 12.5 20.9583C12.8205 20.9583 13.1278 20.831 13.3544 20.6044C13.581 20.3778 13.7083 20.0705 13.7083 19.75V18.5417C14.6697 18.5417 15.5918 18.1597 16.2716 17.4799C16.9514 16.8001 17.3333 15.8781 17.3333 14.9167C17.3333 13.9552 16.9514 13.0332 16.2716 12.3534C15.5918 11.6736 14.6697 11.2917 13.7083 11.2917H11.2917C10.9712 11.2917 10.6638 11.1644 10.4372 10.9377C10.2106 10.7111 10.0833 10.4038 10.0833 10.0833C10.0833 9.76285 10.2106 9.45551 10.4372 9.2289C10.6638 9.0023 10.9712 8.87499 11.2917 8.87499ZM20.9583 0.416656H4.04166C3.08025 0.416656 2.15821 0.798575 1.47839 1.47839C0.798575 2.15821 0.416656 3.08025 0.416656 4.04166V20.9583C0.416656 21.9197 0.798575 22.8418 1.47839 23.5216C2.15821 24.2014 3.08025 24.5833 4.04166 24.5833H20.9583C21.9197 24.5833 22.8418 24.2014 23.5216 23.5216C24.2014 22.8418 24.5833 21.9197 24.5833 20.9583V4.04166C24.5833 3.08025 24.2014 2.15821 23.5216 1.47839C22.8418 0.798575 21.9197 0.416656 20.9583 0.416656ZM22.1667 20.9583C22.1667 21.2788 22.0394 21.5861 21.8127 21.8127C21.5861 22.0394 21.2788 22.1667 20.9583 22.1667H4.04166C3.72119 22.1667 3.41384 22.0394 3.18724 21.8127C2.96063 21.5861 2.83332 21.2788 2.83332 20.9583V4.04166C2.83332 3.72119 2.96063 3.41384 3.18724 3.18724C3.41384 2.96063 3.72119 2.83332 4.04166 2.83332H20.9583C21.2788 2.83332 21.5861 2.96063 21.8127 3.18724C22.0394 3.41384 22.1667 3.72119 22.1667 4.04166V20.9583Z" fill="#00DB99"/>
</svg>
