<svg width="32" height="32" viewBox="0 0 32 32" fill="none" xmlns="http://www.w3.org/2000/svg">
<path d="M16.6673 30.6666C20.7207 30.6666 24.0007 27.3866 24.0007 23.3333V7.99992H22.0007V23.3333C22.0007 26.2799 19.614 28.6666 16.6673 28.6666C13.7207 28.6666 11.334 26.2799 11.334 23.3333V6.66659C11.334 5.78253 11.6852 4.93468 12.3103 4.30956C12.9354 3.68444 13.7833 3.33325 14.6673 3.33325C15.5514 3.33325 16.3992 3.68444 17.0243 4.30956C17.6495 4.93468 18.0007 5.78253 18.0007 6.66659V20.6666C18.0007 21.3999 17.4007 21.9999 16.6673 21.9999C15.934 21.9999 15.334 21.3999 15.334 20.6666V7.99992H13.334V20.6666C13.334 21.5506 13.6852 22.3985 14.3103 23.0236C14.9354 23.6487 15.7833 23.9999 16.6673 23.9999C17.5514 23.9999 18.3992 23.6487 19.0243 23.0236C19.6495 22.3985 20.0007 21.5506 20.0007 20.6666V6.66659C20.0007 3.71992 17.614 1.33325 14.6673 1.33325C11.7207 1.33325 9.33398 3.71992 9.33398 6.66659V23.3333C9.33398 27.3866 12.614 30.6666 16.6673 30.6666Z" fill="#5271ff"/>
</svg>
