<svg width="14" height="14" viewBox="0 0 14 14" fill="none" xmlns="http://www.w3.org/2000/svg">
<path d="M12.8333 4.229H9.33325C9.09409 4.229 8.89575 4.03067 8.89575 3.7915C8.89575 3.55234 9.09409 3.354 9.33325 3.354H12.8333C13.0724 3.354 13.2708 3.55234 13.2708 3.7915C13.2708 4.03067 13.0724 4.229 12.8333 4.229Z" fill="#121824"/>
<path d="M3.50008 4.229H1.16675C0.927581 4.229 0.729248 4.03067 0.729248 3.7915C0.729248 3.55234 0.927581 3.354 1.16675 3.354H3.50008C3.73925 3.354 3.93758 3.55234 3.93758 3.7915C3.93758 4.03067 3.73925 4.229 3.50008 4.229Z" fill="#121824"/>
<path d="M5.83341 6.27083C4.46841 6.27083 3.35425 5.15667 3.35425 3.79167C3.35425 2.42667 4.46841 1.3125 5.83341 1.3125C7.19841 1.3125 8.31258 2.42667 8.31258 3.79167C8.31258 5.15667 7.19841 6.27083 5.83341 6.27083ZM5.83341 2.1875C4.94675 2.1875 4.22925 2.905 4.22925 3.79167C4.22925 4.67833 4.94675 5.39583 5.83341 5.39583C6.72008 5.39583 7.43758 4.67833 7.43758 3.79167C7.43758 2.905 6.72008 2.1875 5.83341 2.1875Z" fill="#121824"/>
<path d="M12.8333 10.646H10.5C10.2608 10.646 10.0625 10.4477 10.0625 10.2085C10.0625 9.96933 10.2608 9.771 10.5 9.771H12.8333C13.0725 9.771 13.2708 9.96933 13.2708 10.2085C13.2708 10.4477 13.0725 10.646 12.8333 10.646Z" fill="#121824"/>
<path d="M4.66675 10.646H1.16675C0.927581 10.646 0.729248 10.4477 0.729248 10.2085C0.729248 9.96933 0.927581 9.771 1.16675 9.771H4.66675C4.90591 9.771 5.10425 9.96933 5.10425 10.2085C5.10425 10.4477 4.90591 10.646 4.66675 10.646Z" fill="#121824"/>
<path d="M8.16667 12.6873C6.80167 12.6873 5.6875 11.5732 5.6875 10.2082C5.6875 8.84317 6.80167 7.729 8.16667 7.729C9.53167 7.729 10.6458 8.84317 10.6458 10.2082C10.6458 11.5732 9.53167 12.6873 8.16667 12.6873ZM8.16667 8.604C7.28 8.604 6.5625 9.3215 6.5625 10.2082C6.5625 11.0948 7.28 11.8123 8.16667 11.8123C9.05333 11.8123 9.77083 11.0948 9.77083 10.2082C9.77083 9.3215 9.05333 8.604 8.16667 8.604Z" fill="#121824"/>
</svg>
