<svg width="22" height="18" viewBox="0 0 22 18" fill="none" xmlns="http://www.w3.org/2000/svg">
<g clip-path="url(#clip0_379_933)">
<path d="M7.27881 12.3019C7.27881 13.3873 6.3606 14.2706 5.23951 14.2706C4.11843 14.2706 3.20022 13.3873 3.20022 12.3019C3.20022 11.2166 4.11843 10.3333 5.23951 10.3333C6.3606 10.3333 7.27881 11.2166 7.27881 12.3019Z" fill="white"/>
<path d="M17.5842 13.7706C18.4465 13.7706 19.1235 13.0942 19.1235 12.3019C19.1235 11.5097 18.4465 10.8333 17.5842 10.8333C16.722 10.8333 16.0449 11.5097 16.0449 12.3019C16.0449 13.0942 16.722 13.7706 17.5842 13.7706Z" fill="white" fill-opacity="0.1" stroke="white"/>
<path d="M8.53418 5.09039C7.59098 5.6201 6.83964 6.34669 6.30091 7.18723C6.20921 7.33247 6.01375 7.37814 5.86404 7.28906C5.71453 7.19999 5.66752 7.00991 5.75921 6.86467L5.76154 6.86118C6.35364 5.9369 7.18185 5.13709 8.21653 4.55594C11.3703 2.78845 14.3543 3.6615 16.4433 6.46477L16.4433 4.37656C16.4408 4.20623 16.581 4.06593 16.7565 4.06367C16.9321 4.06141 17.0763 4.19739 17.0786 4.36792C17.0786 4.3708 17.0786 4.37368 17.0786 4.37656L17.0786 7.40262C17.0786 7.57295 16.9363 7.71119 16.761 7.71119L13.6438 7.71119C13.4685 7.71366 13.324 7.57747 13.3217 7.40694C13.3194 7.2364 13.4596 7.09631 13.6349 7.09405C13.6379 7.09405 13.6408 7.09405 13.644 7.09405L16.1174 7.09405C14.274 4.32801 11.5076 3.42411 8.53418 5.09039Z" fill="white"/>
</g>
<defs>
<clipPath id="clip0_379_933">
<rect width="18" height="22" fill="white" transform="matrix(4.37114e-08 -1 -1 -4.37114e-08 22 18)"/>
</clipPath>
</defs>
</svg>
