<svg width="19" height="19" viewBox="0 0 19 19" fill="none" xmlns="http://www.w3.org/2000/svg">
<g clip-path="url(#clip0_3086_6855)">
<path d="M5.51683 8.38237C6.13192 8.13096 6.13192 8.13096 5.90126 7.45055C6.37872 6.97849 6.86079 6.48722 7.3667 6.02131C7.44359 5.95365 7.65426 5.95903 7.75575 6.01669C8.01946 6.16585 8.19322 6.1497 8.25473 5.83217C8.30702 5.56539 8.45309 5.50466 8.71066 5.51234C9.34727 5.53156 9.98466 5.51849 10.6113 5.51849C10.8958 6.13355 10.8958 6.13355 11.5485 5.9029C12.0221 6.38035 12.515 6.86163 12.9817 7.36367C13.0486 7.44056 13.0409 7.64968 12.9817 7.7527C12.8394 8.01487 12.8471 8.19016 13.167 8.25244C13.433 8.30472 13.496 8.45079 13.4876 8.70912C13.4683 9.34571 13.4814 9.98306 13.4814 10.6166C13.4081 10.6576 13.3308 10.6911 13.2508 10.7165C12.8663 10.7934 12.8164 10.9772 13.0047 11.3062C13.0547 11.3931 13.0093 11.5999 12.9332 11.6829C12.5426 12.1035 12.1198 12.4933 11.7269 12.9131C11.5677 13.0814 11.4293 13.1245 11.2387 12.9899C10.9911 12.8177 10.8043 12.8523 10.7435 13.1691C10.692 13.4382 10.5421 13.4958 10.2868 13.4881C9.6502 13.4697 9.01282 13.482 8.38236 13.482C8.34496 13.421 8.31454 13.356 8.29164 13.2882C8.21936 12.9138 8.05559 12.7824 7.69039 13.0107C7.6135 13.0599 7.41437 13.0292 7.34133 12.9615C6.89462 12.5425 6.45791 12.1119 6.04427 11.6606C5.96738 11.5784 5.96123 11.3531 6.01736 11.2455C6.15652 10.9787 6.14345 10.8026 5.82745 10.7442C5.55527 10.6935 5.50146 10.5443 5.50838 10.2891C5.52914 9.65401 5.51683 9.01665 5.51683 8.38237ZM8.08174 12.195C8.24781 12.2919 8.57227 12.3695 8.6507 12.5517C8.78602 12.8669 8.97669 12.8838 9.2404 12.8723C9.47106 12.8631 9.70172 12.8608 9.93238 12.8723C10.1231 12.8831 10.2322 12.8331 10.2945 12.6309C10.3637 12.4079 10.8904 12.1335 11.0695 12.2411C11.3724 12.4218 11.5308 12.2611 11.71 12.0643C11.8555 11.9025 12.0095 11.7485 12.1713 11.603C12.3197 11.47 12.375 11.3554 12.2789 11.1417C12.1336 10.8249 12.3043 10.4497 12.5319 10.3598C12.9163 10.2014 12.8763 9.95155 12.874 9.66785C12.874 9.47641 12.864 9.28343 12.874 9.0943C12.8886 8.89287 12.8456 8.76755 12.6241 8.69759C12.3796 8.62071 12.1459 8.09714 12.2605 7.8834C12.385 7.65275 12.3151 7.5136 12.1428 7.36137C11.9527 7.193 11.773 7.01328 11.6046 6.82319C11.4662 6.66943 11.3432 6.62253 11.1433 6.73016C10.9434 6.8378 10.3799 6.63944 10.3306 6.43647C10.2491 6.10434 10.03 6.11741 9.78091 6.12894C9.5318 6.14047 9.29345 6.10665 9.05588 6.14047C8.99038 6.15368 8.92817 6.17979 8.87286 6.21727C8.81755 6.25476 8.77026 6.30287 8.73373 6.35882C8.57996 6.62483 8.12787 6.82627 7.8434 6.73247C7.31827 6.56025 7.23984 7.11688 6.94075 7.31216C6.78313 7.41365 6.55633 7.54281 6.72548 7.83573C6.83542 8.02563 6.66243 8.61379 6.46945 8.66299C6.10885 8.75448 6.11885 8.99435 6.13192 9.27036C6.14345 9.51177 6.12423 9.75549 6.14038 9.99613C6.14313 10.043 6.15523 10.0888 6.17596 10.131C6.19669 10.1731 6.22563 10.2106 6.26108 10.2414C6.7224 10.5335 6.8039 10.7296 6.68472 11.2716C6.67012 11.3354 6.68472 11.4515 6.72163 11.4738C7.14911 11.7191 7.26675 12.531 8.08174 12.195Z" fill="#767676"/>
<path d="M6.01172 17.0504L6.28313 16.4838C10.7963 18.369 14.5414 15.9187 15.8462 13.6791L14.1862 14.0782C14.1332 13.8983 14.0801 13.7207 14.014 13.5L16.8019 12.7988C16.9203 13.7345 17.0325 14.6379 17.1548 15.5866L16.5535 15.6512C16.4874 15.1607 16.4251 14.6971 16.3552 14.1819C13.5934 17.6194 10.1782 18.5835 6.01172 17.0504Z" fill="#767676"/>
<path d="M4.28936 4.90514C3.80498 4.90514 3.3206 4.91129 2.83622 4.90514C2.2119 4.89592 1.84516 4.52841 1.84132 3.89798C1.83414 2.92926 1.83414 1.96079 1.84132 0.992585C1.84593 0.385982 2.21575 0.0131011 2.81853 0.00771932C3.7996 3.106e-05 4.78092 3.106e-05 5.76249 0.00771932C6.36681 0.0138699 6.73278 0.385214 6.73817 0.994124C6.74586 1.97515 6.74586 2.95642 6.73817 3.93796C6.73202 4.52227 6.36143 4.8913 5.78017 4.9036C5.28349 4.91283 4.78604 4.90437 4.28936 4.90514ZM2.45256 2.41568C2.45256 2.87698 2.46486 3.33289 2.44795 3.79111C2.43488 4.14554 2.56404 4.30238 2.93386 4.297C3.83727 4.28316 4.74145 4.2847 5.64562 4.297C5.98161 4.30161 6.13615 4.18244 6.13231 3.83109C6.12077 2.91465 6.12231 1.99744 6.13231 1.081C6.13231 0.764246 6.02083 0.611249 5.68638 0.614324C4.7576 0.62355 3.8283 0.62355 2.8985 0.614324C2.56712 0.614324 2.44257 0.76117 2.45103 1.07562C2.46102 1.52461 2.45256 1.97053 2.45256 2.41568Z" fill="#767676"/>
<path d="M14.0954 9.46909C14.0954 8.98473 14.0877 8.50037 14.0954 8.01601C14.1077 7.43324 14.4744 7.0619 15.0588 7.05652C16.0521 7.04627 17.046 7.04627 18.0404 7.05652C18.6193 7.06344 18.9861 7.44093 18.9915 8.02754C19.0007 9.00857 19.0007 9.98959 18.9915 10.9706C18.9861 11.5734 18.6124 11.947 18.0089 11.9524C17.0278 11.9606 16.0465 11.9606 15.0649 11.9524C14.466 11.947 14.1023 11.568 14.0938 10.9606C14.0885 10.4601 14.0954 9.96268 14.0954 9.46909ZM16.545 11.3412C17.0063 11.3412 17.4622 11.3327 17.9197 11.3412C18.238 11.3496 18.3902 11.2289 18.3864 10.896C18.3782 9.96678 18.3782 9.03727 18.3864 8.1075C18.3864 7.77767 18.2434 7.6562 17.9251 7.65928C17.0081 7.66902 16.0911 7.66902 15.1741 7.65928C14.8566 7.65928 14.7035 7.77229 14.7074 8.1052C14.7156 9.03445 14.7156 9.96396 14.7074 10.8937C14.7074 11.2266 14.8542 11.3489 15.1687 11.3412C15.6269 11.3304 16.0852 11.3389 16.5442 11.3381L16.545 11.3412Z" fill="#767676"/>
<path d="M0.00146402 16.5474C0.00146402 16.05 -0.00622455 15.5533 0.00146402 15.0567C0.0137657 14.4754 0.385897 14.1041 0.967153 14.0987C1.94822 14.0895 2.92954 14.0895 3.91111 14.0987C4.52005 14.1041 4.89217 14.4701 4.89755 15.0736C4.90678 16.0546 4.90678 17.0359 4.89755 18.0174C4.89217 18.6202 4.5185 18.9908 3.91264 18.9954C2.94388 19.0041 1.97538 19.0041 1.00714 18.9954C0.376672 18.9954 0.00762276 18.6248 -6.58124e-05 17.9997C-0.00467896 17.5161 0.00146402 17.0318 0.00146402 16.5474ZM2.41337 18.3849C2.87468 18.3849 3.33062 18.3726 3.78809 18.3849C4.14176 18.3972 4.30092 18.2704 4.29477 17.899C4.28016 16.9957 4.28247 16.0915 4.29477 15.1874C4.29938 14.8537 4.18329 14.6961 3.83346 14.7007C2.91698 14.713 1.99973 14.7107 1.08325 14.7007C0.765713 14.7007 0.613474 14.8153 0.61655 15.1474C0.624751 16.0772 0.624751 17.0067 0.61655 17.9359C0.612705 18.2688 0.76417 18.3903 1.07786 18.3826C1.52149 18.3757 1.96743 18.388 2.41337 18.388V18.3849Z" fill="#767676"/>
<path d="M7.41797 1.53628L9.62997 0.0585938L9.97442 0.5591L9.02103 1.21183C12.5247 1.21183 15.095 2.66568 16.8457 5.66257L16.3075 5.95395C14.6929 3.18156 12.3048 1.81536 9.09023 1.90301L9.96058 2.51115L9.63612 3.01012L7.41797 1.53628Z" fill="#767676"/>
<path d="M2.00862 6.00977L2.5422 6.26348C1.72029 8.17939 1.57421 10.1115 2.42072 12.0735C2.53528 11.6122 2.65138 11.1578 2.7744 10.6642L3.36027 10.8065C3.13653 11.7414 2.91971 12.6517 2.68982 13.6127L0.167969 12.2242C0.262538 12.0474 0.345572 11.8928 0.453212 11.6906L1.80025 12.4179C1.40121 11.3185 1.17901 10.2652 1.23206 9.17579C1.27387 8.07876 1.53807 7.00165 2.00862 6.00977Z" fill="#767676"/>
<path d="M11.9479 9.48725C11.9505 9.9713 11.8096 10.4453 11.543 10.8493C11.2764 11.2533 10.896 11.5693 10.4499 11.7573C10.0039 11.9454 9.51209 11.997 9.03669 11.9058C8.56128 11.8146 8.12358 11.5845 7.77882 11.2447C7.43406 10.9049 7.19773 10.4705 7.09964 9.99653C7.00156 9.5225 7.04612 9.03005 7.22771 8.58134C7.40931 8.13263 7.71978 7.74778 8.11994 7.47538C8.52011 7.20298 8.99202 7.05525 9.47608 7.05083C10.1269 7.04654 10.7527 7.30072 11.2162 7.75756C11.6797 8.21439 11.9429 8.8365 11.9479 9.48725ZM9.51605 11.337C9.88015 11.3336 10.235 11.2221 10.5356 11.0165C10.8361 10.811 11.0688 10.5208 11.2041 10.1828C11.3394 9.84471 11.3711 9.47409 11.2953 9.11797C11.2195 8.76184 11.0395 8.43629 10.7783 8.18265C10.5171 7.92901 10.1864 7.75873 9.82814 7.69344C9.46992 7.62815 9.10038 7.6708 8.76645 7.81596C8.43253 7.96113 8.14929 8.20226 7.95269 8.50873C7.7561 8.81521 7.65504 9.17319 7.66234 9.53722C7.67421 10.0202 7.87501 10.4792 8.22161 10.8157C8.56821 11.1522 9.03296 11.3394 9.51605 11.337Z" fill="#767676"/>
<path d="M5.2943 1.29297L5.66951 1.68661L3.64972 3.70862L2.88086 2.93134L3.3068 2.59613L3.72352 2.95748L5.2943 1.29297Z" fill="#767676"/>
<path d="M15.1191 9.99506L15.5182 9.60527L15.9641 9.98968C16.4854 9.44689 17.0013 8.90794 17.551 8.33594L17.9201 8.74726C17.2414 9.42024 16.5661 10.0883 15.8941 10.7516L15.1191 9.99506Z" fill="#767676"/>
<path d="M1.78333 17.7965C1.57497 17.5828 1.32817 17.3275 1.06445 17.0561L1.47194 16.6901L1.85637 17.0215C2.37227 16.4833 2.88664 15.9452 3.44714 15.3555L3.79313 15.7914L1.78333 17.7965Z" fill="#767676"/>
<path d="M9.53165 8.27557C9.77425 8.28181 10.0095 8.35997 10.2076 8.50015C10.4057 8.64032 10.5577 8.83618 10.6443 9.06288C10.7309 9.28958 10.7482 9.5369 10.694 9.77344C10.6398 10.01 10.5166 10.2251 10.3399 10.3915C10.1632 10.5579 9.94113 10.668 9.70176 10.7079C9.46238 10.7479 9.21654 10.7158 8.99542 10.6158C8.7743 10.5158 8.58789 10.3524 8.45982 10.1462C8.33175 9.94009 8.26781 9.70056 8.27611 9.45803C8.28989 9.13615 8.42887 8.83238 8.66341 8.61149C8.89795 8.3906 9.20951 8.27006 9.53165 8.27557ZM9.5032 10.11C9.62368 10.1089 9.74115 10.0722 9.84077 10.0044C9.94039 9.93664 10.0177 9.84088 10.0629 9.7292C10.1082 9.61753 10.1193 9.49496 10.0949 9.37697C10.0705 9.25898 10.0117 9.15086 9.92594 9.06626C9.84015 8.98165 9.73122 8.92436 9.6129 8.90162C9.49458 8.87887 9.37217 8.8917 9.26113 8.93847C9.15009 8.98524 9.0554 9.06386 8.98901 9.1644C8.92262 9.26495 8.88751 9.38291 8.88811 9.50339C8.89034 9.66504 8.95612 9.81932 9.07123 9.93285C9.18635 10.0464 9.34152 10.11 9.5032 10.11Z" fill="#767676"/>
</g>
<defs>
<clipPath id="clip0_3086_6855">
<rect width="19" height="19" fill="white"/>
</clipPath>
</defs>
</svg>
