<svg width="19" height="19" viewBox="0 0 19 19" fill="none" xmlns="http://www.w3.org/2000/svg">
<g clip-path="url(#clip0_2980_4203)">
<path d="M5.51683 8.38139C6.13192 8.12999 6.13192 8.12999 5.90126 7.44958C6.37872 6.97752 6.86079 6.48624 7.3667 6.02033C7.44359 5.95267 7.65426 5.95806 7.75575 6.01572C8.01946 6.16487 8.19322 6.14872 8.25473 5.8312C8.30702 5.56441 8.45309 5.50368 8.71066 5.51137C9.34727 5.53059 9.98466 5.51751 10.6113 5.51751C10.8958 6.13258 10.8958 6.13258 11.5485 5.90193C12.0221 6.37937 12.515 6.86065 12.9817 7.3627C13.0486 7.43958 13.0409 7.6487 12.9817 7.75172C12.8394 8.01389 12.8471 8.18919 13.167 8.25146C13.433 8.30374 13.496 8.44982 13.4876 8.70814C13.4683 9.34473 13.4814 9.98209 13.4814 10.6156C13.4081 10.6567 13.3308 10.6902 13.2508 10.7155C12.8663 10.7924 12.8164 10.9762 13.0047 11.3052C13.0547 11.3921 13.0093 11.5989 12.9332 11.682C12.5426 12.1025 12.1198 12.4923 11.7269 12.9121C11.5677 13.0805 11.4293 13.1235 11.2387 12.989C10.9911 12.8167 10.8043 12.8513 10.7435 13.1681C10.692 13.4372 10.5421 13.4949 10.2868 13.4872C9.6502 13.4687 9.01282 13.481 8.38236 13.481C8.34496 13.42 8.31454 13.355 8.29164 13.2873C8.21936 12.9129 8.05559 12.7814 7.69039 13.0097C7.6135 13.0589 7.41437 13.0282 7.34133 12.9605C6.89462 12.5415 6.45791 12.111 6.04427 11.6597C5.96738 11.5774 5.96123 11.3521 6.01736 11.2445C6.15652 10.9777 6.14345 10.8017 5.82745 10.7432C5.55527 10.6925 5.50146 10.5433 5.50838 10.2881C5.52914 9.65303 5.51683 9.01567 5.51683 8.38139ZM8.08174 12.194C8.24781 12.2909 8.57227 12.3685 8.6507 12.5507C8.78602 12.866 8.97669 12.8829 9.2404 12.8713C9.47106 12.8621 9.70172 12.8598 9.93238 12.8713C10.1231 12.8821 10.2322 12.8321 10.2945 12.6299C10.3637 12.407 10.8904 12.1325 11.0695 12.2401C11.3724 12.4208 11.5308 12.2601 11.71 12.0633C11.8555 11.9015 12.0095 11.7475 12.1713 11.602C12.3197 11.469 12.375 11.3544 12.2789 11.1407C12.1336 10.824 12.3043 10.4488 12.5319 10.3588C12.9163 10.2004 12.8763 9.95057 12.874 9.66687C12.874 9.47543 12.864 9.28246 12.874 9.09333C12.8886 8.89189 12.8456 8.76658 12.6241 8.69661C12.3796 8.61973 12.1459 8.09616 12.2605 7.88242C12.385 7.65178 12.3151 7.51262 12.1428 7.36039C11.9527 7.19203 11.773 7.01231 11.6046 6.82222C11.4662 6.66845 11.3432 6.62155 11.1433 6.72919C10.9434 6.83682 10.3799 6.63846 10.3306 6.43549C10.2491 6.10336 10.03 6.11643 9.78091 6.12796C9.5318 6.1395 9.29345 6.10567 9.05588 6.1395C8.99038 6.1527 8.92817 6.17881 8.87286 6.2163C8.81755 6.25378 8.77026 6.3019 8.73373 6.35784C8.57996 6.62385 8.12787 6.82529 7.8434 6.73149C7.31827 6.55928 7.23984 7.11591 6.94075 7.31119C6.78313 7.41267 6.55633 7.54184 6.72548 7.83476C6.83542 8.02466 6.66243 8.61281 6.46945 8.66202C6.10885 8.75351 6.11885 8.99338 6.13192 9.26939C6.14345 9.5108 6.12423 9.75451 6.14038 9.99516C6.14313 10.042 6.15523 10.0879 6.17596 10.13C6.19669 10.1721 6.22563 10.2096 6.26108 10.2404C6.7224 10.5326 6.8039 10.7286 6.68472 11.2706C6.67012 11.3345 6.68472 11.4505 6.72163 11.4728C7.14911 11.7181 7.26675 12.53 8.08174 12.194Z" fill="#3C557A"/>
<path d="M6.01172 17.0495L6.28313 16.4828C10.7963 18.368 14.5414 15.9177 15.8462 13.6782L14.1862 14.0772C14.1332 13.8973 14.0801 13.7197 14.014 13.499L16.8019 12.7979C16.9203 13.7335 17.0325 14.6369 17.1548 15.5856L16.5535 15.6502C16.4874 15.1597 16.4251 14.6961 16.3552 14.181C13.5934 17.6184 10.1782 18.5825 6.01172 17.0495Z" fill="#3C557A"/>
<path d="M4.28936 4.90514C3.80498 4.90514 3.3206 4.91129 2.83622 4.90514C2.2119 4.89592 1.84516 4.52841 1.84132 3.89798C1.83414 2.92926 1.83414 1.96079 1.84132 0.992585C1.84593 0.385982 2.21575 0.0131011 2.81853 0.00771932C3.7996 3.106e-05 4.78092 3.106e-05 5.76249 0.00771932C6.36681 0.0138699 6.73278 0.385214 6.73817 0.994124C6.74586 1.97515 6.74586 2.95642 6.73817 3.93796C6.73202 4.52227 6.36143 4.8913 5.78017 4.9036C5.28349 4.91283 4.78604 4.90437 4.28936 4.90514ZM2.45256 2.41568C2.45256 2.87698 2.46486 3.33289 2.44795 3.79111C2.43488 4.14554 2.56404 4.30238 2.93386 4.297C3.83727 4.28316 4.74145 4.2847 5.64562 4.297C5.98161 4.30161 6.13615 4.18244 6.13231 3.83109C6.12077 2.91465 6.12231 1.99744 6.13231 1.081C6.13231 0.764246 6.02083 0.611249 5.68638 0.614324C4.7576 0.62355 3.8283 0.62355 2.8985 0.614324C2.56712 0.614324 2.44257 0.76117 2.45103 1.07562C2.46102 1.52461 2.45256 1.97053 2.45256 2.41568Z" fill="#3C557A"/>
<path d="M14.0954 9.46909C14.0954 8.98473 14.0877 8.50037 14.0954 8.01601C14.1077 7.43324 14.4744 7.0619 15.0588 7.05652C16.0521 7.04627 17.046 7.04627 18.0404 7.05652C18.6193 7.06344 18.9861 7.44093 18.9915 8.02754C19.0007 9.00857 19.0007 9.98959 18.9915 10.9706C18.9861 11.5734 18.6124 11.947 18.0089 11.9524C17.0278 11.9606 16.0465 11.9606 15.0649 11.9524C14.466 11.947 14.1023 11.568 14.0938 10.9606C14.0885 10.4601 14.0954 9.96268 14.0954 9.46909ZM16.545 11.3412C17.0063 11.3412 17.4622 11.3327 17.9197 11.3412C18.238 11.3496 18.3902 11.2289 18.3864 10.896C18.3782 9.96678 18.3782 9.03727 18.3864 8.1075C18.3864 7.77767 18.2434 7.6562 17.9251 7.65928C17.0081 7.66902 16.0911 7.66902 15.1741 7.65928C14.8566 7.65928 14.7035 7.77229 14.7074 8.1052C14.7156 9.03445 14.7156 9.96396 14.7074 10.8937C14.7074 11.2266 14.8542 11.3489 15.1687 11.3412C15.6269 11.3304 16.0852 11.3389 16.5442 11.3381L16.545 11.3412Z" fill="#3C557A"/>
<path d="M0.00146402 16.5464C0.00146402 16.049 -0.00622455 15.5524 0.00146402 15.0557C0.0137657 14.4745 0.385897 14.1031 0.967153 14.0977C1.94822 14.0885 2.92954 14.0885 3.91111 14.0977C4.52005 14.1031 4.89217 14.4691 4.89755 15.0726C4.90678 16.0536 4.90678 17.0349 4.89755 18.0164C4.89217 18.6192 4.5185 18.9898 3.91264 18.9944C2.94388 19.0031 1.97538 19.0031 1.00714 18.9944C0.376672 18.9944 0.00762276 18.6238 -6.58124e-05 17.9988C-0.00467896 17.5152 0.00146402 17.0308 0.00146402 16.5464ZM2.41337 18.3839C2.87468 18.3839 3.33062 18.3716 3.78809 18.3839C4.14176 18.3962 4.30092 18.2694 4.29477 17.898C4.28016 16.9947 4.28247 16.0905 4.29477 15.1864C4.29938 14.8527 4.18329 14.6951 3.83346 14.6997C2.91698 14.712 1.99973 14.7097 1.08325 14.6997C0.765713 14.6997 0.613474 14.8143 0.61655 15.1464C0.624751 16.0762 0.624751 17.0057 0.61655 17.9349C0.612705 18.2679 0.76417 18.3893 1.07786 18.3816C1.52149 18.3747 1.96743 18.387 2.41337 18.387V18.3839Z" fill="#3C557A"/>
<path d="M7.41797 1.53726L9.62997 0.0595703L9.97442 0.560077L9.02103 1.21281C12.5247 1.21281 15.095 2.66666 16.8457 5.66354L16.3075 5.95493C14.6929 3.18254 12.3048 1.81634 9.09023 1.90398L9.96058 2.51213L9.63612 3.01109L7.41797 1.53726Z" fill="#3C557A"/>
<path d="M2.00862 6.00879L2.5422 6.2625C1.72029 8.17842 1.57421 10.1105 2.42072 12.0725C2.53528 11.6112 2.65138 11.1568 2.7744 10.6633L3.36027 10.8055C3.13653 11.7404 2.91971 12.6507 2.68982 13.6117L0.167969 12.2232C0.262538 12.0464 0.345572 11.8918 0.453212 11.6896L1.80025 12.417C1.40121 11.3175 1.17901 10.2642 1.23206 9.17481C1.27387 8.07778 1.53807 7.00067 2.00862 6.00879Z" fill="#3C557A"/>
<path d="M11.9479 9.48627C11.9505 9.97032 11.8096 10.4443 11.543 10.8483C11.2764 11.2523 10.896 11.5683 10.4499 11.7564C10.0039 11.9444 9.51209 11.9961 9.03669 11.9048C8.56128 11.8136 8.12358 11.5835 7.77882 11.2437C7.43406 10.9039 7.19773 10.4696 7.09964 9.99555C7.00156 9.52153 7.04612 9.02908 7.22771 8.58036C7.40931 8.13165 7.71978 7.7468 8.11994 7.4744C8.52011 7.202 8.99202 7.05427 9.47608 7.04986C10.1269 7.04556 10.7527 7.29975 11.2162 7.75658C11.6797 8.21341 11.9429 8.83553 11.9479 9.48627ZM9.51605 11.3361C9.88015 11.3326 10.235 11.2211 10.5356 11.0156C10.8361 10.81 11.0688 10.5198 11.2041 10.1818C11.3394 9.84373 11.3711 9.47311 11.2953 9.11699C11.2195 8.76087 11.0395 8.43531 10.7783 8.18167C10.5171 7.92803 10.1864 7.75775 9.82814 7.69246C9.46992 7.62718 9.10038 7.66982 8.76645 7.81499C8.43253 7.96015 8.14929 8.20128 7.95269 8.50776C7.7561 8.81423 7.65504 9.17222 7.66234 9.53624C7.67421 10.0192 7.87501 10.4782 8.22161 10.8147C8.56821 11.1512 9.03296 11.3384 9.51605 11.3361Z" fill="#3C557A"/>
<path d="M5.2943 1.29395L5.66951 1.68758L3.64972 3.7096L2.88086 2.93231L3.3068 2.59711L3.72352 2.95846L5.2943 1.29395Z" fill="#3C557A"/>
<path d="M15.1191 9.99506L15.5182 9.60527L15.9641 9.98968C16.4854 9.44689 17.0013 8.90794 17.551 8.33594L17.9201 8.74726C17.2414 9.42024 16.5661 10.0883 15.8941 10.7516L15.1191 9.99506Z" fill="#3C557A"/>
<path d="M1.78333 17.7965C1.57497 17.5828 1.32817 17.3275 1.06445 17.0561L1.47194 16.6901L1.85637 17.0215C2.37227 16.4833 2.88664 15.9452 3.44714 15.3555L3.79313 15.7914L1.78333 17.7965Z" fill="#3C557A"/>
<path d="M9.53165 8.27557C9.77425 8.28181 10.0095 8.35997 10.2076 8.50015C10.4057 8.64032 10.5577 8.83618 10.6443 9.06288C10.7309 9.28958 10.7482 9.5369 10.694 9.77344C10.6398 10.01 10.5166 10.2251 10.3399 10.3915C10.1632 10.5579 9.94113 10.668 9.70176 10.7079C9.46238 10.7479 9.21654 10.7158 8.99542 10.6158C8.7743 10.5158 8.58789 10.3524 8.45982 10.1462C8.33175 9.94009 8.26781 9.70056 8.27611 9.45803C8.28989 9.13615 8.42887 8.83238 8.66341 8.61149C8.89795 8.3906 9.20951 8.27006 9.53165 8.27557ZM9.5032 10.11C9.62368 10.1089 9.74115 10.0722 9.84077 10.0044C9.94039 9.93664 10.0177 9.84088 10.0629 9.7292C10.1082 9.61753 10.1193 9.49496 10.0949 9.37697C10.0705 9.25898 10.0117 9.15086 9.92594 9.06626C9.84015 8.98165 9.73122 8.92436 9.6129 8.90162C9.49458 8.87887 9.37217 8.8917 9.26113 8.93847C9.15009 8.98524 9.0554 9.06386 8.98901 9.1644C8.92262 9.26495 8.88751 9.38291 8.88811 9.50339C8.89034 9.66504 8.95612 9.81932 9.07123 9.93285C9.18635 10.0464 9.34152 10.11 9.5032 10.11Z" fill="#3C557A"/>
</g>
<defs>
<clipPath id="clip0_2980_4203">
<rect width="19" height="19" fill="white"/>
</clipPath>
</defs>
</svg>
