<svg width="40" height="23" viewBox="0 0 40 23" fill="none" xmlns="http://www.w3.org/2000/svg">
<path d="M7.23723 8.96954C4.44023 9.34485 3.32305 15.3461 1 15.3461V22.8117H4.52558H38.4832L38.487 7.54032C36.1368 8.65912 34.6467 0.482009 32.2498 1.25025C29.6144 2.09491 29.1683 11.6081 26.0125 11.6081C23.5268 11.6081 22.2332 7.99583 19.7753 8.63973C16.8917 9.39515 16.3791 19.1454 13.4745 19.6022C10.9149 20.0048 9.79969 8.62569 7.23723 8.96954Z" fill="url(#paint0_linear_2164_2234)" fill-opacity="0.25"/>
<path d="M1 15.2493C3.32305 15.2493 4.44023 9.28914 7.23723 8.91639C9.79969 8.5749 10.9149 19.8762 13.4745 19.4764C16.3791 19.0227 16.8917 9.3391 19.7753 8.58884C22.2332 7.94935 23.5268 11.5369 26.0125 11.5369C29.1683 11.5369 29.6144 2.08878 32.2498 1.2499C34.6467 0.486914 36.1368 8.6081 38.487 7.49695" stroke="#4CBC9A" stroke-width="0.95" stroke-linecap="round"/>
<ellipse cx="37.7012" cy="8.08652" rx="1.93171" ry="1.9" fill="#4CBC9A"/>
<defs>
<linearGradient id="paint0_linear_2164_2234" x1="19.7435" y1="1.19922" x2="19.7435" y2="22.8117" gradientUnits="userSpaceOnUse">
<stop stop-color="#4CBC9A"/>
<stop offset="1" stop-color="#4CBC9A" stop-opacity="0"/>
</linearGradient>
</defs>
</svg>
