<svg width="25" height="25" viewBox="0 0 25 25" fill="none" xmlns="http://www.w3.org/2000/svg">
<path fill-rule="evenodd" clip-rule="evenodd" d="M3 22L22 3L20.9393 1.93934L17.1409 5.73775C15.1854 5.04745 13.1497 4.86492 11.1786 5.09309C6.33346 5.65398 1.86647 8.70321 0.030919 12.6977L0 12.777L0.030919 12.8498C0.991854 14.9409 2.67398 16.773 4.75401 18.1247L1.93934 20.9393L3 22ZM5.95176 16.9269C4.19502 15.8493 2.74956 14.4025 1.8441 12.7737C3.57637 9.65774 7.28506 7.20748 11.3687 6.73475C12.8324 6.56531 14.3431 6.65063 15.823 7.05566L14.4402 8.4385C13.8473 8.16568 13.1873 8.01354 12.4919 8.01354C9.91478 8.01354 7.82564 10.1027 7.82564 12.6798C7.82564 13.3752 7.97779 14.0351 8.25061 14.6281L5.95176 16.9269ZM9.54861 13.3301C9.50255 13.1206 9.47826 12.903 9.47826 12.6798C9.47826 11.0154 10.8275 9.66616 12.4919 9.66616C12.7151 9.66616 12.9327 9.69044 13.1422 9.7365L9.54861 13.3301Z" fill="#3c81fb"/>
<path d="M16.577 10.423L15.3316 11.6684C15.4442 11.9845 15.5055 12.325 15.5055 12.6798C15.5055 14.3441 14.1562 15.6934 12.4919 15.6934C12.1371 15.6934 11.7966 15.6321 11.4805 15.5195L10.2351 16.7649C10.9039 17.1352 11.6733 17.346 12.4919 17.346C15.069 17.346 17.1581 15.2568 17.1581 12.6798C17.1581 11.8612 16.9473 11.0918 16.577 10.423Z" fill="#3c81fb"/>
<path d="M11.3687 18.8127C10.4776 18.7095 9.60436 18.5122 8.76562 18.2344L7.47612 19.5239C8.65684 19.9874 9.90467 20.3069 11.1786 20.4544C16.1484 21.0297 21.5287 18.9941 25 12.7917L24.9679 12.7737L25 12.7558C23.5695 10.1998 21.8148 8.35142 19.8982 7.10178L18.7001 8.29985C20.3105 9.28205 21.8128 10.7407 23.0899 12.7737C19.9607 17.7552 15.4792 19.2885 11.3687 18.8127Z" fill="#3c81fb"/>
</svg>
