<svg width="14" height="10" viewBox="0 0 14 10" fill="none" xmlns="http://www.w3.org/2000/svg">
<path fill-rule="evenodd" clip-rule="evenodd" d="M0.5 0C0.367392 0 0.240215 0.0514023 0.146447 0.142899C0.0526784 0.234395 0 0.358491 0 0.487887V1.46366C0 1.59306 0.0526784 1.71715 0.146447 1.80865C0.240215 1.90015 0.367392 1.95155 0.5 1.95155H1.5C1.63261 1.95155 1.75979 1.90015 1.85355 1.80865C1.94732 1.71715 2 1.59306 2 1.46366V0.487887C2 0.358491 1.94732 0.234395 1.85355 0.142899C1.75979 0.0514023 1.63261 0 1.5 0H0.5ZM1.5 0.487887H0.5V1.46366H1.5V0.487887Z" fill="#00DB99"/>
<path d="M3.5 0.975802C3.5 0.846406 3.55268 0.72231 3.64645 0.630814C3.74021 0.539317 3.86739 0.487915 4 0.487915H13C13.1326 0.487915 13.2598 0.539317 13.3536 0.630814C13.4473 0.72231 13.5 0.846406 13.5 0.975802C13.5 1.1052 13.4473 1.22929 13.3536 1.32079C13.2598 1.41229 13.1326 1.46369 13 1.46369H4C3.86739 1.46369 3.74021 1.41229 3.64645 1.32079C3.55268 1.22929 3.5 1.1052 3.5 0.975802ZM4 4.39101C3.86739 4.39101 3.74021 4.44241 3.64645 4.53391C3.55268 4.62541 3.5 4.7495 3.5 4.8789C3.5 5.00829 3.55268 5.13239 3.64645 5.22389C3.74021 5.31538 3.86739 5.36678 4 5.36678H13C13.1326 5.36678 13.2598 5.31538 13.3536 5.22389C13.4473 5.13239 13.5 5.00829 13.5 4.8789C13.5 4.7495 13.4473 4.62541 13.3536 4.53391C13.2598 4.44241 13.1326 4.39101 13 4.39101H4ZM4 8.29411C3.86739 8.29411 3.74021 8.34551 3.64645 8.43701C3.55268 8.5285 3.5 8.6526 3.5 8.78199C3.5 8.91139 3.55268 9.03549 3.64645 9.12698C3.74021 9.21848 3.86739 9.26988 4 9.26988H13C13.1326 9.26988 13.2598 9.21848 13.3536 9.12698C13.4473 9.03549 13.5 8.91139 13.5 8.78199C13.5 8.6526 13.4473 8.5285 13.3536 8.43701C13.2598 8.34551 13.1326 8.29411 13 8.29411H4Z" fill="#00DB99"/>
<path fill-rule="evenodd" clip-rule="evenodd" d="M0 4.39096C0 4.26157 0.0526784 4.13747 0.146447 4.04598C0.240215 3.95448 0.367392 3.90308 0.5 3.90308H1.5C1.63261 3.90308 1.75979 3.95448 1.85355 4.04598C1.94732 4.13747 2 4.26157 2 4.39096V5.36674C2 5.49613 1.94732 5.62023 1.85355 5.71173C1.75979 5.80322 1.63261 5.85462 1.5 5.85462H0.5C0.367392 5.85462 0.240215 5.80322 0.146447 5.71173C0.0526784 5.62023 0 5.49613 0 5.36674V4.39096ZM0.5 4.39096H1.5V5.36674H0.5V4.39096ZM0.5 7.80617C0.367392 7.80617 0.240215 7.85757 0.146447 7.94907C0.0526784 8.04057 0 8.16466 0 8.29406V9.26983C0 9.39923 0.0526784 9.52332 0.146447 9.61482C0.240215 9.70632 0.367392 9.75772 0.5 9.75772H1.5C1.63261 9.75772 1.75979 9.70632 1.85355 9.61482C1.94732 9.52332 2 9.39923 2 9.26983V8.29406C2 8.16466 1.94732 8.04057 1.85355 7.94907C1.75979 7.85757 1.63261 7.80617 1.5 7.80617H0.5ZM1.5 8.29406H0.5V9.26983H1.5V8.29406Z" fill="#00DB99"/>
</svg>
