<svg width="30" height="22" viewBox="0 0 30 22" fill="none" xmlns="http://www.w3.org/2000/svg">
<path d="M21.2273 12.5066C23.054 13.7466 24.334 15.4266 24.334 17.6666V21.6666H29.6673V17.6666C29.6673 14.7599 24.9073 13.0399 21.2273 12.5066ZM19.0007 10.9999C21.9473 10.9999 24.334 8.61325 24.334 5.66659C24.334 2.71992 21.9473 0.333252 19.0007 0.333252C18.374 0.333252 17.7873 0.466585 17.2273 0.653252C18.3747 2.07221 19.0006 3.84179 19.0006 5.66659C19.0006 7.49138 18.3747 9.26096 17.2273 10.6799C17.7873 10.8666 18.374 10.9999 19.0007 10.9999ZM11.0007 10.9999C13.9473 10.9999 16.334 8.61325 16.334 5.66659C16.334 2.71992 13.9473 0.333252 11.0007 0.333252C8.05398 0.333252 5.66732 2.71992 5.66732 5.66659C5.66732 8.61325 8.05398 10.9999 11.0007 10.9999ZM11.0007 2.99992C12.4673 2.99992 13.6673 4.19992 13.6673 5.66659C13.6673 7.13325 12.4673 8.33325 11.0007 8.33325C9.53398 8.33325 8.33398 7.13325 8.33398 5.66659C8.33398 4.19992 9.53398 2.99992 11.0007 2.99992ZM11.0007 12.3333C7.44065 12.3333 0.333984 14.1199 0.333984 17.6666V21.6666H21.6673V17.6666C21.6673 14.1199 14.5607 12.3333 11.0007 12.3333ZM19.0007 18.9999H3.00065V17.6799C3.26732 16.7199 7.40065 14.9999 11.0007 14.9999C14.6007 14.9999 18.734 16.7199 19.0007 17.6666V18.9999Z" fill="#5271ff"/>
</svg>
