<svg width="20" height="21" viewBox="0 0 20 21" fill="none" xmlns="http://www.w3.org/2000/svg">
<path d="M3.47677 2.50008C3.98568 1.44596 4.85124 1.25739 5.84503 1.33941C6.20768 1.36959 6.43409 1.2951 6.6054 0.931153C6.97206 0.152349 7.87768 -0.174822 8.74124 0.091065C8.9958 0.163094 9.24512 0.250649 9.48759 0.353178C11.2908 1.1697 13.1822 1.52704 15.1828 1.34036C15.4164 1.32751 15.6505 1.32751 15.8841 1.34036C16.9129 1.35356 17.6262 1.94002 17.7154 2.89985C17.7434 3.20251 17.8486 3.34771 18.1502 3.41559C18.3577 3.47136 18.5609 3.54067 18.7583 3.62302C19.8232 4.01808 20.25 4.88552 19.8522 5.89815C19.2151 7.52553 18.5499 9.14443 17.9218 10.7737C17.8092 11.0653 17.749 11.3724 17.7435 11.6826C17.7264 13.3571 17.7364 15.0317 17.7344 16.7071C17.7344 18.0196 17.0762 18.6419 15.6968 18.6447C15.5633 18.6533 15.4295 18.6533 15.296 18.6447C14.9214 18.5985 14.712 18.7183 14.5357 19.0633C14.1069 19.9025 13.1973 20.2014 12.2626 19.877C11.8428 19.7299 11.414 19.5942 11.0083 19.4207C9.61381 18.8078 8.16621 18.4995 6.61742 18.6419C6.15264 18.6673 5.68669 18.6673 5.22191 18.6419C4.20909 18.6221 3.51885 18.0451 3.42969 17.1022C3.40264 16.8005 3.28643 16.6732 3.00292 16.5732C1.06042 15.885 0.798944 15.323 1.53226 13.4854C2.09327 12.0805 2.72041 10.6954 3.18024 9.26228C3.41165 8.53817 3.35154 7.72731 3.38961 6.9551C3.38961 6.83536 3.22932 6.69487 3.11612 6.58738C2.25056 5.76427 1.37599 4.94963 0.511432 4.1284C-0.168792 3.48442 -0.168802 2.85365 0.501405 2.20873C0.628634 2.08616 0.757878 1.96264 0.889114 1.8429C1.53528 1.25644 2.20848 1.25738 2.86066 1.85704C3.05501 2.03807 3.23133 2.24268 3.47677 2.50008ZM7.80455 6.27718L7.72942 6.40541C7.99289 6.63736 8.28342 6.84762 8.51283 7.1069C8.80636 7.43879 9.14697 7.53308 9.59879 7.52742C11.3109 7.50291 13.023 7.51799 14.736 7.51611C15.0496 7.51611 15.3732 7.51611 15.3642 7.92719C15.3552 8.30434 15.0436 8.30434 14.7511 8.30434C13.3045 8.30434 11.8582 8.30434 10.4122 8.30434C10.255 8.30434 10.0987 8.31943 9.92136 8.32885C10.1688 8.65131 10.4503 8.91249 10.5886 9.22929C10.7268 9.54609 10.8891 9.60643 11.2107 9.60077C12.3908 9.58475 13.5719 9.59512 14.7521 9.59323C15.0526 9.59323 15.3531 9.60549 15.3642 9.97698C15.3782 10.3852 15.0516 10.3956 14.74 10.3975C14.2742 10.3975 13.8084 10.3975 13.3435 10.3975H11.1045C11.2084 10.6354 11.2987 10.8784 11.375 11.1254C11.4752 11.5487 11.7276 11.6732 12.1884 11.6534C13.1011 11.6128 14.0177 11.6326 14.9314 11.6534C15.0157 11.662 15.0974 11.6866 15.1714 11.7256C15.2454 11.7647 15.3103 11.8174 15.3622 11.8806C15.4263 11.9626 15.4072 12.2068 15.3311 12.2578C15.1733 12.36 14.9867 12.4155 14.7951 12.4171C11.9901 12.4265 9.17602 12.4237 6.36596 12.4237C6.29985 12.4237 6.21068 12.4482 6.1656 12.4171C6.00732 12.2945 5.86506 12.155 5.7158 12.022C5.87107 11.8948 6.00732 11.71 6.18764 11.6543C6.39902 11.5902 6.64847 11.6383 6.88089 11.6383C7.49199 11.6383 8.10209 11.6383 8.68414 11.6383C8.28342 11.3224 7.8827 11.0509 7.53206 10.7313C6.59137 9.86949 5.67072 8.98697 4.74104 8.11482C4.62884 8.00922 4.50862 7.91305 4.32529 7.75465C4.31227 7.97528 4.29824 8.10822 4.29824 8.24211C4.29824 11.0745 4.29824 13.9065 4.29824 16.7382C4.29824 17.6151 4.58175 17.8753 5.52846 17.8763H15.6036C16.5593 17.8763 16.8298 17.6274 16.8298 16.7448C16.8298 12.2386 16.8298 7.73234 16.8298 3.22608C16.8298 2.38694 16.5192 2.09465 15.6276 2.09465C12.2369 2.09465 8.84543 2.09465 5.45332 2.09465C5.27124 2.08779 5.08906 2.10557 4.91235 2.14745C4.24014 2.33602 4.08185 2.93756 4.57173 3.39862C5.19485 3.98508 5.80094 4.58851 6.45011 5.14763C6.66275 5.3273 6.93335 5.43455 7.2185 5.45218C9.72802 5.47387 12.2385 5.46538 14.7491 5.46444C15.0496 5.46444 15.3421 5.48801 15.3501 5.85761C15.3582 6.22721 15.0676 6.27247 14.7671 6.27435C13.9516 6.27435 13.1371 6.27435 12.3227 6.27435L7.80455 6.27718ZM2.46595 4.67432L8.4437 10.3013C8.78131 9.98358 9.163 9.62152 9.54569 9.26417L3.52084 3.70128L2.46595 4.67432ZM3.37859 15.8293V11.3111C2.86834 12.3935 2.41386 13.491 2.01514 14.6036C1.87789 14.9807 2.08326 15.3211 2.46094 15.5059C2.73443 15.6398 3.04098 15.7134 3.37859 15.8293ZM17.7635 4.12463V8.63245C18.2724 7.56042 18.7152 6.47518 19.1129 5.37486C19.2421 5.01752 19.0688 4.68469 18.7122 4.49989C18.403 4.35961 18.0863 4.23436 17.7635 4.12463ZM2.9919 2.94039C2.56112 2.67451 2.16942 2.24645 1.78973 2.25776C1.47617 2.26813 1.02035 2.75088 0.914159 3.10068C0.754873 3.63151 1.41506 3.81066 1.66551 4.13783L2.9919 2.94039ZM13.7352 18.6862H11.5313C12.7034 19.2199 13.4046 19.4735 13.7352 18.6805V18.6862ZM9.61682 1.28473C8.46675 0.72938 7.75146 0.530436 7.41886 1.28473H9.61682ZM10.5755 11.3536L10.0406 10.0854L9.20708 10.8614L10.5755 11.3536Z" fill="#3C557A"/>
<path d="M10.5191 16.5342C9.1586 16.5342 7.79814 16.5342 6.43769 16.5342C6.11311 16.5342 5.74344 16.554 5.73643 16.1382C5.72942 15.7224 6.08506 15.7158 6.41566 15.7158C9.18731 15.7158 11.959 15.7158 14.7306 15.7158C14.7967 15.7158 14.8849 15.6922 14.926 15.7224C15.1003 15.8535 15.2596 15.9996 15.4269 16.141C15.2546 16.2711 15.0863 16.5069 14.9079 16.5182C13.9803 16.5559 13.0496 16.5361 12.1209 16.5361L10.5191 16.5342Z" fill="#3C557A"/>
<path d="M10.5977 3.47364C11.9942 3.47364 13.3917 3.47364 14.7882 3.47364C15.0888 3.47364 15.3893 3.49249 15.4083 3.85078C15.4244 4.25244 15.0978 4.26187 14.7802 4.26187C11.9691 4.26187 9.15841 4.26187 6.34802 4.26187C6.04748 4.26187 5.74092 4.25055 5.7289 3.88472C5.71588 3.48683 6.03545 3.47175 6.35703 3.47269C7.77024 3.47646 9.18378 3.47678 10.5977 3.47364Z" fill="#3C557A"/>
<path d="M10.5236 14.4834H6.48235C6.36614 14.4834 6.22088 14.523 6.13973 14.4711C5.98045 14.3769 5.75303 14.2232 5.75003 14.094C5.74702 13.9648 5.97544 13.7357 6.12571 13.7169C6.55047 13.6622 6.98726 13.6914 7.42004 13.6914H14.5048C14.605 13.6914 14.7051 13.6914 14.8053 13.6914C15.1059 13.6857 15.4064 13.731 15.4064 14.0883C15.4064 14.4457 15.1229 14.4909 14.8124 14.4891C13.7474 14.4834 12.6835 14.4891 11.6186 14.4891L10.5236 14.4834Z" fill="#3C557A"/>
</svg>
