<svg width="15" height="9" viewBox="0 0 15 9" fill="none" xmlns="http://www.w3.org/2000/svg">
<path fill-rule="evenodd" clip-rule="evenodd" d="M4 8.29408C4 8.16468 4.05268 8.04059 4.14645 7.94909C4.24021 7.85759 4.36739 7.80619 4.5 7.80619H14.5C14.6326 7.80619 14.7598 7.85759 14.8536 7.94909C14.9473 8.04059 15 8.16468 15 8.29408C15 8.42347 14.9473 8.54757 14.8536 8.63907C14.7598 8.73056 14.6326 8.78197 14.5 8.78197H4.5C4.36739 8.78197 4.24021 8.73056 4.14645 8.63907C4.05268 8.54757 4 8.42347 4 8.29408ZM2 4.39098C2 4.26159 2.05268 4.13749 2.14645 4.04599C2.24021 3.9545 2.36739 3.9031 2.5 3.9031H12.5C12.6326 3.9031 12.7598 3.9545 12.8536 4.04599C12.9473 4.13749 13 4.26159 13 4.39098C13 4.52038 12.9473 4.64447 12.8536 4.73597C12.7598 4.82747 12.6326 4.87887 12.5 4.87887H2.5C2.36739 4.87887 2.24021 4.82747 2.14645 4.73597C2.05268 4.64447 2 4.52038 2 4.39098ZM0 0.487887C0 0.358491 0.0526784 0.234395 0.146447 0.142899C0.240215 0.0514023 0.367392 0 0.5 0H10.5C10.6326 0 10.7598 0.0514023 10.8536 0.142899C10.9473 0.234395 11 0.358491 11 0.487887C11 0.617283 10.9473 0.741378 10.8536 0.832875C10.7598 0.924372 10.6326 0.975774 10.5 0.975774H0.5C0.367392 0.975774 0.240215 0.924372 0.146447 0.832875C0.0526784 0.741378 0 0.617283 0 0.487887Z" fill="#00DB99"/>
</svg>
