<svg width="25" height="25" viewBox="0 0 25 25" fill="none" xmlns="http://www.w3.org/2000/svg">
<path fill-rule="evenodd" clip-rule="evenodd" d="M17.1581 12.6798C17.1581 15.2568 15.069 17.346 12.4919 17.346C9.91478 17.346 7.82564 15.2568 7.82564 12.6798C7.82564 10.1027 9.91478 8.01354 12.4919 8.01354C15.069 8.01354 17.1581 10.1027 17.1581 12.6798ZM15.5055 12.6798C15.5055 14.3441 14.1562 15.6934 12.4919 15.6934C10.8275 15.6934 9.47826 14.3441 9.47826 12.6798C9.47826 11.0154 10.8275 9.66616 12.4919 9.66616C14.1562 9.66616 15.5055 11.0154 15.5055 12.6798Z" fill="#3c81fb"/>
<path fill-rule="evenodd" clip-rule="evenodd" d="M0.030919 12.6977C1.86647 8.70321 6.33346 5.65398 11.1786 5.09309C16.1484 4.51778 21.5287 6.55339 25 12.7558L24.9679 12.7737L25 12.7917C21.5287 18.9941 16.1484 21.0297 11.1786 20.4544C6.33346 19.8935 1.86647 16.8442 0.030919 12.8498L0 12.777L0.030919 12.6977ZM1.8441 12.7737C3.57637 15.8897 7.28506 18.34 11.3687 18.8127C15.4792 19.2885 19.9607 17.7552 23.0899 12.7737C19.9607 7.79228 15.4792 6.25891 11.3687 6.73475C7.28506 7.20748 3.57637 9.65774 1.8441 12.7737Z" fill="#3c81fb"/>
</svg>
